{"glyphs":{"0":{"ha":833,"x_min":51,"x_max":782,"o":"m 417 -15 q 145 117 239 -15 q 51 493 51 249 q 145 866 51 738 q 417 994 239 994 q 688 866 594 994 q 782 493 782 738 q 688 117 782 249 q 417 -15 594 -15 m 417 160 q 536 240 497 160 q 575 493 575 319 q 536 743 575 667 q 417 819 497 819 q 297 743 336 819 q 258 493 258 667 q 297 240 258 319 q 417 160 336 160 z "},"1":{"ha":833,"x_min":119,"x_max":790,"o":"m 218 0 q 126 89 126 0 q 218 176 126 176 l 358 176 l 358 740 l 257 679 q 185 667 217 656 q 136 708 153 678 q 126 774 119 739 q 172 835 133 810 l 365 951 q 424 981 394 969 q 483 992 454 992 q 549 969 525 992 q 574 904 574 947 l 574 176 l 700 176 q 790 89 790 176 q 700 0 790 0 l 218 0 z "},"2":{"ha":833,"x_min":65,"x_max":781,"o":"m 192 0 q 115 24 139 0 q 92 96 92 49 q 107 153 92 126 q 149 207 122 179 l 410 482 q 494 593 468 544 q 519 690 519 642 q 365 815 519 815 q 283 804 325 815 q 194 765 240 793 q 126 756 157 743 q 80 799 94 768 q 73 863 65 829 q 118 919 81 897 q 251 976 179 957 q 394 994 324 994 q 645 922 558 994 q 732 714 732 849 q 691 544 732 625 q 557 368 650 463 l 368 176 l 690 176 q 781 89 781 176 q 690 0 781 0 l 192 0 z "},"3":{"ha":833,"x_min":46,"x_max":761,"o":"m 393 -15 q 244 1 319 -15 q 113 51 168 18 q 57 110 68 75 q 60 176 46 146 q 108 220 75 207 q 185 213 142 233 q 288 175 239 186 q 385 164 336 164 q 554 290 554 164 q 396 407 554 407 l 314 407 q 244 430 268 407 q 219 493 219 453 q 244 558 219 535 q 314 581 268 581 l 375 581 q 485 613 444 581 q 525 701 525 644 q 376 815 525 815 q 288 805 331 815 q 196 768 246 794 q 126 761 157 749 q 81 804 96 774 q 75 868 67 835 q 124 924 83 901 q 396 994 244 994 q 643 924 554 994 q 732 729 732 853 q 693 594 732 653 q 585 510 654 536 q 715 423 668 486 q 761 271 761 360 q 663 61 761 138 q 393 -15 564 -15 z "},"4":{"ha":833,"x_min":39,"x_max":818,"o":"m 569 -12 q 490 15 518 -12 q 463 96 463 43 l 463 175 l 151 175 q 69 198 100 175 q 39 268 39 221 q 51 324 39 296 q 96 397 64 353 l 456 921 q 508 974 479 957 q 575 992 536 992 q 647 965 621 992 q 674 883 674 938 l 674 344 l 725 344 q 818 260 818 344 q 725 175 818 175 l 674 175 l 674 96 q 647 15 674 43 q 569 -12 619 -12 m 463 344 l 463 668 l 243 344 l 463 344 z "},"5":{"ha":833,"x_min":76,"x_max":788,"o":"m 418 -15 q 272 2 347 -15 q 135 57 197 19 q 85 115 94 79 q 91 181 76 150 q 138 226 106 213 q 211 217 171 239 q 414 164 308 164 q 537 203 493 164 q 581 307 581 242 q 538 414 581 374 q 424 454 496 454 q 350 442 388 454 q 275 401 313 431 q 238 381 261 390 q 192 371 215 371 q 107 450 107 371 l 107 886 q 200 979 107 979 l 646 979 q 739 890 739 979 q 646 803 739 803 l 314 803 l 314 583 q 478 628 382 628 q 640 588 571 628 q 749 478 710 549 q 788 314 788 407 q 743 142 788 215 q 615 26 699 68 q 418 -15 532 -15 z "},"6":{"ha":833,"x_min":63,"x_max":785,"o":"m 454 -15 q 165 113 267 -15 q 63 476 63 242 q 178 858 63 722 q 497 994 293 994 q 618 978 557 994 q 732 928 679 961 q 774 875 767 908 q 769 811 782 842 q 726 767 756 781 q 654 772 696 753 q 572 806 611 796 q 494 815 532 815 q 267 517 267 815 l 267 490 q 357 598 296 560 q 497 636 418 636 q 645 595 581 636 q 747 483 710 554 q 785 319 785 411 q 742 147 785 222 q 626 28 700 71 q 454 -15 551 -15 m 443 153 q 547 197 507 153 q 586 311 586 240 q 547 425 586 381 q 443 469 507 469 q 338 425 378 469 q 299 311 299 381 q 338 197 299 240 q 443 153 378 153 z "},"7":{"ha":833,"x_min":54,"x_max":778,"o":"m 243 -12 q 158 28 182 -12 q 165 124 135 68 l 531 801 l 147 801 q 54 890 54 801 q 147 979 54 979 l 676 979 q 749 956 721 979 q 778 889 778 932 q 767 824 778 851 q 740 764 757 796 l 365 57 q 243 -12 328 -12 z "},"8":{"ha":833,"x_min":44,"x_max":789,"o":"m 417 -15 q 143 59 242 -15 q 44 267 44 133 q 88 415 44 353 q 204 504 132 478 q 106 594 143 535 q 69 728 69 653 q 163 924 69 853 q 417 994 257 994 q 671 924 576 994 q 765 728 765 853 q 728 592 765 651 q 631 504 692 532 q 746 414 703 476 q 789 267 789 351 q 690 59 789 133 q 417 -15 592 -15 m 417 578 q 527 612 488 578 q 567 704 567 646 q 527 796 567 763 q 417 829 488 829 q 307 796 346 829 q 268 704 268 763 q 307 612 268 646 q 417 578 346 578 m 417 150 q 592 282 592 150 q 417 413 592 413 q 287 380 332 413 q 242 282 242 347 q 287 183 242 217 q 417 150 332 150 z "},"9":{"ha":833,"x_min":49,"x_max":771,"o":"m 336 -15 q 215 1 276 -15 q 101 51 154 18 q 59 104 67 71 q 65 168 51 138 q 108 213 78 199 q 179 207 138 226 q 262 174 222 183 q 339 164 301 164 q 567 463 567 164 l 567 489 q 476 381 538 419 q 336 343 415 343 q 188 384 253 343 q 86 497 124 425 q 49 660 49 568 q 91 833 49 757 q 208 951 133 908 q 379 994 282 994 q 669 866 567 994 q 771 503 771 738 q 656 121 771 257 q 336 -15 540 -15 m 392 511 q 496 555 456 511 q 536 669 536 599 q 496 784 536 740 q 392 828 456 828 q 288 784 328 828 q 247 669 247 740 q 288 555 247 599 q 392 511 328 511 z "},"A":{"ha":1046,"x_min":18,"x_max":1031,"o":"m 126 -12 q 43 26 68 -12 q 44 122 18 65 l 400 901 q 453 970 422 949 q 524 992 483 992 q 594 970 564 992 q 646 901 625 949 l 1004 122 q 1006 26 1031 64 q 928 -12 982 -12 q 855 10 881 -12 q 810 79 829 32 l 751 213 l 294 213 l 238 79 q 193 9 217 31 q 126 -12 169 -12 m 521 750 l 367 381 l 681 381 l 524 750 l 521 750 z "},"Á":{"ha":1046,"x_min":18,"x_max":1031,"o":"m 126 -12 q 43 26 68 -12 q 44 122 18 65 l 400 901 q 453 970 422 949 q 524 992 483 992 q 594 970 564 992 q 646 901 625 949 l 1004 122 q 1006 26 1031 64 q 928 -12 982 -12 q 855 10 881 -12 q 810 79 829 32 l 751 213 l 294 213 l 238 79 q 193 9 217 31 q 126 -12 169 -12 m 521 750 l 367 381 l 681 381 l 524 750 l 521 750 m 607 1072 q 563 1051 586 1051 q 520 1064 539 1050 q 496 1099 501 1078 q 506 1143 490 1121 l 606 1290 q 659 1325 628 1324 q 717 1308 690 1326 q 750 1260 743 1289 q 732 1204 757 1232 l 607 1072 z "},"Ă":{"ha":1046,"x_min":18,"x_max":1031,"o":"m 126 -12 q 43 26 68 -12 q 44 122 18 65 l 400 901 q 453 970 422 949 q 524 992 483 992 q 594 970 564 992 q 646 901 625 949 l 1004 122 q 1006 26 1031 64 q 928 -12 982 -12 q 855 10 881 -12 q 810 79 829 32 l 751 213 l 294 213 l 238 79 q 193 9 217 31 q 126 -12 169 -12 m 521 750 l 367 381 l 681 381 l 524 750 l 521 750 m 524 1056 q 361 1102 429 1056 q 269 1232 293 1149 q 274 1285 260 1264 q 314 1308 289 1306 q 365 1295 350 1313 q 389 1261 381 1278 q 442 1196 404 1215 q 524 1176 479 1176 q 605 1196 568 1176 q 658 1261 642 1215 q 682 1295 667 1278 q 733 1308 697 1313 q 773 1285 758 1306 q 778 1232 788 1265 q 686 1102 754 1149 q 524 1056 618 1056 z "},"Ắ":{"ha":1046,"x_min":18,"x_max":1031,"o":"m 126 -12 q 43 26 68 -12 q 44 122 18 65 l 400 901 q 453 970 422 949 q 524 992 483 992 q 594 970 564 992 q 646 901 625 949 l 1004 122 q 1006 26 1031 64 q 928 -12 982 -12 q 855 10 881 -12 q 810 79 829 32 l 751 213 l 294 213 l 238 79 q 193 9 217 31 q 126 -12 169 -12 m 521 750 l 367 381 l 681 381 l 524 750 l 521 750 m 579 1243 q 526 1220 556 1217 q 481 1247 497 1224 q 481 1300 465 1269 l 538 1410 q 585 1447 554 1443 q 644 1435 617 1451 q 679 1392 671 1419 q 660 1333 688 1364 l 579 1243 m 524 1056 q 369 1099 432 1056 q 286 1217 307 1143 q 288 1265 276 1246 q 321 1286 299 1283 q 386 1246 363 1290 q 435 1190 401 1211 q 524 1168 469 1168 q 612 1190 578 1168 q 661 1246 646 1211 q 688 1278 674 1269 q 726 1286 703 1288 q 760 1266 749 1283 q 763 1219 771 1249 q 678 1101 742 1146 q 524 1056 615 1056 z "},"Ặ":{"ha":1046,"x_min":18,"x_max":1031,"o":"m 126 -12 q 43 26 68 -12 q 44 122 18 65 l 400 901 q 453 970 422 949 q 524 992 483 992 q 594 970 564 992 q 646 901 625 949 l 1004 122 q 1006 26 1031 64 q 928 -12 982 -12 q 855 10 881 -12 q 810 79 829 32 l 751 213 l 294 213 l 238 79 q 193 9 217 31 q 126 -12 169 -12 m 521 750 l 367 381 l 681 381 l 524 750 l 521 750 m 524 -304 q 447 -278 474 -304 q 419 -206 419 -253 q 524 -107 419 -107 q 628 -206 628 -107 q 524 -304 628 -304 m 524 1056 q 361 1102 429 1056 q 269 1232 293 1149 q 274 1285 260 1264 q 314 1308 289 1306 q 365 1295 350 1313 q 389 1261 381 1278 q 442 1196 404 1215 q 524 1176 479 1176 q 605 1196 568 1176 q 658 1261 642 1215 q 682 1295 667 1278 q 733 1308 697 1313 q 773 1285 758 1306 q 778 1232 788 1265 q 686 1102 754 1149 q 524 1056 618 1056 z "},"Ằ":{"ha":1046,"x_min":18,"x_max":1031,"o":"m 126 -12 q 43 26 68 -12 q 44 122 18 65 l 400 901 q 453 970 422 949 q 524 992 483 992 q 594 970 564 992 q 646 901 625 949 l 1004 122 q 1006 26 1031 64 q 928 -12 982 -12 q 855 10 881 -12 q 810 79 829 32 l 751 213 l 294 213 l 238 79 q 193 9 217 31 q 126 -12 169 -12 m 521 750 l 367 381 l 681 381 l 524 750 l 521 750 m 468 1243 l 388 1333 q 368 1392 360 1364 q 403 1435 376 1419 q 462 1447 431 1451 q 510 1410 493 1443 l 567 1300 q 566 1247 582 1269 q 521 1220 550 1224 q 468 1243 492 1217 m 524 1056 q 369 1101 432 1056 q 285 1219 306 1146 q 288 1266 276 1249 q 321 1286 299 1283 q 359 1278 344 1288 q 386 1246 374 1269 q 435 1190 401 1211 q 524 1168 469 1168 q 612 1190 578 1168 q 661 1246 646 1211 q 726 1286 685 1290 q 760 1265 749 1283 q 761 1217 771 1246 q 678 1099 740 1143 q 524 1056 615 1056 z "},"Ẳ":{"ha":1046,"x_min":18,"x_max":1031,"o":"m 126 -12 q 43 26 68 -12 q 44 122 18 65 l 400 901 q 453 970 422 949 q 524 992 483 992 q 594 970 564 992 q 646 901 625 949 l 1004 122 q 1006 26 1031 64 q 928 -12 982 -12 q 855 10 881 -12 q 810 79 829 32 l 751 213 l 294 213 l 238 79 q 193 9 217 31 q 126 -12 169 -12 m 521 750 l 367 381 l 681 381 l 524 750 l 521 750 m 569 1233 q 526 1226 550 1222 q 490 1243 501 1229 q 497 1274 479 1257 q 531 1328 531 1301 q 488 1356 531 1356 q 447 1351 468 1356 q 392 1375 404 1342 q 424 1426 379 1413 q 476 1437 449 1433 q 533 1440 503 1440 q 631 1421 596 1440 q 667 1361 667 1401 q 636 1290 667 1322 q 569 1233 606 1257 m 524 1056 q 369 1099 432 1056 q 286 1217 307 1143 q 288 1265 276 1246 q 321 1286 299 1283 q 386 1246 363 1290 q 435 1190 401 1211 q 524 1168 469 1168 q 612 1190 578 1168 q 661 1246 646 1211 q 688 1278 674 1269 q 726 1286 703 1288 q 760 1266 749 1283 q 763 1219 771 1249 q 678 1101 742 1146 q 524 1056 615 1056 z "},"Ẵ":{"ha":1046,"x_min":18,"x_max":1031,"o":"m 126 -12 q 43 26 68 -12 q 44 122 18 65 l 400 901 q 453 970 422 949 q 524 992 483 992 q 594 970 564 992 q 646 901 625 949 l 1004 122 q 1006 26 1031 64 q 928 -12 982 -12 q 855 10 881 -12 q 810 79 829 32 l 751 213 l 294 213 l 238 79 q 193 9 217 31 q 126 -12 169 -12 m 521 750 l 367 381 l 681 381 l 524 750 l 521 750 m 322 1278 q 288 1294 300 1278 q 282 1335 275 1310 q 337 1413 297 1386 q 431 1440 376 1440 q 499 1426 468 1440 q 558 1399 531 1413 q 611 1386 585 1386 q 645 1392 631 1386 q 668 1411 660 1397 q 692 1435 679 1426 q 725 1443 706 1444 q 761 1426 749 1442 q 765 1386 774 1411 q 712 1308 751 1335 q 618 1281 672 1281 q 548 1294 579 1281 q 490 1322 517 1308 q 438 1335 463 1335 q 381 1310 396 1335 q 356 1285 369 1294 q 322 1278 343 1276 m 524 1056 q 384 1086 443 1056 q 297 1165 325 1117 q 290 1210 282 1190 q 319 1238 297 1229 q 360 1238 344 1244 q 393 1215 375 1232 q 444 1181 411 1193 q 524 1168 476 1168 q 603 1181 571 1168 q 654 1215 636 1193 q 687 1239 671 1233 q 728 1238 703 1244 q 758 1211 750 1229 q 753 1169 767 1193 q 665 1087 725 1118 q 524 1056 606 1056 z "},"Ǎ":{"ha":1046,"x_min":18,"x_max":1031,"o":"m 126 -12 q 43 26 68 -12 q 44 122 18 65 l 400 901 q 453 970 422 949 q 524 992 483 992 q 594 970 564 992 q 646 901 625 949 l 1004 122 q 1006 26 1031 64 q 928 -12 982 -12 q 855 10 881 -12 q 810 79 829 32 l 751 213 l 294 213 l 238 79 q 193 9 217 31 q 126 -12 169 -12 m 521 750 l 367 381 l 681 381 l 524 750 l 521 750 m 524 1043 q 404 1108 450 1043 l 315 1232 q 305 1275 299 1254 q 330 1308 311 1296 q 373 1318 349 1319 q 417 1294 397 1317 l 524 1172 l 632 1294 q 675 1319 651 1317 q 718 1308 699 1321 q 743 1276 738 1296 q 732 1232 749 1256 l 644 1108 q 524 1043 599 1043 z "},"Â":{"ha":1046,"x_min":18,"x_max":1031,"o":"m 126 -12 q 43 26 68 -12 q 44 122 18 65 l 400 901 q 453 970 422 949 q 524 992 483 992 q 594 970 564 992 q 646 901 625 949 l 1004 122 q 1006 26 1031 64 q 928 -12 982 -12 q 855 10 881 -12 q 810 79 829 32 l 751 213 l 294 213 l 238 79 q 193 9 217 31 q 126 -12 169 -12 m 521 750 l 367 381 l 681 381 l 524 750 l 521 750 m 417 1074 q 373 1050 397 1051 q 330 1061 349 1049 q 305 1094 311 1074 q 315 1136 299 1114 l 404 1260 q 524 1325 449 1325 q 644 1260 597 1325 l 732 1136 q 743 1094 749 1114 q 719 1061 738 1074 q 676 1050 700 1049 q 632 1074 651 1051 l 524 1194 l 417 1074 z "},"Ấ":{"ha":1046,"x_min":18,"x_max":1031,"o":"m 126 -12 q 43 26 68 -12 q 44 122 18 65 l 400 901 q 453 970 422 949 q 524 992 483 992 q 594 970 564 992 q 646 901 625 949 l 1004 122 q 1006 26 1031 64 q 928 -12 982 -12 q 855 10 881 -12 q 810 79 829 32 l 751 213 l 294 213 l 238 79 q 193 9 217 31 q 126 -12 169 -12 m 521 750 l 367 381 l 681 381 l 524 750 l 521 750 m 793 1203 q 747 1181 772 1178 q 708 1205 721 1183 q 711 1258 694 1226 l 792 1403 q 836 1438 810 1435 q 885 1428 863 1442 q 915 1388 908 1414 q 900 1335 922 1363 l 793 1203 m 417 1069 q 361 1045 390 1040 q 319 1074 332 1050 q 326 1129 306 1099 l 406 1249 q 459 1298 431 1283 q 524 1313 488 1313 q 590 1298 561 1313 q 642 1249 618 1283 l 721 1129 q 729 1074 742 1099 q 688 1045 717 1050 q 631 1069 658 1040 l 524 1183 l 417 1069 z "},"Ậ":{"ha":1046,"x_min":18,"x_max":1031,"o":"m 126 -12 q 43 26 68 -12 q 44 122 18 65 l 400 901 q 453 970 422 949 q 524 992 483 992 q 594 970 564 992 q 646 901 625 949 l 1004 122 q 1006 26 1031 64 q 928 -12 982 -12 q 855 10 881 -12 q 810 79 829 32 l 751 213 l 294 213 l 238 79 q 193 9 217 31 q 126 -12 169 -12 m 521 750 l 367 381 l 681 381 l 524 750 l 521 750 m 524 -304 q 447 -278 474 -304 q 419 -206 419 -253 q 524 -107 419 -107 q 628 -206 628 -107 q 524 -304 628 -304 m 417 1074 q 373 1050 397 1051 q 330 1061 349 1049 q 305 1094 311 1074 q 315 1136 299 1114 l 404 1260 q 524 1325 449 1325 q 644 1260 597 1325 l 732 1136 q 743 1094 749 1114 q 719 1061 738 1074 q 676 1050 700 1049 q 632 1074 651 1051 l 524 1194 l 417 1074 z "},"Ầ":{"ha":1046,"x_min":18,"x_max":1031,"o":"m 126 -12 q 43 26 68 -12 q 44 122 18 65 l 400 901 q 453 970 422 949 q 524 992 483 992 q 594 970 564 992 q 646 901 625 949 l 1004 122 q 1006 26 1031 64 q 928 -12 982 -12 q 855 10 881 -12 q 810 79 829 32 l 751 213 l 294 213 l 238 79 q 193 9 217 31 q 126 -12 169 -12 m 521 750 l 367 381 l 681 381 l 524 750 l 521 750 m 750 1203 l 643 1335 q 628 1388 621 1363 q 658 1428 635 1414 q 707 1438 681 1442 q 750 1403 733 1435 l 831 1258 q 834 1205 847 1226 q 795 1181 821 1183 q 750 1203 769 1178 m 417 1069 q 361 1045 390 1040 q 319 1074 332 1050 q 326 1129 306 1099 l 406 1249 q 459 1298 431 1283 q 524 1313 488 1313 q 590 1298 561 1313 q 642 1249 618 1283 l 721 1129 q 729 1074 742 1099 q 688 1045 717 1050 q 631 1069 658 1040 l 524 1183 l 417 1069 z "},"Ẩ":{"ha":1046,"x_min":18,"x_max":1031,"o":"m 126 -12 q 43 26 68 -12 q 44 122 18 65 l 400 901 q 453 970 422 949 q 524 992 483 992 q 594 970 564 992 q 646 901 625 949 l 1004 122 q 1006 26 1031 64 q 928 -12 982 -12 q 855 10 881 -12 q 810 79 829 32 l 751 213 l 294 213 l 238 79 q 193 9 217 31 q 126 -12 169 -12 m 521 750 l 367 381 l 681 381 l 524 750 l 521 750 m 771 1204 q 731 1199 751 1193 q 702 1219 711 1204 q 710 1251 693 1235 q 738 1282 726 1268 q 749 1313 749 1296 q 704 1342 749 1342 q 664 1338 685 1342 q 608 1361 621 1328 q 640 1414 596 1401 q 692 1424 665 1421 q 750 1426 719 1426 q 847 1407 813 1426 q 881 1344 881 1388 q 844 1265 881 1303 q 771 1204 808 1226 m 417 1069 q 361 1045 390 1040 q 319 1074 332 1050 q 326 1129 306 1099 l 406 1249 q 459 1298 431 1283 q 524 1313 488 1313 q 590 1298 561 1313 q 642 1249 618 1283 l 721 1129 q 729 1074 742 1099 q 688 1045 717 1050 q 631 1069 658 1040 l 524 1183 l 417 1069 z "},"Ẫ":{"ha":1046,"x_min":18,"x_max":1031,"o":"m 126 -12 q 43 26 68 -12 q 44 122 18 65 l 400 901 q 453 970 422 949 q 524 992 483 992 q 594 970 564 992 q 646 901 625 949 l 1004 122 q 1006 26 1031 64 q 928 -12 982 -12 q 855 10 881 -12 q 810 79 829 32 l 751 213 l 294 213 l 238 79 q 193 9 217 31 q 126 -12 169 -12 m 521 750 l 367 381 l 681 381 l 524 750 l 521 750 m 322 1279 q 288 1296 300 1281 q 282 1338 275 1311 q 337 1415 297 1388 q 431 1442 376 1442 q 499 1428 468 1442 q 558 1401 531 1415 q 611 1388 585 1388 q 645 1394 631 1388 q 668 1414 660 1400 q 692 1438 679 1429 q 725 1446 706 1447 q 761 1429 749 1444 q 765 1389 774 1414 q 712 1310 751 1338 q 618 1283 672 1283 q 548 1297 579 1283 q 490 1324 517 1310 q 438 1338 463 1338 q 381 1311 396 1338 q 356 1288 369 1297 q 322 1279 343 1279 m 401 1058 q 350 1047 374 1039 q 317 1076 326 1054 q 326 1119 308 1097 l 396 1201 q 454 1246 422 1233 q 524 1258 486 1258 q 594 1246 563 1258 q 651 1201 626 1233 l 721 1119 q 729 1076 738 1097 q 698 1046 721 1054 q 646 1058 675 1038 l 524 1151 l 401 1058 z "},"Ȁ":{"ha":1046,"x_min":18,"x_max":1031,"o":"m 126 -12 q 43 26 68 -12 q 44 122 18 65 l 400 901 q 453 970 422 949 q 524 992 483 992 q 594 970 564 992 q 646 901 625 949 l 1004 122 q 1006 26 1031 64 q 928 -12 982 -12 q 855 10 881 -12 q 810 79 829 32 l 751 213 l 294 213 l 238 79 q 193 9 217 31 q 126 -12 169 -12 m 521 750 l 367 381 l 681 381 l 524 750 l 521 750 m 349 1071 l 232 1214 q 214 1272 207 1244 q 246 1314 221 1299 q 300 1324 271 1329 q 347 1286 329 1319 l 433 1131 q 436 1078 450 1101 q 397 1049 422 1054 q 349 1071 371 1044 m 564 1076 l 463 1214 q 447 1273 438 1246 q 483 1314 457 1300 q 539 1323 510 1328 q 583 1285 568 1318 l 663 1126 q 660 1074 676 1096 q 615 1050 643 1053 q 564 1076 586 1047 z "},"Ä":{"ha":1046,"x_min":18,"x_max":1031,"o":"m 126 -12 q 43 26 68 -12 q 44 122 18 65 l 400 901 q 453 970 422 949 q 524 992 483 992 q 594 970 564 992 q 646 901 625 949 l 1004 122 q 1006 26 1031 64 q 928 -12 982 -12 q 855 10 881 -12 q 810 79 829 32 l 751 213 l 294 213 l 238 79 q 193 9 217 31 q 126 -12 169 -12 m 521 750 l 367 381 l 681 381 l 524 750 l 521 750 m 661 1078 q 563 1176 563 1078 q 661 1274 563 1274 q 758 1176 758 1274 q 661 1078 758 1078 m 388 1078 q 315 1103 340 1078 q 289 1176 289 1129 q 315 1249 289 1224 q 388 1274 340 1274 q 485 1176 485 1274 q 388 1078 485 1078 z "},"Ȧ":{"ha":1046,"x_min":18,"x_max":1031,"o":"m 126 -12 q 43 26 68 -12 q 44 122 18 65 l 400 901 q 453 970 422 949 q 524 992 483 992 q 594 970 564 992 q 646 901 625 949 l 1004 122 q 1006 26 1031 64 q 928 -12 982 -12 q 855 10 881 -12 q 810 79 829 32 l 751 213 l 294 213 l 238 79 q 193 9 217 31 q 126 -12 169 -12 m 521 750 l 367 381 l 681 381 l 524 750 l 521 750 m 524 1085 q 447 1110 474 1085 q 419 1185 419 1136 q 524 1282 419 1282 q 628 1185 628 1282 q 524 1085 628 1085 z "},"Ạ":{"ha":1046,"x_min":18,"x_max":1031,"o":"m 126 -12 q 43 26 68 -12 q 44 122 18 65 l 400 901 q 453 970 422 949 q 524 992 483 992 q 594 970 564 992 q 646 901 625 949 l 1004 122 q 1006 26 1031 64 q 928 -12 982 -12 q 855 10 881 -12 q 810 79 829 32 l 751 213 l 294 213 l 238 79 q 193 9 217 31 q 126 -12 169 -12 m 521 750 l 367 381 l 681 381 l 524 750 l 521 750 m 524 -304 q 447 -278 474 -304 q 419 -206 419 -253 q 524 -107 419 -107 q 628 -206 628 -107 q 524 -304 628 -304 z "},"À":{"ha":1046,"x_min":18,"x_max":1031,"o":"m 126 -12 q 43 26 68 -12 q 44 122 18 65 l 400 901 q 453 970 422 949 q 524 992 483 992 q 594 970 564 992 q 646 901 625 949 l 1004 122 q 1006 26 1031 64 q 928 -12 982 -12 q 855 10 881 -12 q 810 79 829 32 l 751 213 l 294 213 l 238 79 q 193 9 217 31 q 126 -12 169 -12 m 521 750 l 367 381 l 681 381 l 524 750 l 521 750 m 442 1072 l 317 1204 q 298 1260 290 1232 q 332 1308 306 1289 q 390 1325 358 1326 q 443 1290 421 1324 l 543 1143 q 552 1099 558 1121 q 528 1064 546 1078 q 486 1051 510 1050 q 442 1072 463 1051 z "},"Ả":{"ha":1046,"x_min":18,"x_max":1031,"o":"m 126 -12 q 43 26 68 -12 q 44 122 18 65 l 400 901 q 453 970 422 949 q 524 992 483 992 q 594 970 564 992 q 646 901 625 949 l 1004 122 q 1006 26 1031 64 q 928 -12 982 -12 q 855 10 881 -12 q 810 79 829 32 l 751 213 l 294 213 l 238 79 q 193 9 217 31 q 126 -12 169 -12 m 521 750 l 367 381 l 681 381 l 524 750 l 521 750 m 524 1050 q 463 1089 463 1050 q 481 1136 463 1119 q 517 1165 499 1153 q 535 1196 535 1178 q 485 1221 535 1221 q 440 1217 461 1221 q 376 1240 389 1206 q 376 1276 369 1260 q 408 1300 383 1292 q 467 1313 433 1308 q 538 1317 500 1317 q 649 1293 608 1317 q 690 1228 690 1269 q 674 1177 690 1196 q 638 1146 658 1158 q 601 1119 617 1133 q 586 1081 586 1104 q 524 1050 586 1050 z "},"Ȃ":{"ha":1046,"x_min":18,"x_max":1031,"o":"m 126 -12 q 43 26 68 -12 q 44 122 18 65 l 400 901 q 453 970 422 949 q 524 992 483 992 q 594 970 564 992 q 646 901 625 949 l 1004 122 q 1006 26 1031 64 q 928 -12 982 -12 q 855 10 881 -12 q 810 79 829 32 l 751 213 l 294 213 l 238 79 q 193 9 217 31 q 126 -12 169 -12 m 521 750 l 367 381 l 681 381 l 524 750 l 521 750 m 314 1056 q 274 1079 288 1058 q 269 1132 260 1100 q 362 1262 293 1215 q 524 1308 431 1308 q 685 1262 615 1308 q 776 1132 754 1215 q 772 1080 786 1101 q 732 1056 758 1058 q 682 1069 697 1051 q 658 1103 667 1086 q 605 1168 642 1149 q 524 1188 568 1188 q 442 1168 479 1188 q 389 1103 406 1149 q 365 1069 381 1086 q 314 1056 349 1053 z "},"Ā":{"ha":1046,"x_min":18,"x_max":1031,"o":"m 126 -12 q 43 26 68 -12 q 44 122 18 65 l 400 901 q 453 970 422 949 q 524 992 483 992 q 594 970 564 992 q 646 901 625 949 l 1004 122 q 1006 26 1031 64 q 928 -12 982 -12 q 855 10 881 -12 q 810 79 829 32 l 751 213 l 294 213 l 238 79 q 193 9 217 31 q 126 -12 169 -12 m 521 750 l 367 381 l 681 381 l 524 750 l 521 750 m 329 1113 q 268 1172 268 1113 q 329 1231 268 1231 l 718 1231 q 781 1172 781 1231 q 718 1113 781 1113 l 329 1113 z "},"Ą":{"ha":1046,"x_min":17,"x_max":1090,"o":"m 956 -274 q 828 -233 874 -274 q 782 -124 782 -192 q 800 -48 782 -83 q 850 15 818 -12 q 828 42 838 26 q 810 79 818 58 l 751 213 l 294 213 l 238 79 q 193 9 217 31 q 126 -12 169 -12 q 42 26 68 -12 q 43 122 17 65 l 400 901 q 453 970 422 949 q 524 992 483 992 q 594 970 564 992 q 646 901 625 949 l 1004 122 q 1016 47 1024 81 q 981 0 1008 14 q 928 -42 949 -15 q 908 -100 908 -68 q 931 -149 908 -132 q 985 -167 953 -167 q 1024 -161 1004 -167 q 1069 -167 1053 -156 q 1088 -197 1085 -178 q 1080 -234 1090 -215 q 1046 -261 1069 -253 q 999 -272 1022 -269 q 956 -274 976 -274 m 521 750 l 367 381 l 681 381 l 524 750 l 521 750 z "},"Å":{"ha":1046,"x_min":18,"x_max":1031,"o":"m 126 -12 q 43 26 68 -12 q 44 122 18 65 l 400 901 q 453 970 422 949 q 524 992 483 992 q 594 970 564 992 q 646 901 625 949 l 1004 122 q 1006 26 1031 64 q 928 -12 982 -12 q 855 10 881 -12 q 810 79 829 32 l 751 213 l 294 213 l 238 79 q 193 9 217 31 q 126 -12 169 -12 m 521 750 l 367 381 l 681 381 l 524 750 l 521 750 m 524 1046 q 431 1069 472 1046 q 367 1133 390 1093 q 343 1222 343 1172 q 367 1312 343 1272 q 431 1374 390 1351 q 524 1397 472 1397 q 616 1374 575 1397 q 681 1312 657 1351 q 704 1222 704 1272 q 681 1133 704 1172 q 616 1069 657 1093 q 524 1046 575 1046 m 524 1136 q 584 1160 560 1136 q 608 1222 608 1185 q 584 1283 608 1260 q 524 1307 560 1307 q 463 1283 488 1307 q 439 1222 439 1260 q 463 1160 439 1185 q 524 1136 488 1136 z "},"Ǻ":{"ha":1046,"x_min":18,"x_max":1031,"o":"m 126 -12 q 43 26 68 -12 q 44 122 18 65 l 400 901 q 453 970 422 949 q 524 992 483 992 q 594 970 564 992 q 646 901 625 949 l 1004 122 q 1006 26 1031 64 q 928 -12 982 -12 q 855 10 881 -12 q 810 79 829 32 l 751 213 l 294 213 l 238 79 q 193 9 217 31 q 126 -12 169 -12 m 521 750 l 367 381 l 681 381 l 524 750 l 521 750 m 524 1046 q 436 1068 475 1046 q 374 1128 397 1090 q 351 1214 351 1167 q 401 1331 351 1283 q 524 1379 451 1379 q 610 1357 569 1379 l 701 1442 q 742 1458 721 1460 q 777 1441 763 1456 q 793 1406 792 1426 q 775 1369 794 1386 l 678 1286 q 696 1214 696 1253 q 673 1128 696 1167 q 611 1068 650 1090 q 524 1046 572 1046 m 524 1128 q 584 1152 560 1128 q 608 1214 608 1176 q 584 1274 608 1250 q 524 1299 560 1299 q 463 1274 488 1299 q 439 1214 439 1250 q 463 1152 439 1176 q 524 1128 488 1128 z "},"Ã":{"ha":1046,"x_min":18,"x_max":1031,"o":"m 126 -12 q 43 26 68 -12 q 44 122 18 65 l 400 901 q 453 970 422 949 q 524 992 483 992 q 594 970 564 992 q 646 901 625 949 l 1004 122 q 1006 26 1031 64 q 928 -12 982 -12 q 855 10 881 -12 q 810 79 829 32 l 751 213 l 294 213 l 238 79 q 193 9 217 31 q 126 -12 169 -12 m 521 750 l 367 381 l 681 381 l 524 750 l 521 750 m 257 1060 q 217 1076 231 1061 q 208 1119 203 1092 q 277 1244 226 1200 q 400 1288 328 1288 q 495 1267 451 1288 q 577 1225 539 1246 q 651 1204 615 1204 q 703 1219 683 1204 q 733 1257 724 1233 q 756 1288 743 1278 q 790 1297 769 1299 q 831 1281 817 1296 q 839 1238 844 1265 q 770 1113 821 1157 q 649 1069 719 1069 q 553 1090 596 1069 q 472 1132 510 1111 q 396 1153 433 1153 q 344 1138 364 1153 q 314 1100 324 1124 q 291 1069 304 1079 q 257 1060 278 1058 z "},"Æ":{"ha":1389,"x_min":-21,"x_max":1328,"o":"m 85 -12 q -3 29 14 -12 q 10 121 -21 71 l 514 922 q 618 979 549 979 l 1240 979 q 1328 896 1328 979 q 1240 811 1328 811 l 781 811 l 831 582 l 1211 582 q 1297 497 1297 582 q 1211 413 1297 413 l 867 413 l 921 168 l 1240 168 q 1328 85 1328 168 q 1240 0 1328 0 l 844 0 q 749 76 767 0 l 719 213 l 288 213 l 193 54 q 149 5 174 22 q 85 -12 125 -12 m 601 743 l 386 381 l 683 381 l 604 743 l 601 743 z "},"Ǽ":{"ha":1389,"x_min":-21,"x_max":1328,"o":"m 85 -12 q -3 29 14 -12 q 10 121 -21 71 l 514 922 q 618 979 549 979 l 1240 979 q 1328 896 1328 979 q 1240 811 1328 811 l 781 811 l 831 582 l 1211 582 q 1297 497 1297 582 q 1211 413 1297 413 l 867 413 l 921 168 l 1240 168 q 1328 85 1328 168 q 1240 0 1328 0 l 844 0 q 749 76 767 0 l 719 213 l 288 213 l 193 54 q 149 5 174 22 q 85 -12 125 -12 m 601 743 l 386 381 l 683 381 l 604 743 l 601 743 m 763 1072 q 718 1051 742 1051 q 676 1064 694 1050 q 651 1099 657 1078 q 661 1143 646 1121 l 761 1290 q 815 1325 783 1324 q 872 1308 846 1326 q 906 1260 899 1289 q 888 1204 913 1232 l 763 1072 z "},"B":{"ha":965,"x_min":99,"x_max":901,"o":"m 211 0 q 99 113 99 0 l 99 867 q 211 979 99 979 l 547 979 q 790 911 704 979 q 875 725 875 843 q 836 591 875 647 q 728 507 797 535 q 856 424 811 483 q 901 276 901 364 q 810 73 901 146 q 563 0 719 0 l 211 0 m 304 576 l 510 576 q 668 699 668 576 q 510 819 668 819 l 304 819 l 304 576 m 304 160 l 533 160 q 656 192 617 160 q 694 289 694 224 q 656 385 694 353 q 533 417 617 417 l 304 417 l 304 160 z "},"Ɓ":{"ha":1194,"x_min":0,"x_max":1131,"o":"m 442 0 q 328 113 328 0 l 328 829 l 297 829 q 175 714 175 829 l 175 694 q 154 646 175 671 q 88 621 133 621 q 22 647 43 621 q 0 700 0 674 l 0 721 q 77 912 0 844 q 306 979 154 979 l 778 979 q 1019 911 933 979 q 1106 725 1106 843 q 1066 591 1106 647 q 957 507 1026 535 q 1085 424 1040 483 q 1131 276 1131 364 q 1040 73 1131 146 q 792 0 950 0 l 442 0 m 535 576 l 739 576 q 899 699 899 576 q 739 819 899 819 l 535 819 l 535 576 m 535 160 l 764 160 q 885 192 846 160 q 924 289 924 224 q 885 385 924 353 q 764 417 846 417 l 535 417 l 535 160 z "},"C":{"ha":950,"x_min":69,"x_max":904,"o":"m 574 -15 q 303 47 415 -15 q 130 223 190 110 q 69 490 69 336 q 130 756 69 643 q 303 932 190 869 q 574 994 415 994 q 715 976 643 994 q 839 928 786 958 q 892 865 882 903 q 885 794 901 828 q 836 747 869 761 q 761 757 803 733 q 674 793 719 782 q 581 804 628 804 q 369 723 440 804 q 297 490 297 642 q 369 257 297 339 q 581 175 440 175 q 672 186 625 175 q 761 221 718 197 q 839 231 806 244 q 888 187 872 218 q 896 119 904 156 q 849 58 888 82 q 722 4 796 24 q 574 -15 647 -15 z "},"Ć":{"ha":950,"x_min":69,"x_max":904,"o":"m 574 -15 q 303 47 415 -15 q 130 223 190 110 q 69 490 69 336 q 130 756 69 643 q 303 932 190 869 q 574 994 415 994 q 715 976 643 994 q 839 928 786 958 q 892 865 882 903 q 885 794 901 828 q 836 747 869 761 q 761 757 803 733 q 674 793 719 782 q 581 804 628 804 q 369 723 440 804 q 297 490 297 642 q 369 257 297 339 q 581 175 440 175 q 672 186 625 175 q 761 221 718 197 q 839 231 806 244 q 888 187 872 218 q 896 119 904 156 q 849 58 888 82 q 722 4 796 24 q 574 -15 647 -15 m 632 1072 q 588 1051 611 1051 q 545 1064 564 1050 q 521 1099 526 1078 q 531 1143 515 1121 l 631 1290 q 684 1325 653 1324 q 742 1308 715 1326 q 775 1260 768 1289 q 757 1204 782 1232 l 632 1072 z "},"Č":{"ha":950,"x_min":69,"x_max":904,"o":"m 574 -15 q 303 47 415 -15 q 130 223 190 110 q 69 490 69 336 q 130 756 69 643 q 303 932 190 869 q 574 994 415 994 q 715 976 643 994 q 839 928 786 958 q 892 865 882 903 q 885 794 901 828 q 836 747 869 761 q 761 757 803 733 q 674 793 719 782 q 581 804 628 804 q 369 723 440 804 q 297 490 297 642 q 369 257 297 339 q 581 175 440 175 q 672 186 625 175 q 761 221 718 197 q 839 231 806 244 q 888 187 872 218 q 896 119 904 156 q 849 58 888 82 q 722 4 796 24 q 574 -15 647 -15 m 549 1043 q 429 1108 475 1043 l 340 1232 q 330 1275 324 1254 q 355 1308 336 1296 q 398 1318 374 1319 q 442 1294 422 1317 l 549 1172 l 657 1294 q 700 1319 676 1317 q 743 1308 724 1321 q 768 1276 763 1296 q 757 1232 774 1256 l 669 1108 q 549 1043 624 1043 z "},"Ç":{"ha":950,"x_min":69,"x_max":904,"o":"m 574 -15 q 303 47 415 -15 q 130 223 190 110 q 69 490 69 336 q 130 756 69 643 q 303 932 190 869 q 574 994 415 994 q 715 976 643 994 q 839 928 786 958 q 892 865 882 903 q 885 794 901 828 q 836 747 869 761 q 761 757 803 733 q 674 793 719 782 q 581 804 628 804 q 369 723 440 804 q 297 490 297 642 q 369 257 297 339 q 581 175 440 175 q 672 186 625 175 q 761 221 718 197 q 839 231 806 244 q 888 187 872 218 q 896 119 904 156 q 849 58 888 82 q 722 4 796 24 q 574 -15 647 -15 m 546 -274 q 489 -270 518 -274 q 435 -258 460 -267 q 401 -233 410 -251 q 397 -197 393 -215 q 417 -169 401 -179 q 458 -168 433 -160 q 526 -179 490 -179 q 599 -143 599 -179 q 547 -115 599 -115 q 528 -116 538 -115 q 508 -118 519 -117 q 476 -112 489 -124 q 469 -75 465 -101 l 485 28 l 590 28 l 576 -47 q 585 -47 581 -47 q 683 -74 647 -47 q 718 -150 718 -101 q 670 -240 718 -206 q 546 -274 622 -274 z "},"Ḉ":{"ha":950,"x_min":69,"x_max":904,"o":"m 574 -15 q 303 47 415 -15 q 130 223 190 110 q 69 490 69 336 q 130 756 69 643 q 303 932 190 869 q 574 994 415 994 q 715 976 643 994 q 839 928 786 958 q 892 865 882 903 q 885 794 901 828 q 836 747 869 761 q 761 757 803 733 q 674 793 719 782 q 581 804 628 804 q 369 723 440 804 q 297 490 297 642 q 369 257 297 339 q 581 175 440 175 q 672 186 625 175 q 761 221 718 197 q 839 231 806 244 q 888 187 872 218 q 896 119 904 156 q 849 58 888 82 q 722 4 796 24 q 574 -15 647 -15 m 546 -274 q 489 -270 518 -274 q 435 -258 460 -267 q 401 -233 410 -251 q 397 -197 393 -215 q 417 -169 401 -179 q 458 -168 433 -160 q 526 -179 490 -179 q 599 -143 599 -179 q 547 -115 599 -115 q 528 -116 538 -115 q 508 -118 519 -117 q 476 -112 489 -124 q 469 -75 465 -101 l 485 28 l 590 28 l 576 -47 q 585 -47 581 -47 q 683 -74 647 -47 q 718 -150 718 -101 q 670 -240 718 -206 q 546 -274 622 -274 m 632 1072 q 588 1051 611 1051 q 545 1064 564 1050 q 521 1099 526 1078 q 531 1143 515 1121 l 631 1290 q 684 1325 653 1324 q 742 1308 715 1326 q 775 1260 768 1289 q 757 1204 782 1232 l 632 1072 z "},"Ĉ":{"ha":950,"x_min":69,"x_max":904,"o":"m 574 -15 q 303 47 415 -15 q 130 223 190 110 q 69 490 69 336 q 130 756 69 643 q 303 932 190 869 q 574 994 415 994 q 715 976 643 994 q 839 928 786 958 q 892 865 882 903 q 885 794 901 828 q 836 747 869 761 q 761 757 803 733 q 674 793 719 782 q 581 804 628 804 q 369 723 440 804 q 297 490 297 642 q 369 257 297 339 q 581 175 440 175 q 672 186 625 175 q 761 221 718 197 q 839 231 806 244 q 888 187 872 218 q 896 119 904 156 q 849 58 888 82 q 722 4 796 24 q 574 -15 647 -15 m 442 1074 q 398 1050 422 1051 q 355 1061 374 1049 q 330 1094 336 1074 q 340 1136 324 1114 l 429 1260 q 549 1325 474 1325 q 669 1260 622 1325 l 757 1136 q 768 1094 774 1114 q 744 1061 763 1074 q 701 1050 725 1049 q 657 1074 676 1051 l 549 1194 l 442 1074 z "},"Ċ":{"ha":950,"x_min":69,"x_max":904,"o":"m 574 -15 q 303 47 415 -15 q 130 223 190 110 q 69 490 69 336 q 130 756 69 643 q 303 932 190 869 q 574 994 415 994 q 715 976 643 994 q 839 928 786 958 q 892 865 882 903 q 885 794 901 828 q 836 747 869 761 q 761 757 803 733 q 674 793 719 782 q 581 804 628 804 q 369 723 440 804 q 297 490 297 642 q 369 257 297 339 q 581 175 440 175 q 672 186 625 175 q 761 221 718 197 q 839 231 806 244 q 888 187 872 218 q 896 119 904 156 q 849 58 888 82 q 722 4 796 24 q 574 -15 647 -15 m 549 1085 q 472 1110 499 1085 q 444 1185 444 1136 q 549 1282 444 1282 q 653 1185 653 1282 q 549 1085 653 1085 z "},"D":{"ha":1075,"x_min":99,"x_max":1007,"o":"m 211 0 q 99 113 99 0 l 99 867 q 211 979 99 979 l 482 979 q 869 852 732 979 q 1007 490 1007 725 q 869 128 1007 256 q 482 0 732 0 l 211 0 m 314 176 l 469 176 q 782 490 782 176 q 469 803 782 803 l 314 803 l 314 176 z "},"Ǆ":{"ha":1908,"x_min":99,"x_max":1892,"o":"m 211 0 q 99 113 99 0 l 99 867 q 211 979 99 979 l 482 979 q 869 852 732 979 q 1007 490 1007 725 q 869 128 1007 256 q 482 0 732 0 l 211 0 m 314 176 l 469 176 q 782 490 782 176 q 469 803 782 803 l 314 803 l 314 176 z "},"Ð":{"ha":1075,"x_min":-32,"x_max":1007,"o":"m 211 0 q 99 113 99 0 l 99 867 q 211 979 99 979 l 482 979 q 869 852 732 979 q 1007 490 1007 725 q 869 128 1007 256 q 482 0 732 0 l 211 0 m 314 176 l 469 176 q 782 490 782 176 q 469 803 782 803 l 314 803 l 314 176 m 49 418 q -32 494 -32 418 q 49 572 -32 572 l 504 572 q 585 494 585 572 q 504 418 585 418 l 49 418 z "},"Ď":{"ha":1075,"x_min":99,"x_max":1007,"o":"m 211 0 q 99 113 99 0 l 99 867 q 211 979 99 979 l 482 979 q 869 852 732 979 q 1007 490 1007 725 q 869 128 1007 256 q 482 0 732 0 l 211 0 m 314 176 l 469 176 q 782 490 782 176 q 469 803 782 803 l 314 803 l 314 176 m 533 1043 q 414 1108 460 1043 l 325 1232 q 315 1275 308 1254 q 340 1308 321 1296 q 383 1318 358 1319 q 426 1294 407 1317 l 533 1172 l 642 1294 q 685 1319 661 1317 q 728 1308 708 1321 q 753 1276 747 1296 q 742 1232 758 1256 l 654 1108 q 533 1043 608 1043 z "},"Đ":{"ha":1075,"x_min":-32,"x_max":1007,"o":"m 211 0 q 99 113 99 0 l 99 867 q 211 979 99 979 l 482 979 q 869 852 732 979 q 1007 490 1007 725 q 869 128 1007 256 q 482 0 732 0 l 211 0 m 314 176 l 469 176 q 782 490 782 176 q 469 803 782 803 l 314 803 l 314 176 m 49 418 q -32 494 -32 418 q 49 572 -32 572 l 504 572 q 585 494 585 572 q 504 418 585 418 l 49 418 z "},"Ḍ":{"ha":1075,"x_min":99,"x_max":1007,"o":"m 211 0 q 99 113 99 0 l 99 867 q 211 979 99 979 l 482 979 q 869 852 732 979 q 1007 490 1007 725 q 869 128 1007 256 q 482 0 732 0 l 211 0 m 314 176 l 469 176 q 782 490 782 176 q 469 803 782 803 l 314 803 l 314 176 m 533 -304 q 456 -278 483 -304 q 429 -206 429 -253 q 533 -107 429 -107 q 638 -206 638 -107 q 533 -304 638 -304 z "},"Ɗ":{"ha":1306,"x_min":0,"x_max":1236,"o":"m 442 0 q 328 113 328 0 l 328 829 l 297 829 q 175 714 175 829 l 175 694 q 154 646 175 671 q 88 621 133 621 q 22 647 43 621 q 0 700 0 674 l 0 721 q 77 912 0 844 q 300 979 154 979 l 711 979 q 1099 852 963 979 q 1236 490 1236 725 q 1099 128 1236 256 q 711 0 963 0 l 442 0 m 543 176 l 699 176 q 1011 490 1011 176 q 699 803 1011 803 l 543 803 l 543 176 z "},"Ḏ":{"ha":1075,"x_min":99,"x_max":1007,"o":"m 211 0 q 99 113 99 0 l 99 867 q 211 979 99 979 l 482 979 q 869 852 732 979 q 1007 490 1007 725 q 869 128 1007 256 q 482 0 732 0 l 211 0 m 314 176 l 469 176 q 782 490 782 176 q 469 803 782 803 l 314 803 l 314 176 m 360 -236 q 299 -176 299 -236 q 360 -118 299 -118 l 707 -118 q 769 -176 769 -118 q 707 -236 769 -236 l 360 -236 z "},"ǅ":{"ha":1742,"x_min":99,"x_max":1721,"o":"m 211 0 q 99 113 99 0 l 99 867 q 211 979 99 979 l 482 979 q 869 852 732 979 q 1007 490 1007 725 q 869 128 1007 256 q 482 0 732 0 l 211 0 m 314 176 l 469 176 q 782 490 782 176 q 469 803 782 803 l 314 803 l 314 176 z "},"E":{"ha":840,"x_min":99,"x_max":781,"o":"m 211 0 q 99 113 99 0 l 99 867 q 211 979 99 979 l 696 979 q 781 896 781 979 q 696 811 781 811 l 304 811 l 304 582 l 664 582 q 750 497 750 582 q 664 413 750 413 l 304 413 l 304 168 l 696 168 q 781 85 781 168 q 696 0 781 0 l 211 0 z "},"É":{"ha":840,"x_min":99,"x_max":781,"o":"m 211 0 q 99 113 99 0 l 99 867 q 211 979 99 979 l 696 979 q 781 896 781 979 q 696 811 781 811 l 304 811 l 304 582 l 664 582 q 750 497 750 582 q 664 413 750 413 l 304 413 l 304 168 l 696 168 q 781 85 781 168 q 696 0 781 0 l 211 0 m 543 1072 q 499 1051 522 1051 q 456 1064 475 1050 q 432 1099 438 1078 q 442 1143 426 1121 l 542 1290 q 595 1325 564 1324 q 653 1308 626 1326 q 686 1260 679 1289 q 668 1204 693 1232 l 543 1072 z "},"Ĕ":{"ha":840,"x_min":99,"x_max":781,"o":"m 211 0 q 99 113 99 0 l 99 867 q 211 979 99 979 l 696 979 q 781 896 781 979 q 696 811 781 811 l 304 811 l 304 582 l 664 582 q 750 497 750 582 q 664 413 750 413 l 304 413 l 304 168 l 696 168 q 781 85 781 168 q 696 0 781 0 l 211 0 m 460 1056 q 297 1102 365 1056 q 206 1232 229 1149 q 210 1285 196 1264 q 250 1308 225 1306 q 301 1295 286 1313 q 325 1261 317 1278 q 378 1196 340 1215 q 460 1176 415 1176 q 541 1196 504 1176 q 594 1261 578 1215 q 618 1295 603 1278 q 669 1308 633 1313 q 709 1285 694 1306 q 714 1232 724 1265 q 622 1102 690 1149 q 460 1056 554 1056 z "},"Ě":{"ha":840,"x_min":99,"x_max":781,"o":"m 211 0 q 99 113 99 0 l 99 867 q 211 979 99 979 l 696 979 q 781 896 781 979 q 696 811 781 811 l 304 811 l 304 582 l 664 582 q 750 497 750 582 q 664 413 750 413 l 304 413 l 304 168 l 696 168 q 781 85 781 168 q 696 0 781 0 l 211 0 m 460 1043 q 340 1108 386 1043 l 251 1232 q 241 1275 235 1254 q 266 1308 247 1296 q 309 1318 285 1319 q 353 1294 333 1317 l 460 1172 l 568 1294 q 611 1319 588 1317 q 654 1308 635 1321 q 679 1276 674 1296 q 668 1232 685 1256 l 581 1108 q 460 1043 535 1043 z "},"Ȩ":{"ha":840,"x_min":99,"x_max":781,"o":"m 211 0 q 99 113 99 0 l 99 867 q 211 979 99 979 l 696 979 q 781 896 781 979 q 696 811 781 811 l 304 811 l 304 582 l 664 582 q 750 497 750 582 q 664 413 750 413 l 304 413 l 304 168 l 696 168 q 781 85 781 168 q 696 0 781 0 l 211 0 m 458 -274 q 401 -270 431 -274 q 347 -258 372 -267 q 314 -233 322 -251 q 310 -197 306 -215 q 330 -169 314 -179 q 371 -168 346 -160 q 439 -179 403 -179 q 511 -143 511 -179 q 460 -115 511 -115 q 441 -116 450 -115 q 421 -118 432 -117 q 389 -112 401 -124 q 382 -75 378 -101 l 397 28 l 503 28 l 489 -47 q 497 -47 493 -47 q 595 -74 560 -47 q 631 -150 631 -101 q 583 -240 631 -206 q 458 -274 535 -274 z "},"Ḝ":{"ha":840,"x_min":99,"x_max":781,"o":"m 211 0 q 99 113 99 0 l 99 867 q 211 979 99 979 l 696 979 q 781 896 781 979 q 696 811 781 811 l 304 811 l 304 582 l 664 582 q 750 497 750 582 q 664 413 750 413 l 304 413 l 304 168 l 696 168 q 781 85 781 168 q 696 0 781 0 l 211 0 m 458 -274 q 401 -270 431 -274 q 347 -258 372 -267 q 314 -233 322 -251 q 310 -197 306 -215 q 330 -169 314 -179 q 371 -168 346 -160 q 439 -179 403 -179 q 511 -143 511 -179 q 460 -115 511 -115 q 441 -116 450 -115 q 421 -118 432 -117 q 389 -112 401 -124 q 382 -75 378 -101 l 397 28 l 503 28 l 489 -47 q 497 -47 493 -47 q 595 -74 560 -47 q 631 -150 631 -101 q 583 -240 631 -206 q 458 -274 535 -274 m 460 1056 q 297 1102 365 1056 q 206 1232 229 1149 q 210 1285 196 1264 q 250 1308 225 1306 q 301 1295 286 1313 q 325 1261 317 1278 q 378 1196 340 1215 q 460 1176 415 1176 q 541 1196 504 1176 q 594 1261 578 1215 q 618 1295 603 1278 q 669 1308 633 1313 q 709 1285 694 1306 q 714 1232 724 1265 q 622 1102 690 1149 q 460 1056 554 1056 z "},"Ê":{"ha":840,"x_min":99,"x_max":781,"o":"m 211 0 q 99 113 99 0 l 99 867 q 211 979 99 979 l 696 979 q 781 896 781 979 q 696 811 781 811 l 304 811 l 304 582 l 664 582 q 750 497 750 582 q 664 413 750 413 l 304 413 l 304 168 l 696 168 q 781 85 781 168 q 696 0 781 0 l 211 0 m 353 1074 q 309 1050 333 1051 q 266 1061 285 1049 q 241 1094 247 1074 q 251 1136 235 1114 l 340 1260 q 460 1325 385 1325 q 581 1260 533 1325 l 668 1136 q 679 1094 685 1114 q 655 1061 674 1074 q 612 1050 636 1049 q 568 1074 588 1051 l 460 1194 l 353 1074 z "},"Ế":{"ha":840,"x_min":99,"x_max":858,"o":"m 211 0 q 99 113 99 0 l 99 867 q 211 979 99 979 l 696 979 q 781 896 781 979 q 696 811 781 811 l 304 811 l 304 582 l 664 582 q 750 497 750 582 q 664 413 750 413 l 304 413 l 304 168 l 696 168 q 781 85 781 168 q 696 0 781 0 l 211 0 m 729 1203 q 683 1181 708 1178 q 644 1205 657 1183 q 647 1258 631 1226 l 728 1403 q 772 1438 746 1435 q 822 1428 799 1442 q 851 1388 844 1414 q 836 1335 858 1363 l 729 1203 m 353 1069 q 297 1045 326 1040 q 255 1074 268 1050 q 263 1129 242 1099 l 342 1249 q 395 1298 367 1283 q 460 1313 424 1313 q 526 1298 497 1313 q 578 1249 554 1283 l 657 1129 q 665 1074 678 1099 q 624 1045 653 1050 q 567 1069 594 1040 l 460 1183 l 353 1069 z "},"Ệ":{"ha":840,"x_min":99,"x_max":781,"o":"m 211 0 q 99 113 99 0 l 99 867 q 211 979 99 979 l 696 979 q 781 896 781 979 q 696 811 781 811 l 304 811 l 304 582 l 664 582 q 750 497 750 582 q 664 413 750 413 l 304 413 l 304 168 l 696 168 q 781 85 781 168 q 696 0 781 0 l 211 0 m 460 -304 q 383 -278 410 -304 q 356 -206 356 -253 q 460 -107 356 -107 q 564 -206 564 -107 q 460 -304 564 -304 m 353 1074 q 309 1050 333 1051 q 266 1061 285 1049 q 241 1094 247 1074 q 251 1136 235 1114 l 340 1260 q 460 1325 385 1325 q 581 1260 533 1325 l 668 1136 q 679 1094 685 1114 q 655 1061 674 1074 q 612 1050 636 1049 q 568 1074 588 1051 l 460 1194 l 353 1074 z "},"Ề":{"ha":840,"x_min":99,"x_max":783,"o":"m 211 0 q 99 113 99 0 l 99 867 q 211 979 99 979 l 696 979 q 781 896 781 979 q 696 811 781 811 l 304 811 l 304 582 l 664 582 q 750 497 750 582 q 664 413 750 413 l 304 413 l 304 168 l 696 168 q 781 85 781 168 q 696 0 781 0 l 211 0 m 686 1203 l 579 1335 q 564 1388 557 1363 q 594 1428 571 1414 q 643 1438 617 1442 q 686 1403 669 1435 l 767 1258 q 770 1205 783 1226 q 731 1181 757 1183 q 686 1203 706 1178 m 353 1069 q 297 1045 326 1040 q 255 1074 268 1050 q 263 1129 242 1099 l 342 1249 q 395 1298 367 1283 q 460 1313 424 1313 q 526 1298 497 1313 q 578 1249 554 1283 l 657 1129 q 665 1074 678 1099 q 624 1045 653 1050 q 567 1069 594 1040 l 460 1183 l 353 1069 z "},"Ể":{"ha":840,"x_min":99,"x_max":817,"o":"m 211 0 q 99 113 99 0 l 99 867 q 211 979 99 979 l 696 979 q 781 896 781 979 q 696 811 781 811 l 304 811 l 304 582 l 664 582 q 750 497 750 582 q 664 413 750 413 l 304 413 l 304 168 l 696 168 q 781 85 781 168 q 696 0 781 0 l 211 0 m 707 1204 q 667 1199 688 1193 q 638 1219 647 1204 q 646 1251 629 1235 q 674 1282 663 1268 q 685 1313 685 1296 q 640 1342 685 1342 q 600 1338 621 1342 q 544 1361 557 1328 q 576 1414 532 1401 q 628 1424 601 1421 q 686 1426 656 1426 q 783 1407 749 1426 q 817 1344 817 1388 q 781 1265 817 1303 q 707 1204 744 1226 m 353 1069 q 297 1045 326 1040 q 255 1074 268 1050 q 263 1129 242 1099 l 342 1249 q 395 1298 367 1283 q 460 1313 424 1313 q 526 1298 497 1313 q 578 1249 554 1283 l 657 1129 q 665 1074 678 1099 q 624 1045 653 1050 q 567 1069 594 1040 l 460 1183 l 353 1069 z "},"Ễ":{"ha":840,"x_min":99,"x_max":781,"o":"m 211 0 q 99 113 99 0 l 99 867 q 211 979 99 979 l 696 979 q 781 896 781 979 q 696 811 781 811 l 304 811 l 304 582 l 664 582 q 750 497 750 582 q 664 413 750 413 l 304 413 l 304 168 l 696 168 q 781 85 781 168 q 696 0 781 0 l 211 0 m 258 1279 q 224 1296 236 1281 q 218 1338 211 1311 q 273 1415 233 1388 q 367 1442 313 1442 q 435 1428 404 1442 q 494 1401 467 1415 q 547 1388 521 1388 q 581 1394 567 1388 q 604 1414 596 1400 q 628 1438 615 1429 q 661 1446 642 1447 q 697 1429 685 1444 q 701 1389 710 1414 q 648 1310 688 1338 q 554 1283 608 1283 q 484 1297 515 1283 q 426 1324 453 1310 q 374 1338 399 1338 q 317 1311 332 1338 q 292 1288 306 1297 q 258 1279 279 1279 m 338 1058 q 286 1047 310 1039 q 253 1076 263 1054 q 263 1119 244 1097 l 332 1201 q 390 1246 358 1233 q 460 1258 422 1258 q 531 1246 499 1258 q 588 1201 563 1233 l 657 1119 q 665 1076 674 1097 q 634 1046 657 1054 q 582 1058 611 1038 l 460 1151 l 338 1058 z "},"Ȅ":{"ha":840,"x_min":99,"x_max":781,"o":"m 211 0 q 99 113 99 0 l 99 867 q 211 979 99 979 l 696 979 q 781 896 781 979 q 696 811 781 811 l 304 811 l 304 582 l 664 582 q 750 497 750 582 q 664 413 750 413 l 304 413 l 304 168 l 696 168 q 781 85 781 168 q 696 0 781 0 l 211 0 m 285 1071 l 168 1214 q 150 1272 143 1244 q 182 1314 157 1299 q 236 1324 207 1329 q 283 1286 265 1319 l 369 1131 q 372 1078 386 1101 q 333 1049 358 1054 q 285 1071 307 1044 m 500 1076 l 399 1214 q 383 1273 374 1246 q 419 1314 393 1300 q 475 1323 446 1328 q 519 1285 504 1318 l 599 1126 q 596 1074 613 1096 q 551 1050 579 1053 q 500 1076 522 1047 z "},"Ë":{"ha":840,"x_min":99,"x_max":781,"o":"m 211 0 q 99 113 99 0 l 99 867 q 211 979 99 979 l 696 979 q 781 896 781 979 q 696 811 781 811 l 304 811 l 304 582 l 664 582 q 750 497 750 582 q 664 413 750 413 l 304 413 l 304 168 l 696 168 q 781 85 781 168 q 696 0 781 0 l 211 0 m 597 1078 q 499 1176 499 1078 q 597 1274 499 1274 q 694 1176 694 1274 q 597 1078 694 1078 m 324 1078 q 251 1103 276 1078 q 225 1176 225 1129 q 251 1249 225 1224 q 324 1274 276 1274 q 421 1176 421 1274 q 324 1078 421 1078 z "},"Ė":{"ha":840,"x_min":99,"x_max":781,"o":"m 211 0 q 99 113 99 0 l 99 867 q 211 979 99 979 l 696 979 q 781 896 781 979 q 696 811 781 811 l 304 811 l 304 582 l 664 582 q 750 497 750 582 q 664 413 750 413 l 304 413 l 304 168 l 696 168 q 781 85 781 168 q 696 0 781 0 l 211 0 m 460 1085 q 383 1110 410 1085 q 356 1185 356 1136 q 460 1282 356 1282 q 564 1185 564 1282 q 460 1085 564 1085 z "},"Ẹ":{"ha":840,"x_min":99,"x_max":781,"o":"m 211 0 q 99 113 99 0 l 99 867 q 211 979 99 979 l 696 979 q 781 896 781 979 q 696 811 781 811 l 304 811 l 304 582 l 664 582 q 750 497 750 582 q 664 413 750 413 l 304 413 l 304 168 l 696 168 q 781 85 781 168 q 696 0 781 0 l 211 0 m 460 -304 q 383 -278 410 -304 q 356 -206 356 -253 q 460 -107 356 -107 q 564 -206 564 -107 q 460 -304 564 -304 z "},"È":{"ha":840,"x_min":99,"x_max":781,"o":"m 211 0 q 99 113 99 0 l 99 867 q 211 979 99 979 l 696 979 q 781 896 781 979 q 696 811 781 811 l 304 811 l 304 582 l 664 582 q 750 497 750 582 q 664 413 750 413 l 304 413 l 304 168 l 696 168 q 781 85 781 168 q 696 0 781 0 l 211 0 m 378 1072 l 253 1204 q 234 1260 226 1232 q 268 1308 242 1289 q 326 1325 294 1326 q 379 1290 357 1324 l 479 1143 q 488 1099 494 1121 q 464 1064 482 1078 q 422 1051 446 1050 q 378 1072 399 1051 z "},"Ẻ":{"ha":840,"x_min":99,"x_max":781,"o":"m 211 0 q 99 113 99 0 l 99 867 q 211 979 99 979 l 696 979 q 781 896 781 979 q 696 811 781 811 l 304 811 l 304 582 l 664 582 q 750 497 750 582 q 664 413 750 413 l 304 413 l 304 168 l 696 168 q 781 85 781 168 q 696 0 781 0 l 211 0 m 460 1050 q 399 1089 399 1050 q 417 1136 399 1119 q 453 1165 435 1153 q 471 1196 471 1178 q 421 1221 471 1221 q 376 1217 397 1221 q 313 1240 325 1206 q 313 1276 306 1260 q 344 1300 319 1292 q 403 1313 369 1308 q 474 1317 436 1317 q 585 1293 544 1317 q 626 1228 626 1269 q 610 1177 626 1196 q 574 1146 594 1158 q 538 1119 553 1133 q 522 1081 522 1104 q 460 1050 522 1050 z "},"Ȇ":{"ha":840,"x_min":99,"x_max":781,"o":"m 211 0 q 99 113 99 0 l 99 867 q 211 979 99 979 l 696 979 q 781 896 781 979 q 696 811 781 811 l 304 811 l 304 582 l 664 582 q 750 497 750 582 q 664 413 750 413 l 304 413 l 304 168 l 696 168 q 781 85 781 168 q 696 0 781 0 l 211 0 m 250 1056 q 210 1079 224 1058 q 206 1132 196 1100 q 298 1262 229 1215 q 460 1308 367 1308 q 621 1262 551 1308 q 713 1132 690 1215 q 708 1080 722 1101 q 668 1056 694 1058 q 618 1069 633 1051 q 594 1103 603 1086 q 541 1168 578 1149 q 460 1188 504 1188 q 378 1168 415 1188 q 325 1103 342 1149 q 301 1069 317 1086 q 250 1056 285 1053 z "},"Ē":{"ha":840,"x_min":99,"x_max":781,"o":"m 211 0 q 99 113 99 0 l 99 867 q 211 979 99 979 l 696 979 q 781 896 781 979 q 696 811 781 811 l 304 811 l 304 582 l 664 582 q 750 497 750 582 q 664 413 750 413 l 304 413 l 304 168 l 696 168 q 781 85 781 168 q 696 0 781 0 l 211 0 m 265 1113 q 204 1172 204 1113 q 265 1231 204 1231 l 654 1231 q 717 1172 717 1231 q 654 1113 717 1113 l 265 1113 z "},"Ḗ":{"ha":840,"x_min":99,"x_max":781,"o":"m 211 0 q 99 113 99 0 l 99 867 q 211 979 99 979 l 696 979 q 781 896 781 979 q 696 811 781 811 l 304 811 l 304 582 l 664 582 q 750 497 750 582 q 664 413 750 413 l 304 413 l 304 168 l 696 168 q 781 85 781 168 q 696 0 781 0 l 211 0 m 524 1251 q 471 1228 500 1225 q 426 1256 442 1232 q 425 1310 410 1279 l 482 1417 q 530 1456 499 1451 q 588 1446 561 1461 q 624 1403 615 1431 q 607 1346 633 1375 l 524 1251 m 293 1082 q 226 1140 226 1082 q 293 1200 226 1200 l 626 1200 q 693 1140 693 1200 q 626 1082 693 1082 l 293 1082 z "},"Ḕ":{"ha":840,"x_min":99,"x_max":781,"o":"m 211 0 q 99 113 99 0 l 99 867 q 211 979 99 979 l 696 979 q 781 896 781 979 q 696 811 781 811 l 304 811 l 304 582 l 664 582 q 750 497 750 582 q 664 413 750 413 l 304 413 l 304 168 l 696 168 q 781 85 781 168 q 696 0 781 0 l 211 0 m 396 1251 l 313 1346 q 295 1403 286 1375 q 331 1446 304 1431 q 390 1456 358 1461 q 438 1417 421 1451 l 494 1310 q 494 1256 510 1279 q 449 1228 478 1232 q 396 1251 419 1225 m 293 1082 q 226 1140 226 1082 q 293 1200 226 1200 l 626 1200 q 693 1140 693 1200 q 626 1082 693 1082 l 293 1082 z "},"Ę":{"ha":840,"x_min":99,"x_max":799,"o":"m 211 0 q 99 113 99 0 l 99 867 q 211 979 99 979 l 696 979 q 781 896 781 979 q 696 811 781 811 l 304 811 l 304 582 l 664 582 q 750 497 750 582 q 664 413 750 413 l 304 413 l 304 168 l 696 168 q 781 85 781 168 q 696 0 781 0 l 211 0 m 664 -274 q 536 -233 582 -274 q 490 -124 490 -192 q 531 -12 490 -62 q 638 63 571 38 l 696 0 q 638 -41 660 -14 q 617 -100 617 -68 q 639 -149 617 -132 q 693 -167 661 -167 q 732 -161 713 -167 q 777 -167 761 -156 q 796 -197 793 -178 q 788 -234 799 -215 q 754 -261 778 -253 q 708 -272 732 -269 q 664 -274 685 -274 z "},"Ẽ":{"ha":840,"x_min":99,"x_max":781,"o":"m 211 0 q 99 113 99 0 l 99 867 q 211 979 99 979 l 696 979 q 781 896 781 979 q 696 811 781 811 l 304 811 l 304 582 l 664 582 q 750 497 750 582 q 664 413 750 413 l 304 413 l 304 168 l 696 168 q 781 85 781 168 q 696 0 781 0 l 211 0 m 193 1060 q 153 1076 167 1061 q 144 1119 139 1092 q 213 1244 163 1200 q 336 1288 264 1288 q 431 1267 388 1288 q 513 1225 475 1246 q 588 1204 551 1204 q 640 1219 619 1204 q 669 1257 660 1233 q 692 1288 679 1278 q 726 1297 706 1299 q 767 1281 753 1296 q 775 1238 781 1265 q 706 1113 757 1157 q 585 1069 656 1069 q 489 1090 532 1069 q 408 1132 446 1111 q 332 1153 369 1153 q 280 1138 300 1153 q 250 1100 260 1124 q 227 1069 240 1079 q 193 1060 214 1058 z "},"F":{"ha":792,"x_min":99,"x_max":771,"o":"m 208 -12 q 127 17 156 -12 q 99 101 99 46 l 99 867 q 211 979 99 979 l 686 979 q 771 896 771 979 q 686 811 771 811 l 314 811 l 314 572 l 656 572 q 742 489 742 572 q 656 404 742 404 l 314 404 l 314 101 q 208 -12 314 -12 z "},"G":{"ha":1031,"x_min":69,"x_max":939,"o":"m 583 -15 q 303 47 418 -15 q 129 222 189 110 q 69 486 69 335 q 131 756 69 642 q 310 932 193 869 q 590 994 426 994 q 740 978 665 994 q 885 922 815 961 q 930 867 922 901 q 922 799 938 832 q 876 752 907 767 q 801 758 844 738 q 592 807 708 807 q 369 724 443 807 q 294 486 294 642 q 370 249 294 329 q 594 168 446 168 q 761 193 674 168 l 761 385 l 636 385 q 550 463 550 385 q 636 540 550 540 l 854 540 q 939 454 939 540 l 939 132 q 924 71 939 96 q 878 35 910 46 q 738 -1 815 13 q 583 -15 660 -15 z "},"Ğ":{"ha":1031,"x_min":69,"x_max":939,"o":"m 583 -15 q 303 47 418 -15 q 129 222 189 110 q 69 486 69 335 q 131 756 69 642 q 310 932 193 869 q 590 994 426 994 q 740 978 665 994 q 885 922 815 961 q 930 867 922 901 q 922 799 938 832 q 876 752 907 767 q 801 758 844 738 q 592 807 708 807 q 369 724 443 807 q 294 486 294 642 q 370 249 294 329 q 594 168 446 168 q 761 193 674 168 l 761 385 l 636 385 q 550 463 550 385 q 636 540 550 540 l 854 540 q 939 454 939 540 l 939 132 q 924 71 939 96 q 878 35 910 46 q 738 -1 815 13 q 583 -15 660 -15 m 565 1056 q 403 1102 471 1056 q 311 1232 335 1149 q 316 1285 301 1264 q 356 1308 331 1306 q 407 1295 392 1313 q 431 1261 422 1278 q 483 1196 446 1215 q 565 1176 521 1176 q 647 1196 610 1176 q 700 1261 683 1215 q 724 1295 708 1278 q 775 1308 739 1313 q 815 1285 800 1306 q 819 1232 829 1265 q 728 1102 796 1149 q 565 1056 660 1056 z "},"Ǧ":{"ha":1031,"x_min":69,"x_max":939,"o":"m 583 -15 q 303 47 418 -15 q 129 222 189 110 q 69 486 69 335 q 131 756 69 642 q 310 932 193 869 q 590 994 426 994 q 740 978 665 994 q 885 922 815 961 q 930 867 922 901 q 922 799 938 832 q 876 752 907 767 q 801 758 844 738 q 592 807 708 807 q 369 724 443 807 q 294 486 294 642 q 370 249 294 329 q 594 168 446 168 q 761 193 674 168 l 761 385 l 636 385 q 550 463 550 385 q 636 540 550 540 l 854 540 q 939 454 939 540 l 939 132 q 924 71 939 96 q 878 35 910 46 q 738 -1 815 13 q 583 -15 660 -15 m 565 1043 q 446 1108 492 1043 l 357 1232 q 347 1275 340 1254 q 372 1308 353 1296 q 415 1318 390 1319 q 458 1294 439 1317 l 565 1172 l 674 1294 q 717 1319 693 1317 q 760 1308 740 1321 q 785 1276 779 1296 q 774 1232 790 1256 l 686 1108 q 565 1043 640 1043 z "},"Ĝ":{"ha":1031,"x_min":69,"x_max":939,"o":"m 583 -15 q 303 47 418 -15 q 129 222 189 110 q 69 486 69 335 q 131 756 69 642 q 310 932 193 869 q 590 994 426 994 q 740 978 665 994 q 885 922 815 961 q 930 867 922 901 q 922 799 938 832 q 876 752 907 767 q 801 758 844 738 q 592 807 708 807 q 369 724 443 807 q 294 486 294 642 q 370 249 294 329 q 594 168 446 168 q 761 193 674 168 l 761 385 l 636 385 q 550 463 550 385 q 636 540 550 540 l 854 540 q 939 454 939 540 l 939 132 q 924 71 939 96 q 878 35 910 46 q 738 -1 815 13 q 583 -15 660 -15 m 458 1074 q 415 1050 439 1051 q 372 1061 390 1049 q 347 1094 353 1074 q 357 1136 340 1114 l 446 1260 q 565 1325 490 1325 q 686 1260 639 1325 l 774 1136 q 785 1094 790 1114 q 760 1061 779 1074 q 717 1050 742 1049 q 674 1074 693 1051 l 565 1194 l 458 1074 z "},"Ģ":{"ha":1031,"x_min":69,"x_max":939,"o":"m 583 -15 q 303 47 418 -15 q 129 222 189 110 q 69 486 69 335 q 131 756 69 642 q 310 932 193 869 q 590 994 426 994 q 740 978 665 994 q 885 922 815 961 q 930 867 922 901 q 922 799 938 832 q 876 752 907 767 q 801 758 844 738 q 592 807 708 807 q 369 724 443 807 q 294 486 294 642 q 370 249 294 329 q 594 168 446 168 q 761 193 674 168 l 761 385 l 636 385 q 550 463 550 385 q 636 540 550 540 l 854 540 q 939 454 939 540 l 939 132 q 924 71 939 96 q 878 35 910 46 q 738 -1 815 13 q 583 -15 660 -15 m 621 -369 q 574 -390 600 -393 q 537 -367 549 -387 q 546 -315 525 -346 q 568 -267 561 -294 q 467 -175 467 -262 q 574 -86 467 -86 q 681 -190 681 -86 q 666 -285 681 -237 q 621 -369 651 -332 z "},"Ġ":{"ha":1031,"x_min":69,"x_max":939,"o":"m 583 -15 q 303 47 418 -15 q 129 222 189 110 q 69 486 69 335 q 131 756 69 642 q 310 932 193 869 q 590 994 426 994 q 740 978 665 994 q 885 922 815 961 q 930 867 922 901 q 922 799 938 832 q 876 752 907 767 q 801 758 844 738 q 592 807 708 807 q 369 724 443 807 q 294 486 294 642 q 370 249 294 329 q 594 168 446 168 q 761 193 674 168 l 761 385 l 636 385 q 550 463 550 385 q 636 540 550 540 l 854 540 q 939 454 939 540 l 939 132 q 924 71 939 96 q 878 35 910 46 q 738 -1 815 13 q 583 -15 660 -15 m 565 1085 q 488 1110 515 1085 q 461 1185 461 1136 q 565 1282 461 1282 q 669 1185 669 1282 q 565 1085 669 1085 z "},"Ḡ":{"ha":1031,"x_min":69,"x_max":939,"o":"m 583 -15 q 303 47 418 -15 q 129 222 189 110 q 69 486 69 335 q 131 756 69 642 q 310 932 193 869 q 590 994 426 994 q 740 978 665 994 q 885 922 815 961 q 930 867 922 901 q 922 799 938 832 q 876 752 907 767 q 801 758 844 738 q 592 807 708 807 q 369 724 443 807 q 294 486 294 642 q 370 249 294 329 q 594 168 446 168 q 761 193 674 168 l 761 385 l 636 385 q 550 463 550 385 q 636 540 550 540 l 854 540 q 939 454 939 540 l 939 132 q 924 71 939 96 q 878 35 910 46 q 738 -1 815 13 q 583 -15 660 -15 m 371 1113 q 310 1172 310 1113 q 371 1231 310 1231 l 760 1231 q 822 1172 822 1231 q 760 1113 822 1113 l 371 1113 z "},"H":{"ha":1083,"x_min":99,"x_max":985,"o":"m 207 -12 q 126 17 154 -12 q 99 99 99 46 l 99 881 q 207 992 99 992 q 314 881 314 992 l 314 586 l 769 586 l 769 881 q 876 992 769 992 q 985 881 985 992 l 985 99 q 957 17 985 46 q 876 -12 929 -12 q 797 17 825 -12 q 769 99 769 46 l 769 407 l 314 407 l 314 99 q 207 -12 314 -12 z "},"Ħ":{"ha":1151,"x_min":7,"x_max":1144,"o":"m 242 -12 q 160 17 189 -12 q 132 99 132 46 l 132 703 l 88 703 q 7 781 7 703 q 88 858 7 858 l 132 858 l 132 881 q 160 963 132 935 q 242 992 189 992 q 349 881 349 992 l 349 858 l 803 858 l 803 881 q 831 963 803 935 q 913 992 860 992 q 1019 881 1019 992 l 1019 858 l 1065 858 q 1144 781 1144 858 q 1065 703 1144 703 l 1019 703 l 1019 99 q 992 17 1019 46 q 913 -12 964 -12 q 831 17 858 -12 q 803 99 803 46 l 803 389 l 349 389 l 349 99 q 242 -12 349 -12 m 349 568 l 803 568 l 803 703 l 349 703 l 349 568 z "},"Ḫ":{"ha":1083,"x_min":99,"x_max":985,"o":"m 207 -12 q 126 17 154 -12 q 99 99 99 46 l 99 881 q 207 992 99 992 q 314 881 314 992 l 314 586 l 769 586 l 769 881 q 876 992 769 992 q 985 881 985 992 l 985 99 q 957 17 985 46 q 876 -12 929 -12 q 797 17 825 -12 q 769 99 769 46 l 769 407 l 314 407 l 314 99 q 207 -12 314 -12 m 542 -299 q 393 -258 454 -299 q 311 -143 332 -218 q 315 -89 300 -108 q 356 -67 329 -69 q 399 -75 382 -64 q 429 -111 415 -86 q 542 -179 454 -179 q 654 -111 629 -179 q 685 -75 668 -86 q 728 -67 701 -64 q 769 -89 754 -69 q 772 -143 783 -108 q 690 -258 751 -218 q 542 -299 629 -299 z "},"Ĥ":{"ha":1083,"x_min":99,"x_max":985,"o":"m 207 -12 q 126 17 154 -12 q 99 99 99 46 l 99 881 q 207 992 99 992 q 314 881 314 992 l 314 586 l 769 586 l 769 881 q 876 992 769 992 q 985 881 985 992 l 985 99 q 957 17 985 46 q 876 -12 929 -12 q 797 17 825 -12 q 769 99 769 46 l 769 407 l 314 407 l 314 99 q 207 -12 314 -12 m 433 1074 q 390 1050 414 1051 q 347 1061 365 1049 q 322 1094 328 1074 q 332 1136 315 1114 l 421 1260 q 540 1325 465 1325 q 661 1260 614 1325 l 749 1136 q 760 1094 765 1114 q 735 1061 754 1074 q 692 1050 717 1049 q 649 1074 668 1051 l 540 1194 l 433 1074 z "},"Ḥ":{"ha":1083,"x_min":99,"x_max":985,"o":"m 207 -12 q 126 17 154 -12 q 99 99 99 46 l 99 881 q 207 992 99 992 q 314 881 314 992 l 314 586 l 769 586 l 769 881 q 876 992 769 992 q 985 881 985 992 l 985 99 q 957 17 985 46 q 876 -12 929 -12 q 797 17 825 -12 q 769 99 769 46 l 769 407 l 314 407 l 314 99 q 207 -12 314 -12 m 542 -304 q 465 -278 492 -304 q 438 -206 438 -253 q 542 -107 438 -107 q 646 -206 646 -107 q 542 -304 646 -304 z "},"I":{"ha":413,"x_min":99,"x_max":314,"o":"m 207 -12 q 126 17 154 -12 q 99 99 99 46 l 99 881 q 207 992 99 992 q 314 881 314 992 l 314 99 q 207 -12 314 -12 z "},"Ĳ":{"ha":929,"x_min":99,"x_max":832,"o":"m 207 -12 q 126 17 154 -12 q 99 99 99 46 l 99 881 q 207 992 99 992 q 314 881 314 992 l 314 99 q 207 -12 314 -12 m 492 -11 q 418 14 444 -12 q 392 82 392 40 q 410 138 392 114 q 465 164 429 161 l 506 167 q 617 283 617 174 l 617 882 q 644 963 617 935 q 724 992 672 992 q 832 882 832 992 l 832 286 q 540 -8 832 10 l 492 -11 z "},"Í":{"ha":413,"x_min":99,"x_max":439,"o":"m 207 -12 q 126 17 154 -12 q 99 99 99 46 l 99 881 q 207 992 99 992 q 314 881 314 992 l 314 99 q 207 -12 314 -12 m 289 1072 q 244 1051 268 1051 q 202 1064 221 1050 q 178 1099 183 1078 q 188 1143 172 1121 l 288 1290 q 341 1325 310 1324 q 399 1308 372 1326 q 432 1260 425 1289 q 414 1204 439 1232 l 289 1072 z "},"Ĭ":{"ha":413,"x_min":-58,"x_max":469,"o":"m 207 -12 q 126 17 154 -12 q 99 99 99 46 l 99 881 q 207 992 99 992 q 314 881 314 992 l 314 99 q 207 -12 314 -12 m 206 1056 q 43 1102 111 1056 q -49 1232 -25 1149 q -44 1285 -58 1264 q -4 1308 -29 1306 q 47 1295 32 1313 q 71 1261 63 1278 q 124 1196 86 1215 q 206 1176 161 1176 q 287 1196 250 1176 q 340 1261 324 1215 q 364 1295 349 1278 q 415 1308 379 1313 q 455 1285 440 1306 q 460 1232 469 1265 q 368 1102 436 1149 q 206 1056 300 1056 z "},"Î":{"ha":413,"x_min":-19,"x_max":431,"o":"m 207 -12 q 126 17 154 -12 q 99 99 99 46 l 99 881 q 207 992 99 992 q 314 881 314 992 l 314 99 q 207 -12 314 -12 m 99 1074 q 55 1050 79 1051 q 12 1061 31 1049 q -13 1094 -7 1074 q -3 1136 -19 1114 l 86 1260 q 206 1325 131 1325 q 326 1260 279 1325 l 414 1136 q 425 1094 431 1114 q 401 1061 419 1074 q 358 1050 382 1049 q 314 1074 333 1051 l 206 1194 l 99 1074 z "},"Ȉ":{"ha":413,"x_min":-111,"x_max":358,"o":"m 207 -12 q 126 17 154 -12 q 99 99 99 46 l 99 881 q 207 992 99 992 q 314 881 314 992 l 314 99 q 207 -12 314 -12 m 31 1071 l -86 1214 q -104 1272 -111 1244 q -72 1314 -97 1299 q -18 1324 -47 1329 q 29 1286 11 1319 l 115 1131 q 118 1078 132 1101 q 78 1049 104 1054 q 31 1071 53 1044 m 246 1076 l 144 1214 q 129 1273 119 1246 q 165 1314 139 1300 q 221 1323 192 1328 q 265 1285 250 1318 l 344 1126 q 342 1074 358 1096 q 297 1050 325 1053 q 246 1076 268 1047 z "},"Ï":{"ha":413,"x_min":-29,"x_max":440,"o":"m 207 -12 q 126 17 154 -12 q 99 99 99 46 l 99 881 q 207 992 99 992 q 314 881 314 992 l 314 99 q 207 -12 314 -12 m 343 1078 q 244 1176 244 1078 q 343 1274 244 1274 q 440 1176 440 1274 q 343 1078 440 1078 m 69 1078 q -3 1103 22 1078 q -29 1176 -29 1129 q -3 1249 -29 1224 q 69 1274 22 1274 q 167 1176 167 1274 q 69 1078 167 1078 z "},"Ḯ":{"ha":413,"x_min":-29,"x_max":440,"o":"m 207 -12 q 126 17 154 -12 q 99 99 99 46 l 99 881 q 207 992 99 992 q 314 881 314 992 l 314 99 q 207 -12 314 -12 m 269 1251 q 216 1228 244 1224 q 172 1256 188 1232 q 171 1310 156 1279 l 228 1417 q 276 1456 244 1451 q 335 1444 307 1460 q 371 1401 363 1429 q 353 1344 379 1374 l 269 1251 m 69 1063 q -3 1081 22 1063 q -29 1136 -29 1100 q -3 1191 -29 1172 q 69 1210 22 1210 q 167 1136 167 1210 q 69 1063 167 1063 m 343 1063 q 244 1136 244 1063 q 343 1210 244 1210 q 440 1136 440 1210 q 343 1063 440 1063 z "},"İ":{"ha":413,"x_min":99,"x_max":314,"o":"m 207 -12 q 126 17 154 -12 q 99 99 99 46 l 99 881 q 207 992 99 992 q 314 881 314 992 l 314 99 q 207 -12 314 -12 m 206 1085 q 128 1110 156 1085 q 101 1185 101 1136 q 206 1282 101 1282 q 310 1185 310 1282 q 206 1085 310 1085 z "},"Ị":{"ha":413,"x_min":99,"x_max":314,"o":"m 207 -12 q 126 17 154 -12 q 99 99 99 46 l 99 881 q 207 992 99 992 q 314 881 314 992 l 314 99 q 207 -12 314 -12 m 206 -304 q 128 -278 156 -304 q 101 -206 101 -253 q 206 -107 101 -107 q 310 -206 310 -107 q 206 -304 310 -304 z "},"Ì":{"ha":413,"x_min":-28,"x_max":314,"o":"m 207 -12 q 126 17 154 -12 q 99 99 99 46 l 99 881 q 207 992 99 992 q 314 881 314 992 l 314 99 q 207 -12 314 -12 m 124 1072 l -1 1204 q -20 1260 -28 1232 q 14 1308 -12 1289 q 72 1325 40 1326 q 125 1290 103 1324 l 225 1143 q 234 1099 240 1121 q 210 1064 228 1078 q 168 1051 192 1050 q 124 1072 144 1051 z "},"Ỉ":{"ha":413,"x_min":51,"x_max":372,"o":"m 207 -12 q 126 17 154 -12 q 99 99 99 46 l 99 881 q 207 992 99 992 q 314 881 314 992 l 314 99 q 207 -12 314 -12 m 206 1050 q 144 1089 144 1050 q 163 1136 144 1119 q 199 1165 181 1153 q 217 1196 217 1178 q 167 1221 217 1221 q 122 1217 143 1221 q 58 1240 71 1206 q 58 1276 51 1260 q 90 1300 65 1292 q 149 1313 115 1308 q 219 1317 182 1317 q 331 1293 290 1317 q 372 1228 372 1269 q 356 1177 372 1196 q 319 1146 340 1158 q 283 1119 299 1133 q 268 1081 268 1104 q 206 1050 268 1050 z "},"Ȋ":{"ha":413,"x_min":-58,"x_max":468,"o":"m 207 -12 q 126 17 154 -12 q 99 99 99 46 l 99 881 q 207 992 99 992 q 314 881 314 992 l 314 99 q 207 -12 314 -12 m -4 1056 q -44 1079 -31 1058 q -49 1132 -58 1100 q 44 1262 -25 1215 q 206 1308 113 1308 q 367 1262 297 1308 q 458 1132 436 1215 q 454 1080 468 1101 q 414 1056 440 1058 q 364 1069 379 1051 q 340 1103 349 1086 q 287 1168 324 1149 q 206 1188 250 1188 q 124 1168 161 1188 q 71 1103 88 1149 q 47 1069 63 1086 q -4 1056 31 1053 z "},"Ī":{"ha":413,"x_min":-50,"x_max":463,"o":"m 207 -12 q 126 17 154 -12 q 99 99 99 46 l 99 881 q 207 992 99 992 q 314 881 314 992 l 314 99 q 207 -12 314 -12 m 11 1113 q -50 1172 -50 1113 q 11 1231 -50 1231 l 400 1231 q 463 1172 463 1231 q 400 1113 463 1113 l 11 1113 z "},"Į":{"ha":413,"x_min":58,"x_max":367,"o":"m 233 -274 q 104 -233 150 -274 q 58 -124 58 -192 q 77 -45 58 -82 q 128 17 96 -8 q 99 99 99 44 l 99 881 q 207 992 99 992 q 314 881 314 992 l 314 99 q 299 34 314 60 q 260 -3 285 8 q 206 -43 225 -17 q 186 -100 186 -69 q 208 -149 186 -132 q 261 -167 229 -167 q 301 -161 281 -167 q 345 -167 329 -156 q 364 -197 361 -178 q 356 -234 367 -215 q 322 -261 346 -253 q 276 -272 300 -269 q 233 -274 253 -274 z "},"Ĩ":{"ha":413,"x_min":-115,"x_max":526,"o":"m 207 -12 q 126 17 154 -12 q 99 99 99 46 l 99 881 q 207 992 99 992 q 314 881 314 992 l 314 99 q 207 -12 314 -12 m -61 1060 q -101 1076 -87 1061 q -110 1119 -115 1092 q -41 1244 -92 1200 q 82 1288 10 1288 q 177 1267 133 1288 q 259 1225 221 1246 q 333 1204 297 1204 q 385 1219 365 1204 q 415 1257 406 1233 q 438 1288 425 1278 q 472 1297 451 1299 q 513 1281 499 1296 q 521 1238 526 1265 q 452 1113 503 1157 q 331 1069 401 1069 q 235 1090 278 1069 q 153 1132 192 1111 q 78 1153 115 1153 q 26 1138 46 1153 q -4 1100 6 1124 q -27 1069 -14 1079 q -61 1060 -40 1058 z "},"J":{"ha":517,"x_min":-21,"x_max":419,"o":"m 79 -11 q 6 14 32 -12 q -21 82 -21 40 q -2 138 -21 114 q 53 164 17 161 l 93 167 q 204 283 204 174 l 204 882 q 232 963 204 935 q 311 992 260 992 q 419 882 419 992 l 419 286 q 128 -8 419 10 l 79 -11 z "},"Ĵ":{"ha":517,"x_min":-21,"x_max":535,"o":"m 79 -11 q 6 14 32 -12 q -21 82 -21 40 q -2 138 -21 114 q 53 164 17 161 l 93 167 q 204 283 204 174 l 204 882 q 232 963 204 935 q 311 992 260 992 q 419 882 419 992 l 419 286 q 128 -8 419 10 l 79 -11 m 203 1074 q 159 1050 183 1051 q 116 1061 135 1049 q 91 1094 97 1074 q 101 1136 85 1114 l 190 1260 q 310 1325 235 1325 q 431 1260 383 1325 l 518 1136 q 529 1094 535 1114 q 505 1061 524 1074 q 462 1050 486 1049 q 418 1074 438 1051 l 310 1194 l 203 1074 z "},"K":{"ha":956,"x_min":99,"x_max":906,"o":"m 207 -12 q 126 17 154 -12 q 99 99 99 46 l 99 882 q 126 963 99 935 q 207 992 154 992 q 314 882 314 992 l 314 553 l 317 553 l 686 939 q 735 977 710 964 q 794 990 761 990 q 864 965 842 990 q 883 906 886 940 q 853 844 881 872 l 526 511 l 872 143 q 905 72 904 108 q 881 12 906 36 q 810 -12 857 -12 q 745 4 769 -12 q 692 53 721 21 l 317 447 l 314 447 l 314 99 q 287 17 314 46 q 207 -12 260 -12 z "},"Ķ":{"ha":956,"x_min":99,"x_max":906,"o":"m 207 -12 q 126 17 154 -12 q 99 99 99 46 l 99 882 q 126 963 99 935 q 207 992 154 992 q 314 882 314 992 l 314 553 l 317 553 l 686 939 q 735 977 710 964 q 794 990 761 990 q 864 965 842 990 q 883 906 886 940 q 853 844 881 872 l 526 511 l 872 143 q 905 72 904 108 q 881 12 906 36 q 810 -12 857 -12 q 745 4 769 -12 q 692 53 721 21 l 317 447 l 314 447 l 314 99 q 287 17 314 46 q 207 -12 260 -12 m 519 -369 q 473 -390 499 -393 q 435 -367 447 -387 q 444 -315 424 -346 q 467 -267 460 -294 q 365 -175 365 -262 q 472 -86 365 -86 q 579 -190 579 -86 q 565 -285 579 -237 q 519 -369 550 -332 z "},"L":{"ha":796,"x_min":99,"x_max":779,"o":"m 208 0 q 126 28 154 0 q 99 110 99 57 l 99 872 q 126 953 99 925 q 207 982 154 982 q 314 872 314 982 l 314 182 l 686 182 q 779 92 779 182 q 686 0 779 0 l 208 0 z "},"Ǉ":{"ha":1368,"x_min":99,"x_max":1271,"o":"m 208 0 q 126 28 154 0 q 99 110 99 57 l 99 872 q 126 953 99 925 q 207 982 154 982 q 314 872 314 982 l 314 182 l 686 182 q 779 92 779 182 q 686 0 779 0 l 208 0 m 931 -11 q 857 14 883 -12 q 831 82 831 40 q 849 138 831 114 q 904 164 868 161 l 944 167 q 1056 283 1056 174 l 1056 882 q 1083 963 1056 935 q 1163 992 1111 992 q 1271 882 1271 992 l 1271 286 q 979 -8 1271 10 l 931 -11 z "},"Ĺ":{"ha":796,"x_min":99,"x_max":779,"o":"m 208 0 q 126 28 154 0 q 99 110 99 57 l 99 872 q 126 953 99 925 q 207 982 154 982 q 314 872 314 982 l 314 182 l 686 182 q 779 92 779 182 q 686 0 779 0 l 208 0 m 289 1072 q 244 1051 268 1051 q 202 1064 221 1050 q 178 1099 183 1078 q 188 1143 172 1121 l 288 1290 q 341 1325 310 1324 q 399 1308 372 1326 q 432 1260 425 1289 q 414 1204 439 1232 l 289 1072 z "},"Ľ":{"ha":796,"x_min":99,"x_max":779,"o":"m 208 0 q 126 28 154 0 q 99 110 99 57 l 99 872 q 126 953 99 925 q 207 982 154 982 q 314 872 314 982 l 314 182 l 686 182 q 779 92 779 182 q 686 0 779 0 l 208 0 m 515 631 q 454 696 454 631 l 454 913 q 533 992 454 992 q 603 908 611 992 l 581 692 q 515 631 575 631 z "},"Ļ":{"ha":796,"x_min":99,"x_max":779,"o":"m 208 0 q 126 28 154 0 q 99 110 99 57 l 99 872 q 126 953 99 925 q 207 982 154 982 q 314 872 314 982 l 314 182 l 686 182 q 779 92 779 182 q 686 0 779 0 l 208 0 m 479 -369 q 433 -390 458 -393 q 395 -367 407 -387 q 404 -315 383 -346 q 426 -267 419 -294 q 325 -175 325 -262 q 432 -86 325 -86 q 539 -190 539 -86 q 524 -285 539 -237 q 479 -369 510 -332 z "},"Ŀ":{"ha":796,"x_min":99,"x_max":779,"o":"m 208 0 q 126 28 154 0 q 99 110 99 57 l 99 872 q 126 953 99 925 q 207 982 154 982 q 314 872 314 982 l 314 182 l 686 182 q 779 92 779 182 q 686 0 779 0 l 208 0 m 608 432 q 520 465 553 432 q 488 551 488 499 q 520 637 488 604 q 608 669 553 669 q 696 637 664 669 q 728 551 728 604 q 696 465 728 499 q 608 432 664 432 z "},"Ḷ":{"ha":796,"x_min":99,"x_max":779,"o":"m 208 0 q 126 28 154 0 q 99 110 99 57 l 99 872 q 126 953 99 925 q 207 982 154 982 q 314 872 314 982 l 314 182 l 686 182 q 779 92 779 182 q 686 0 779 0 l 208 0 m 433 -304 q 356 -278 383 -304 q 329 -206 329 -253 q 433 -107 329 -107 q 538 -206 538 -107 q 433 -304 538 -304 z "},"ǈ":{"ha":1175,"x_min":99,"x_max":1107,"o":"m 208 0 q 126 28 154 0 q 99 110 99 57 l 99 872 q 126 953 99 925 q 207 982 154 982 q 314 872 314 982 l 314 182 l 686 182 q 779 92 779 182 q 686 0 779 0 l 208 0 m 988 807 q 899 834 931 807 q 868 911 868 861 q 899 990 868 963 q 988 1017 931 1017 q 1107 911 1107 1017 q 988 807 1107 807 m 815 -261 q 746 -242 769 -264 q 719 -192 722 -221 q 733 -139 717 -162 q 781 -111 749 -115 q 859 -81 835 -107 q 883 -3 883 -56 l 883 588 q 989 693 883 693 q 1093 588 1093 693 l 1093 17 q 1026 -187 1093 -121 q 815 -261 958 -254 z "},"Ḻ":{"ha":796,"x_min":99,"x_max":779,"o":"m 208 0 q 126 28 154 0 q 99 110 99 57 l 99 872 q 126 953 99 925 q 207 982 154 982 q 314 872 314 982 l 314 182 l 686 182 q 779 92 779 182 q 686 0 779 0 l 208 0 m 260 -236 q 199 -176 199 -236 q 260 -118 199 -118 l 607 -118 q 669 -176 669 -118 q 607 -236 669 -236 l 260 -236 z "},"Ł":{"ha":796,"x_min":-61,"x_max":779,"o":"m 208 0 q 126 28 154 0 q 99 110 99 57 l 99 872 q 126 953 99 925 q 207 982 154 982 q 314 872 314 982 l 314 182 l 686 182 q 779 92 779 182 q 686 0 779 0 l 208 0 m 71 329 q 1 317 32 307 q -45 354 -29 326 q -54 414 -61 382 q -8 468 -47 446 l 472 746 q 541 758 510 768 q 588 720 572 749 q 597 660 604 692 q 551 606 590 628 l 71 329 z "},"M":{"ha":1217,"x_min":101,"x_max":1117,"o":"m 199 -12 q 126 14 151 -12 q 101 88 101 40 l 101 892 q 128 966 101 940 q 203 992 154 992 q 269 975 244 992 q 314 921 293 958 l 611 378 l 908 921 q 953 975 929 958 q 1018 992 978 992 q 1091 966 1065 992 q 1117 892 1117 940 l 1117 88 q 1019 -12 1117 -12 q 921 88 921 -12 l 921 597 l 693 188 q 658 148 676 161 q 608 135 639 135 q 558 148 578 135 q 524 188 539 161 l 296 593 l 296 88 q 199 -12 296 -12 z "},"Ṃ":{"ha":1217,"x_min":101,"x_max":1117,"o":"m 199 -12 q 126 14 151 -12 q 101 88 101 40 l 101 892 q 128 966 101 940 q 203 992 154 992 q 269 975 244 992 q 314 921 293 958 l 611 378 l 908 921 q 953 975 929 958 q 1018 992 978 992 q 1091 966 1065 992 q 1117 892 1117 940 l 1117 88 q 1019 -12 1117 -12 q 921 88 921 -12 l 921 597 l 693 188 q 658 148 676 161 q 608 135 639 135 q 558 148 578 135 q 524 188 539 161 l 296 593 l 296 88 q 199 -12 296 -12 m 610 -304 q 533 -278 560 -304 q 506 -206 506 -253 q 610 -107 506 -107 q 714 -206 714 -107 q 610 -304 714 -304 z "},"N":{"ha":1046,"x_min":99,"x_max":947,"o":"m 199 -12 q 99 92 99 -12 l 99 883 q 124 964 99 936 q 193 992 150 992 q 250 977 229 992 q 297 929 271 963 l 747 356 l 747 889 q 847 992 747 992 q 947 889 947 992 l 947 88 q 924 15 947 42 q 860 -12 900 -12 q 798 3 821 -12 q 749 51 775 18 l 299 625 l 299 92 q 199 -12 299 -12 z "},"Ǌ":{"ha":1563,"x_min":99,"x_max":1465,"o":"m 199 -12 q 99 92 99 -12 l 99 883 q 124 964 99 936 q 193 992 150 992 q 250 977 229 992 q 297 929 271 963 l 747 356 l 747 889 q 847 992 747 992 q 947 889 947 992 l 947 88 q 924 15 947 42 q 860 -12 900 -12 q 798 3 821 -12 q 749 51 775 18 l 299 625 l 299 92 q 199 -12 299 -12 m 1125 -11 q 1051 14 1078 -12 q 1025 82 1025 40 q 1044 138 1025 114 q 1099 164 1063 161 l 1139 167 q 1250 283 1250 174 l 1250 882 q 1278 963 1250 935 q 1357 992 1306 992 q 1465 882 1465 992 l 1465 286 q 1174 -8 1465 10 l 1125 -11 z "},"Ń":{"ha":1046,"x_min":99,"x_max":947,"o":"m 199 -12 q 99 92 99 -12 l 99 883 q 124 964 99 936 q 193 992 150 992 q 250 977 229 992 q 297 929 271 963 l 747 356 l 747 889 q 847 992 747 992 q 947 889 947 992 l 947 88 q 924 15 947 42 q 860 -12 900 -12 q 798 3 821 -12 q 749 51 775 18 l 299 625 l 299 92 q 199 -12 299 -12 m 606 1072 q 561 1051 585 1051 q 519 1064 538 1050 q 494 1099 500 1078 q 504 1143 489 1121 l 604 1290 q 658 1325 626 1324 q 715 1308 689 1326 q 749 1260 742 1289 q 731 1204 756 1232 l 606 1072 z "},"Ň":{"ha":1046,"x_min":99,"x_max":947,"o":"m 199 -12 q 99 92 99 -12 l 99 883 q 124 964 99 936 q 193 992 150 992 q 250 977 229 992 q 297 929 271 963 l 747 356 l 747 889 q 847 992 747 992 q 947 889 947 992 l 947 88 q 924 15 947 42 q 860 -12 900 -12 q 798 3 821 -12 q 749 51 775 18 l 299 625 l 299 92 q 199 -12 299 -12 m 522 1043 q 403 1108 449 1043 l 314 1232 q 303 1275 297 1254 q 328 1308 310 1296 q 372 1318 347 1319 q 415 1294 396 1317 l 522 1172 l 631 1294 q 674 1319 650 1317 q 717 1308 697 1321 q 742 1276 736 1296 q 731 1232 747 1256 l 643 1108 q 522 1043 597 1043 z "},"Ņ":{"ha":1046,"x_min":99,"x_max":947,"o":"m 199 -12 q 99 92 99 -12 l 99 883 q 124 964 99 936 q 193 992 150 992 q 250 977 229 992 q 297 929 271 963 l 747 356 l 747 889 q 847 992 747 992 q 947 889 947 992 l 947 88 q 924 15 947 42 q 860 -12 900 -12 q 798 3 821 -12 q 749 51 775 18 l 299 625 l 299 92 q 199 -12 299 -12 m 569 -369 q 523 -390 549 -393 q 485 -367 497 -387 q 494 -315 474 -346 q 517 -267 510 -294 q 415 -175 415 -262 q 522 -86 415 -86 q 629 -190 629 -86 q 615 -285 629 -237 q 569 -369 600 -332 z "},"Ṅ":{"ha":1046,"x_min":99,"x_max":947,"o":"m 199 -12 q 99 92 99 -12 l 99 883 q 124 964 99 936 q 193 992 150 992 q 250 977 229 992 q 297 929 271 963 l 747 356 l 747 889 q 847 992 747 992 q 947 889 947 992 l 947 88 q 924 15 947 42 q 860 -12 900 -12 q 798 3 821 -12 q 749 51 775 18 l 299 625 l 299 92 q 199 -12 299 -12 m 522 1085 q 445 1110 472 1085 q 418 1185 418 1136 q 522 1282 418 1282 q 626 1185 626 1282 q 522 1085 626 1085 z "},"Ṇ":{"ha":1046,"x_min":99,"x_max":947,"o":"m 199 -12 q 99 92 99 -12 l 99 883 q 124 964 99 936 q 193 992 150 992 q 250 977 229 992 q 297 929 271 963 l 747 356 l 747 889 q 847 992 747 992 q 947 889 947 992 l 947 88 q 924 15 947 42 q 860 -12 900 -12 q 798 3 821 -12 q 749 51 775 18 l 299 625 l 299 92 q 199 -12 299 -12 m 524 -304 q 447 -278 474 -304 q 419 -206 419 -253 q 524 -107 419 -107 q 628 -206 628 -107 q 524 -304 628 -304 z "},"Ŋ":{"ha":1046,"x_min":99,"x_max":947,"o":"m 667 -261 q 598 -242 621 -262 q 573 -192 575 -221 q 587 -139 571 -162 q 635 -111 603 -115 q 718 -83 689 -107 q 747 -3 747 -58 l 747 53 l 299 625 l 299 92 q 199 -12 299 -12 q 99 92 99 -12 l 99 883 q 124 964 99 936 q 193 992 150 992 q 250 977 229 992 q 297 929 271 963 l 747 356 l 747 889 q 847 992 747 992 q 947 889 947 992 l 947 25 q 878 -190 947 -125 q 667 -261 810 -254 z "},"ǋ":{"ha":1424,"x_min":99,"x_max":1357,"o":"m 199 -12 q 99 92 99 -12 l 99 883 q 124 964 99 936 q 193 992 150 992 q 250 977 229 992 q 297 929 271 963 l 747 356 l 747 889 q 847 992 747 992 q 947 889 947 992 l 947 88 q 924 15 947 42 q 860 -12 900 -12 q 798 3 821 -12 q 749 51 775 18 l 299 625 l 299 92 q 199 -12 299 -12 m 1238 807 q 1149 834 1181 807 q 1118 911 1118 861 q 1149 990 1118 963 q 1238 1017 1181 1017 q 1357 911 1357 1017 q 1238 807 1357 807 m 1065 -261 q 996 -242 1019 -264 q 969 -192 972 -221 q 983 -139 967 -162 q 1031 -111 999 -115 q 1109 -81 1085 -107 q 1133 -3 1133 -56 l 1133 588 q 1239 693 1133 693 q 1343 588 1343 693 l 1343 17 q 1276 -187 1343 -121 q 1065 -261 1208 -254 z "},"Ṉ":{"ha":1046,"x_min":99,"x_max":947,"o":"m 199 -12 q 99 92 99 -12 l 99 883 q 124 964 99 936 q 193 992 150 992 q 250 977 229 992 q 297 929 271 963 l 747 356 l 747 889 q 847 992 747 992 q 947 889 947 992 l 947 88 q 924 15 947 42 q 860 -12 900 -12 q 798 3 821 -12 q 749 51 775 18 l 299 625 l 299 92 q 199 -12 299 -12 m 350 -236 q 289 -176 289 -236 q 350 -118 289 -118 l 697 -118 q 760 -176 760 -118 q 697 -236 760 -236 l 350 -236 z "},"Ñ":{"ha":1046,"x_min":99,"x_max":947,"o":"m 199 -12 q 99 92 99 -12 l 99 883 q 124 964 99 936 q 193 992 150 992 q 250 977 229 992 q 297 929 271 963 l 747 356 l 747 889 q 847 992 747 992 q 947 889 947 992 l 947 88 q 924 15 947 42 q 860 -12 900 -12 q 798 3 821 -12 q 749 51 775 18 l 299 625 l 299 92 q 199 -12 299 -12 m 256 1060 q 215 1076 229 1061 q 207 1119 201 1092 q 276 1244 225 1200 q 399 1288 326 1288 q 494 1267 450 1288 q 576 1225 538 1246 q 650 1204 614 1204 q 702 1219 682 1204 q 732 1257 722 1233 q 755 1288 742 1278 q 789 1297 768 1299 q 829 1281 815 1296 q 838 1238 843 1265 q 769 1113 819 1157 q 647 1069 718 1069 q 551 1090 594 1069 q 470 1132 508 1111 q 394 1153 432 1153 q 342 1138 363 1153 q 313 1100 322 1124 q 290 1069 303 1079 q 256 1060 276 1058 z "},"O":{"ha":1106,"x_min":69,"x_max":1038,"o":"m 553 -15 q 299 48 408 -15 q 130 224 190 111 q 69 490 69 338 q 130 756 69 643 q 299 932 190 869 q 553 994 407 994 q 808 932 699 994 q 977 756 917 869 q 1038 492 1038 643 q 977 225 1038 339 q 808 48 917 111 q 553 -15 699 -15 m 553 168 q 744 253 675 168 q 813 490 813 339 q 744 727 813 643 q 553 811 676 811 q 363 727 432 811 q 294 490 294 643 q 363 253 294 339 q 553 168 432 168 z "},"Ó":{"ha":1106,"x_min":69,"x_max":1038,"o":"m 553 -15 q 299 48 408 -15 q 130 224 190 111 q 69 490 69 338 q 130 756 69 643 q 299 932 190 869 q 553 994 407 994 q 808 932 699 994 q 977 756 917 869 q 1038 492 1038 643 q 977 225 1038 339 q 808 48 917 111 q 553 -15 699 -15 m 553 168 q 744 253 675 168 q 813 490 813 339 q 744 727 813 643 q 553 811 676 811 q 363 727 432 811 q 294 490 294 643 q 363 253 294 339 q 553 168 432 168 m 635 1072 q 590 1051 614 1051 q 548 1064 567 1050 q 524 1099 529 1078 q 533 1143 518 1121 l 633 1290 q 687 1325 656 1324 q 744 1308 718 1326 q 778 1260 771 1289 q 760 1204 785 1232 l 635 1072 z "},"Ŏ":{"ha":1106,"x_min":69,"x_max":1038,"o":"m 553 -15 q 299 48 408 -15 q 130 224 190 111 q 69 490 69 338 q 130 756 69 643 q 299 932 190 869 q 553 994 407 994 q 808 932 699 994 q 977 756 917 869 q 1038 492 1038 643 q 977 225 1038 339 q 808 48 917 111 q 553 -15 699 -15 m 553 168 q 744 253 675 168 q 813 490 813 339 q 744 727 813 643 q 553 811 676 811 q 363 727 432 811 q 294 490 294 643 q 363 253 294 339 q 553 168 432 168 m 551 1056 q 389 1102 457 1056 q 297 1232 321 1149 q 302 1285 288 1264 q 342 1308 317 1306 q 393 1295 378 1313 q 417 1261 408 1278 q 469 1196 432 1215 q 551 1176 507 1176 q 633 1196 596 1176 q 686 1261 669 1215 q 710 1295 694 1278 q 761 1308 725 1313 q 801 1285 786 1306 q 806 1232 815 1265 q 714 1102 782 1149 q 551 1056 646 1056 z "},"Ô":{"ha":1106,"x_min":69,"x_max":1038,"o":"m 553 -15 q 299 48 408 -15 q 130 224 190 111 q 69 490 69 338 q 130 756 69 643 q 299 932 190 869 q 553 994 407 994 q 808 932 699 994 q 977 756 917 869 q 1038 492 1038 643 q 977 225 1038 339 q 808 48 917 111 q 553 -15 699 -15 m 553 168 q 744 253 675 168 q 813 490 813 339 q 744 727 813 643 q 553 811 676 811 q 363 727 432 811 q 294 490 294 643 q 363 253 294 339 q 553 168 432 168 m 444 1074 q 401 1050 425 1051 q 358 1061 376 1049 q 333 1094 339 1074 q 343 1136 326 1114 l 432 1260 q 551 1325 476 1325 q 672 1260 625 1325 l 760 1136 q 771 1094 776 1114 q 747 1061 765 1074 q 703 1050 728 1049 q 660 1074 679 1051 l 551 1194 l 444 1074 z "},"Ố":{"ha":1106,"x_min":69,"x_max":1038,"o":"m 553 -15 q 299 48 408 -15 q 130 224 190 111 q 69 490 69 338 q 130 756 69 643 q 299 932 190 869 q 553 994 407 994 q 808 932 699 994 q 977 756 917 869 q 1038 492 1038 643 q 977 225 1038 339 q 808 48 917 111 q 553 -15 699 -15 m 553 168 q 744 253 675 168 q 813 490 813 339 q 744 727 813 643 q 553 811 676 811 q 363 727 432 811 q 294 490 294 643 q 363 253 294 339 q 553 168 432 168 m 821 1203 q 774 1181 800 1178 q 735 1205 749 1183 q 739 1258 722 1226 l 819 1403 q 864 1438 838 1435 q 913 1428 890 1442 q 943 1388 936 1414 q 928 1335 950 1363 l 821 1203 m 444 1069 q 389 1045 418 1040 q 347 1074 360 1050 q 354 1129 333 1099 l 433 1249 q 487 1298 458 1283 q 551 1313 515 1313 q 617 1298 589 1313 q 669 1249 646 1283 l 749 1129 q 757 1074 769 1099 q 715 1045 744 1050 q 658 1069 686 1040 l 551 1183 l 444 1069 z "},"Ộ":{"ha":1106,"x_min":69,"x_max":1038,"o":"m 553 -15 q 299 48 408 -15 q 130 224 190 111 q 69 490 69 338 q 130 756 69 643 q 299 932 190 869 q 553 994 407 994 q 808 932 699 994 q 977 756 917 869 q 1038 492 1038 643 q 977 225 1038 339 q 808 48 917 111 q 553 -15 699 -15 m 553 168 q 744 253 675 168 q 813 490 813 339 q 744 727 813 643 q 553 811 676 811 q 363 727 432 811 q 294 490 294 643 q 363 253 294 339 q 553 168 432 168 m 551 -304 q 474 -278 501 -304 q 447 -206 447 -253 q 551 -107 447 -107 q 656 -206 656 -107 q 551 -304 656 -304 m 444 1074 q 401 1050 425 1051 q 358 1061 376 1049 q 333 1094 339 1074 q 343 1136 326 1114 l 432 1260 q 551 1325 476 1325 q 672 1260 625 1325 l 760 1136 q 771 1094 776 1114 q 747 1061 765 1074 q 703 1050 728 1049 q 660 1074 679 1051 l 551 1194 l 444 1074 z "},"Ồ":{"ha":1106,"x_min":69,"x_max":1038,"o":"m 553 -15 q 299 48 408 -15 q 130 224 190 111 q 69 490 69 338 q 130 756 69 643 q 299 932 190 869 q 553 994 407 994 q 808 932 699 994 q 977 756 917 869 q 1038 492 1038 643 q 977 225 1038 339 q 808 48 917 111 q 553 -15 699 -15 m 553 168 q 744 253 675 168 q 813 490 813 339 q 744 727 813 643 q 553 811 676 811 q 363 727 432 811 q 294 490 294 643 q 363 253 294 339 q 553 168 432 168 m 778 1203 l 671 1335 q 656 1388 649 1363 q 685 1428 663 1414 q 735 1438 708 1442 q 778 1403 761 1435 l 858 1258 q 862 1205 875 1226 q 823 1181 849 1183 q 778 1203 797 1178 m 444 1069 q 389 1045 418 1040 q 347 1074 360 1050 q 354 1129 333 1099 l 433 1249 q 487 1298 458 1283 q 551 1313 515 1313 q 617 1298 589 1313 q 669 1249 646 1283 l 749 1129 q 757 1074 769 1099 q 715 1045 744 1050 q 658 1069 686 1040 l 551 1183 l 444 1069 z "},"Ổ":{"ha":1106,"x_min":69,"x_max":1038,"o":"m 553 -15 q 299 48 408 -15 q 130 224 190 111 q 69 490 69 338 q 130 756 69 643 q 299 932 190 869 q 553 994 407 994 q 808 932 699 994 q 977 756 917 869 q 1038 492 1038 643 q 977 225 1038 339 q 808 48 917 111 q 553 -15 699 -15 m 553 168 q 744 253 675 168 q 813 490 813 339 q 744 727 813 643 q 553 811 676 811 q 363 727 432 811 q 294 490 294 643 q 363 253 294 339 q 553 168 432 168 m 799 1204 q 759 1199 779 1193 q 730 1219 739 1204 q 738 1251 721 1235 q 765 1282 754 1268 q 776 1313 776 1296 q 732 1342 776 1342 q 692 1338 713 1342 q 636 1361 649 1328 q 668 1414 624 1401 q 720 1424 693 1421 q 778 1426 747 1426 q 874 1407 840 1426 q 908 1344 908 1388 q 872 1265 908 1303 q 799 1204 836 1226 m 444 1069 q 389 1045 418 1040 q 347 1074 360 1050 q 354 1129 333 1099 l 433 1249 q 487 1298 458 1283 q 551 1313 515 1313 q 617 1298 589 1313 q 669 1249 646 1283 l 749 1129 q 757 1074 769 1099 q 715 1045 744 1050 q 658 1069 686 1040 l 551 1183 l 444 1069 z "},"Ỗ":{"ha":1106,"x_min":69,"x_max":1038,"o":"m 553 -15 q 299 48 408 -15 q 130 224 190 111 q 69 490 69 338 q 130 756 69 643 q 299 932 190 869 q 553 994 407 994 q 808 932 699 994 q 977 756 917 869 q 1038 492 1038 643 q 977 225 1038 339 q 808 48 917 111 q 553 -15 699 -15 m 553 168 q 744 253 675 168 q 813 490 813 339 q 744 727 813 643 q 553 811 676 811 q 363 727 432 811 q 294 490 294 643 q 363 253 294 339 q 553 168 432 168 m 350 1279 q 315 1296 328 1281 q 310 1338 303 1311 q 365 1415 325 1388 q 458 1442 404 1442 q 527 1428 496 1442 q 585 1401 558 1415 q 639 1388 613 1388 q 673 1394 658 1388 q 696 1414 688 1400 q 720 1438 707 1429 q 753 1446 733 1447 q 789 1429 776 1444 q 793 1389 801 1414 q 740 1310 779 1338 q 646 1283 700 1283 q 576 1297 607 1283 q 517 1324 544 1310 q 465 1338 490 1338 q 408 1311 424 1338 q 384 1288 397 1297 q 350 1279 371 1279 m 429 1058 q 378 1047 401 1039 q 345 1076 354 1054 q 354 1119 336 1097 l 424 1201 q 482 1246 450 1233 q 551 1258 514 1258 q 622 1246 590 1258 q 679 1201 654 1233 l 749 1119 q 757 1076 765 1097 q 726 1046 749 1054 q 674 1058 703 1038 l 551 1151 l 429 1058 z "},"Ȍ":{"ha":1106,"x_min":69,"x_max":1038,"o":"m 553 -15 q 299 48 408 -15 q 130 224 190 111 q 69 490 69 338 q 130 756 69 643 q 299 932 190 869 q 553 994 407 994 q 808 932 699 994 q 977 756 917 869 q 1038 492 1038 643 q 977 225 1038 339 q 808 48 917 111 q 553 -15 699 -15 m 553 168 q 744 253 675 168 q 813 490 813 339 q 744 727 813 643 q 553 811 676 811 q 363 727 432 811 q 294 490 294 643 q 363 253 294 339 q 553 168 432 168 m 376 1071 l 260 1214 q 242 1272 235 1244 q 274 1314 249 1299 q 328 1324 299 1329 q 375 1286 357 1319 l 461 1131 q 464 1078 478 1101 q 424 1049 450 1054 q 376 1071 399 1044 m 592 1076 l 490 1214 q 475 1273 465 1246 q 511 1314 485 1300 q 567 1323 538 1328 q 611 1285 596 1318 l 690 1126 q 688 1074 704 1096 q 642 1050 671 1053 q 592 1076 614 1047 z "},"Ö":{"ha":1106,"x_min":69,"x_max":1038,"o":"m 553 -15 q 299 48 408 -15 q 130 224 190 111 q 69 490 69 338 q 130 756 69 643 q 299 932 190 869 q 553 994 407 994 q 808 932 699 994 q 977 756 917 869 q 1038 492 1038 643 q 977 225 1038 339 q 808 48 917 111 q 553 -15 699 -15 m 553 168 q 744 253 675 168 q 813 490 813 339 q 744 727 813 643 q 553 811 676 811 q 363 727 432 811 q 294 490 294 643 q 363 253 294 339 q 553 168 432 168 m 689 1078 q 590 1176 590 1078 q 689 1274 590 1274 q 786 1176 786 1274 q 689 1078 786 1078 m 415 1078 q 342 1103 368 1078 q 317 1176 317 1129 q 342 1249 317 1224 q 415 1274 368 1274 q 513 1176 513 1274 q 415 1078 513 1078 z "},"Ȫ":{"ha":1106,"x_min":69,"x_max":1038,"o":"m 553 -15 q 299 48 408 -15 q 130 224 190 111 q 69 490 69 338 q 130 756 69 643 q 299 932 190 869 q 553 994 407 994 q 808 932 699 994 q 977 756 917 869 q 1038 492 1038 643 q 977 225 1038 339 q 808 48 917 111 q 553 -15 699 -15 m 553 168 q 744 253 675 168 q 813 490 813 339 q 744 727 813 643 q 553 811 676 811 q 363 727 432 811 q 294 490 294 643 q 363 253 294 339 q 553 168 432 168 m 385 1282 q 318 1342 318 1282 q 385 1400 318 1400 l 718 1400 q 785 1342 785 1400 q 718 1282 785 1282 l 385 1282 m 415 1079 q 342 1099 368 1079 q 317 1153 317 1118 q 342 1208 317 1189 q 415 1226 368 1226 q 513 1153 513 1226 q 415 1079 513 1079 m 689 1079 q 590 1153 590 1079 q 689 1226 590 1226 q 786 1153 786 1226 q 689 1079 786 1079 z "},"Ȱ":{"ha":1106,"x_min":69,"x_max":1038,"o":"m 553 -15 q 299 48 408 -15 q 130 224 190 111 q 69 490 69 338 q 130 756 69 643 q 299 932 190 869 q 553 994 407 994 q 808 932 699 994 q 977 756 917 869 q 1038 492 1038 643 q 977 225 1038 339 q 808 48 917 111 q 553 -15 699 -15 m 553 168 q 744 253 675 168 q 813 490 813 339 q 744 727 813 643 q 553 811 676 811 q 363 727 432 811 q 294 490 294 643 q 363 253 294 339 q 553 168 432 168 m 385 1282 q 318 1342 318 1282 q 385 1400 318 1400 l 718 1400 q 785 1342 785 1400 q 718 1282 785 1282 l 385 1282 m 553 1079 q 480 1099 506 1079 q 454 1153 454 1118 q 480 1208 454 1189 q 553 1226 506 1226 q 651 1153 651 1226 q 553 1079 651 1079 z "},"Ọ":{"ha":1106,"x_min":69,"x_max":1038,"o":"m 553 -15 q 299 48 408 -15 q 130 224 190 111 q 69 490 69 338 q 130 756 69 643 q 299 932 190 869 q 553 994 407 994 q 808 932 699 994 q 977 756 917 869 q 1038 492 1038 643 q 977 225 1038 339 q 808 48 917 111 q 553 -15 699 -15 m 553 168 q 744 253 675 168 q 813 490 813 339 q 744 727 813 643 q 553 811 676 811 q 363 727 432 811 q 294 490 294 643 q 363 253 294 339 q 553 168 432 168 m 551 -304 q 474 -278 501 -304 q 447 -206 447 -253 q 551 -107 447 -107 q 656 -206 656 -107 q 551 -304 656 -304 z "},"Ò":{"ha":1106,"x_min":69,"x_max":1038,"o":"m 553 -15 q 299 48 408 -15 q 130 224 190 111 q 69 490 69 338 q 130 756 69 643 q 299 932 190 869 q 553 994 407 994 q 808 932 699 994 q 977 756 917 869 q 1038 492 1038 643 q 977 225 1038 339 q 808 48 917 111 q 553 -15 699 -15 m 553 168 q 744 253 675 168 q 813 490 813 339 q 744 727 813 643 q 553 811 676 811 q 363 727 432 811 q 294 490 294 643 q 363 253 294 339 q 553 168 432 168 m 469 1072 l 344 1204 q 326 1260 318 1232 q 360 1308 333 1289 q 417 1325 386 1326 q 471 1290 449 1324 l 571 1143 q 580 1099 586 1121 q 556 1064 574 1078 q 514 1051 538 1050 q 469 1072 490 1051 z "},"Ỏ":{"ha":1106,"x_min":69,"x_max":1038,"o":"m 553 -15 q 299 48 408 -15 q 130 224 190 111 q 69 490 69 338 q 130 756 69 643 q 299 932 190 869 q 553 994 407 994 q 808 932 699 994 q 977 756 917 869 q 1038 492 1038 643 q 977 225 1038 339 q 808 48 917 111 q 553 -15 699 -15 m 553 168 q 744 253 675 168 q 813 490 813 339 q 744 727 813 643 q 553 811 676 811 q 363 727 432 811 q 294 490 294 643 q 363 253 294 339 q 553 168 432 168 m 551 1050 q 490 1089 490 1050 q 508 1136 490 1119 q 544 1165 526 1153 q 563 1196 563 1178 q 513 1221 563 1221 q 468 1217 489 1221 q 404 1240 417 1206 q 404 1276 397 1260 q 436 1300 411 1292 q 494 1313 461 1308 q 565 1317 528 1317 q 677 1293 636 1317 q 718 1228 718 1269 q 702 1177 718 1196 q 665 1146 686 1158 q 629 1119 644 1133 q 614 1081 614 1104 q 551 1050 614 1050 z "},"Ơ":{"ha":1106,"x_min":69,"x_max":1038,"o":"m 553 -15 q 299 48 408 -15 q 130 224 190 111 q 69 490 69 338 q 130 756 69 643 q 299 932 190 869 q 553 994 407 994 q 808 932 699 994 q 977 756 917 869 q 1038 492 1038 643 q 977 225 1038 339 q 808 48 917 111 q 553 -15 699 -15 m 553 168 q 744 253 675 168 q 813 490 813 339 q 744 727 813 643 q 553 811 676 811 q 363 727 432 811 q 294 490 294 643 q 363 253 294 339 q 553 168 432 168 m 690 879 l 635 985 q 684 981 663 983 q 726 979 706 979 q 819 1008 790 979 q 849 1092 849 1038 q 940 1165 849 1165 q 1007 1144 983 1165 q 1031 1085 1031 1122 q 1006 983 1031 1029 q 936 908 981 936 q 836 879 892 879 l 690 879 z "},"Ớ":{"ha":1106,"x_min":69,"x_max":1038,"o":"m 553 -15 q 299 48 408 -15 q 130 224 190 111 q 69 490 69 338 q 130 756 69 643 q 299 932 190 869 q 553 994 407 994 q 808 932 699 994 q 977 756 917 869 q 1038 492 1038 643 q 977 225 1038 339 q 808 48 917 111 q 553 -15 699 -15 m 553 168 q 744 253 675 168 q 813 490 813 339 q 744 727 813 643 q 553 811 676 811 q 363 727 432 811 q 294 490 294 643 q 363 253 294 339 q 553 168 432 168 m 690 879 l 635 985 q 684 981 663 983 q 726 979 706 979 q 819 1008 790 979 q 849 1092 849 1038 q 940 1165 849 1165 q 1007 1144 983 1165 q 1031 1085 1031 1122 q 1006 983 1031 1029 q 936 908 981 936 q 836 879 892 879 l 690 879 m 629 1072 q 585 1051 608 1051 q 542 1064 561 1050 q 518 1099 524 1078 q 528 1143 513 1121 l 628 1290 q 681 1325 650 1324 q 739 1308 713 1326 q 772 1260 765 1289 q 754 1204 779 1232 l 629 1072 z "},"Ợ":{"ha":1106,"x_min":69,"x_max":1038,"o":"m 553 -15 q 299 48 408 -15 q 130 224 190 111 q 69 490 69 338 q 130 756 69 643 q 299 932 190 869 q 553 994 407 994 q 808 932 699 994 q 977 756 917 869 q 1038 492 1038 643 q 977 225 1038 339 q 808 48 917 111 q 553 -15 699 -15 m 553 168 q 744 253 675 168 q 813 490 813 339 q 744 727 813 643 q 553 811 676 811 q 363 727 432 811 q 294 490 294 643 q 363 253 294 339 q 553 168 432 168 m 690 879 l 635 985 q 684 981 663 983 q 726 979 706 979 q 819 1008 790 979 q 849 1092 849 1038 q 940 1165 849 1165 q 1007 1144 983 1165 q 1031 1085 1031 1122 q 1006 983 1031 1029 q 936 908 981 936 q 836 879 892 879 l 690 879 m 547 -304 q 470 -278 497 -304 q 443 -206 443 -253 q 547 -107 443 -107 q 651 -206 651 -107 q 547 -304 651 -304 z "},"Ờ":{"ha":1106,"x_min":69,"x_max":1038,"o":"m 553 -15 q 299 48 408 -15 q 130 224 190 111 q 69 490 69 338 q 130 756 69 643 q 299 932 190 869 q 553 994 407 994 q 808 932 699 994 q 977 756 917 869 q 1038 492 1038 643 q 977 225 1038 339 q 808 48 917 111 q 553 -15 699 -15 m 553 168 q 744 253 675 168 q 813 490 813 339 q 744 727 813 643 q 553 811 676 811 q 363 727 432 811 q 294 490 294 643 q 363 253 294 339 q 553 168 432 168 m 690 879 l 635 985 q 684 981 663 983 q 726 979 706 979 q 819 1008 790 979 q 849 1092 849 1038 q 940 1165 849 1165 q 1007 1144 983 1165 q 1031 1085 1031 1122 q 1006 983 1031 1029 q 936 908 981 936 q 836 879 892 879 l 690 879 m 464 1072 l 339 1204 q 320 1260 313 1232 q 354 1308 328 1289 q 412 1325 381 1326 q 465 1290 443 1324 l 565 1143 q 574 1099 581 1121 q 550 1064 568 1078 q 508 1051 532 1050 q 464 1072 485 1051 z "},"Ở":{"ha":1106,"x_min":69,"x_max":1038,"o":"m 553 -15 q 299 48 408 -15 q 130 224 190 111 q 69 490 69 338 q 130 756 69 643 q 299 932 190 869 q 553 994 407 994 q 808 932 699 994 q 977 756 917 869 q 1038 492 1038 643 q 977 225 1038 339 q 808 48 917 111 q 553 -15 699 -15 m 553 168 q 744 253 675 168 q 813 490 813 339 q 744 727 813 643 q 553 811 676 811 q 363 727 432 811 q 294 490 294 643 q 363 253 294 339 q 553 168 432 168 m 690 879 l 635 985 q 684 981 663 983 q 726 979 706 979 q 819 1008 790 979 q 849 1092 849 1038 q 940 1165 849 1165 q 1007 1144 983 1165 q 1031 1085 1031 1122 q 1006 983 1031 1029 q 936 908 981 936 q 836 879 892 879 l 690 879 m 546 1050 q 485 1089 485 1050 q 503 1136 485 1119 q 539 1165 521 1153 q 557 1196 557 1178 q 507 1221 557 1221 q 463 1217 483 1221 q 399 1240 411 1206 q 399 1276 392 1260 q 431 1300 406 1292 q 489 1313 456 1308 q 560 1317 522 1317 q 672 1293 631 1317 q 713 1228 713 1269 q 697 1177 713 1196 q 660 1146 681 1158 q 624 1119 639 1133 q 608 1081 608 1104 q 546 1050 608 1050 z "},"Ỡ":{"ha":1106,"x_min":69,"x_max":1038,"o":"m 553 -15 q 299 48 408 -15 q 130 224 190 111 q 69 490 69 338 q 130 756 69 643 q 299 932 190 869 q 553 994 407 994 q 808 932 699 994 q 977 756 917 869 q 1038 492 1038 643 q 977 225 1038 339 q 808 48 917 111 q 553 -15 699 -15 m 553 168 q 744 253 675 168 q 813 490 813 339 q 744 727 813 643 q 553 811 676 811 q 363 727 432 811 q 294 490 294 643 q 363 253 294 339 q 553 168 432 168 m 690 879 l 635 985 q 684 981 663 983 q 726 979 706 979 q 819 1008 790 979 q 849 1092 849 1038 q 940 1165 849 1165 q 1007 1144 983 1165 q 1031 1085 1031 1122 q 1006 983 1031 1029 q 936 908 981 936 q 836 879 892 879 l 690 879 m 289 1060 q 252 1077 265 1061 q 244 1121 239 1093 q 306 1243 258 1199 q 421 1288 354 1288 q 485 1275 457 1288 q 536 1246 513 1263 q 583 1217 560 1229 q 633 1204 606 1204 q 678 1219 660 1204 q 707 1256 697 1233 q 731 1288 718 1276 q 768 1297 744 1299 q 804 1280 792 1296 q 813 1236 817 1264 q 751 1114 799 1158 q 635 1069 703 1069 q 572 1083 600 1069 q 520 1112 544 1096 q 473 1140 496 1128 q 422 1153 450 1153 q 378 1138 397 1153 q 350 1101 358 1124 q 326 1069 339 1081 q 289 1060 313 1058 z "},"Ő":{"ha":1106,"x_min":69,"x_max":1038,"o":"m 553 -15 q 299 48 408 -15 q 130 224 190 111 q 69 490 69 338 q 130 756 69 643 q 299 932 190 869 q 553 994 407 994 q 808 932 699 994 q 977 756 917 869 q 1038 492 1038 643 q 977 225 1038 339 q 808 48 917 111 q 553 -15 699 -15 m 553 168 q 744 253 675 168 q 813 490 813 339 q 744 727 813 643 q 553 811 676 811 q 363 727 432 811 q 294 490 294 643 q 363 253 294 339 q 553 168 432 168 m 726 1071 q 679 1049 706 1044 q 639 1077 653 1054 q 642 1131 625 1100 l 728 1286 q 775 1324 746 1319 q 829 1313 804 1328 q 862 1272 854 1299 q 844 1214 869 1244 l 726 1071 m 511 1076 q 460 1050 489 1047 q 416 1074 432 1053 q 414 1126 400 1096 l 492 1285 q 536 1323 507 1318 q 592 1314 565 1328 q 628 1273 618 1300 q 613 1214 638 1246 l 511 1076 z "},"Ȏ":{"ha":1106,"x_min":69,"x_max":1038,"o":"m 553 -15 q 299 48 408 -15 q 130 224 190 111 q 69 490 69 338 q 130 756 69 643 q 299 932 190 869 q 553 994 407 994 q 808 932 699 994 q 977 756 917 869 q 1038 492 1038 643 q 977 225 1038 339 q 808 48 917 111 q 553 -15 699 -15 m 553 168 q 744 253 675 168 q 813 490 813 339 q 744 727 813 643 q 553 811 676 811 q 363 727 432 811 q 294 490 294 643 q 363 253 294 339 q 553 168 432 168 m 342 1056 q 301 1079 315 1058 q 297 1132 288 1100 q 390 1262 321 1215 q 551 1308 458 1308 q 713 1262 643 1308 q 804 1132 782 1215 q 800 1080 814 1101 q 760 1056 786 1058 q 710 1069 725 1051 q 686 1103 694 1086 q 633 1168 669 1149 q 551 1188 596 1188 q 470 1168 507 1188 q 417 1103 433 1149 q 392 1069 408 1086 q 342 1056 376 1053 z "},"Ō":{"ha":1106,"x_min":69,"x_max":1038,"o":"m 553 -15 q 299 48 408 -15 q 130 224 190 111 q 69 490 69 338 q 130 756 69 643 q 299 932 190 869 q 553 994 407 994 q 808 932 699 994 q 977 756 917 869 q 1038 492 1038 643 q 977 225 1038 339 q 808 48 917 111 q 553 -15 699 -15 m 553 168 q 744 253 675 168 q 813 490 813 339 q 744 727 813 643 q 553 811 676 811 q 363 727 432 811 q 294 490 294 643 q 363 253 294 339 q 553 168 432 168 m 357 1113 q 296 1172 296 1113 q 357 1231 296 1231 l 746 1231 q 808 1172 808 1231 q 746 1113 808 1113 l 357 1113 z "},"Ṓ":{"ha":1106,"x_min":69,"x_max":1038,"o":"m 553 -15 q 299 48 408 -15 q 130 224 190 111 q 69 490 69 338 q 130 756 69 643 q 299 932 190 869 q 553 994 407 994 q 808 932 699 994 q 977 756 917 869 q 1038 492 1038 643 q 977 225 1038 339 q 808 48 917 111 q 553 -15 699 -15 m 553 168 q 744 253 675 168 q 813 490 813 339 q 744 727 813 643 q 553 811 676 811 q 363 727 432 811 q 294 490 294 643 q 363 253 294 339 q 553 168 432 168 m 615 1251 q 563 1228 592 1225 q 517 1256 533 1232 q 517 1310 501 1279 l 574 1417 q 622 1456 590 1451 q 680 1446 653 1461 q 716 1403 707 1431 q 699 1346 725 1375 l 615 1251 m 385 1082 q 318 1140 318 1082 q 385 1200 318 1200 l 718 1200 q 785 1140 785 1200 q 718 1082 785 1082 l 385 1082 z "},"Ṑ":{"ha":1106,"x_min":69,"x_max":1038,"o":"m 553 -15 q 299 48 408 -15 q 130 224 190 111 q 69 490 69 338 q 130 756 69 643 q 299 932 190 869 q 553 994 407 994 q 808 932 699 994 q 977 756 917 869 q 1038 492 1038 643 q 977 225 1038 339 q 808 48 917 111 q 553 -15 699 -15 m 553 168 q 744 253 675 168 q 813 490 813 339 q 744 727 813 643 q 553 811 676 811 q 363 727 432 811 q 294 490 294 643 q 363 253 294 339 q 553 168 432 168 m 488 1251 l 404 1346 q 387 1403 378 1375 q 423 1446 396 1431 q 481 1456 450 1461 q 529 1417 513 1451 l 586 1310 q 585 1256 601 1279 q 540 1228 569 1232 q 488 1251 511 1225 m 385 1082 q 318 1140 318 1082 q 385 1200 318 1200 l 718 1200 q 785 1140 785 1200 q 718 1082 785 1082 l 385 1082 z "},"Ǫ":{"ha":1106,"x_min":69,"x_max":1038,"o":"m 553 -15 q 299 48 408 -15 q 130 224 190 111 q 69 490 69 338 q 130 756 69 643 q 299 932 190 869 q 553 994 407 994 q 808 932 699 994 q 977 756 917 869 q 1038 492 1038 643 q 977 225 1038 339 q 808 48 917 111 q 553 -15 699 -15 m 553 168 q 744 253 675 168 q 813 490 813 339 q 744 727 813 643 q 553 811 676 811 q 363 727 432 811 q 294 490 294 643 q 363 253 294 339 q 553 168 432 168 m 606 -274 q 478 -233 524 -274 q 432 -124 432 -192 q 472 -12 432 -62 q 579 63 513 38 l 638 0 q 580 -41 601 -14 q 558 -100 558 -68 q 581 -149 558 -132 q 635 -167 603 -167 q 674 -161 654 -167 q 719 -167 703 -156 q 738 -197 735 -178 q 730 -234 740 -215 q 696 -261 719 -253 q 650 -272 674 -269 q 606 -274 626 -274 z "},"Ø":{"ha":1106,"x_min":69,"x_max":1038,"o":"m 553 -15 q 299 48 408 -15 q 130 224 190 111 q 69 490 69 338 q 130 756 69 643 q 299 932 190 869 q 553 994 407 994 q 808 932 699 994 q 977 756 917 869 q 1038 492 1038 643 q 977 225 1038 339 q 808 48 917 111 q 553 -15 699 -15 m 553 168 q 744 253 675 168 q 813 490 813 339 q 744 727 813 643 q 553 811 676 811 q 363 727 432 811 q 294 490 294 643 q 363 253 294 339 q 553 168 432 168 m 336 -43 q 284 -82 315 -76 q 225 -72 253 -87 q 187 -25 197 -56 q 199 43 176 6 l 264 151 l 328 246 l 667 828 l 704 910 l 769 1022 q 822 1061 790 1056 q 881 1051 853 1067 q 919 1005 908 1035 q 907 938 929 975 l 842 828 l 776 733 l 439 153 l 401 71 l 336 -43 z "},"Ǿ":{"ha":1106,"x_min":69,"x_max":1038,"o":"m 553 -15 q 299 48 408 -15 q 130 224 190 111 q 69 490 69 338 q 130 756 69 643 q 299 932 190 869 q 553 994 407 994 q 808 932 699 994 q 977 756 917 869 q 1038 492 1038 643 q 977 225 1038 339 q 808 48 917 111 q 553 -15 699 -15 m 553 168 q 744 253 675 168 q 813 490 813 339 q 744 727 813 643 q 553 811 676 811 q 363 727 432 811 q 294 490 294 643 q 363 253 294 339 q 553 168 432 168 m 336 -43 q 284 -82 315 -76 q 225 -72 253 -87 q 187 -25 197 -56 q 199 43 176 6 l 264 151 l 328 246 l 667 828 l 704 910 l 769 1022 q 822 1061 790 1056 q 881 1051 853 1067 q 919 1005 908 1035 q 907 938 929 975 l 842 828 l 776 733 l 439 153 l 401 71 l 336 -43 m 635 1072 q 590 1051 614 1051 q 548 1064 567 1050 q 524 1099 529 1078 q 533 1143 518 1121 l 633 1290 q 687 1325 656 1324 q 744 1308 718 1326 q 778 1260 771 1289 q 760 1204 785 1232 l 635 1072 z "},"Õ":{"ha":1106,"x_min":69,"x_max":1038,"o":"m 553 -15 q 299 48 408 -15 q 130 224 190 111 q 69 490 69 338 q 130 756 69 643 q 299 932 190 869 q 553 994 407 994 q 808 932 699 994 q 977 756 917 869 q 1038 492 1038 643 q 977 225 1038 339 q 808 48 917 111 q 553 -15 699 -15 m 553 168 q 744 253 675 168 q 813 490 813 339 q 744 727 813 643 q 553 811 676 811 q 363 727 432 811 q 294 490 294 643 q 363 253 294 339 q 553 168 432 168 m 285 1060 q 244 1076 258 1061 q 236 1119 231 1092 q 305 1244 254 1200 q 428 1288 356 1288 q 523 1267 479 1288 q 605 1225 567 1246 q 679 1204 643 1204 q 731 1219 711 1204 q 761 1257 751 1233 q 784 1288 771 1278 q 818 1297 797 1299 q 858 1281 844 1296 q 867 1238 872 1265 q 798 1113 849 1157 q 676 1069 747 1069 q 581 1090 624 1069 q 499 1132 538 1111 q 424 1153 461 1153 q 372 1138 392 1153 q 342 1100 351 1124 q 319 1069 332 1079 q 285 1060 306 1058 z "},"Ṍ":{"ha":1106,"x_min":69,"x_max":1038,"o":"m 553 -15 q 299 48 408 -15 q 130 224 190 111 q 69 490 69 338 q 130 756 69 643 q 299 932 190 869 q 553 994 407 994 q 808 932 699 994 q 977 756 917 869 q 1038 492 1038 643 q 977 225 1038 339 q 808 48 917 111 q 553 -15 699 -15 m 553 168 q 744 253 675 168 q 813 490 813 339 q 744 727 813 643 q 553 811 676 811 q 363 727 432 811 q 294 490 294 643 q 363 253 294 339 q 553 168 432 168 m 615 1253 q 563 1229 592 1225 q 517 1256 533 1233 q 517 1310 501 1279 l 574 1417 q 621 1456 590 1451 q 679 1444 651 1460 q 715 1400 707 1428 q 696 1343 724 1372 l 615 1253 m 350 1061 q 315 1078 328 1063 q 310 1118 303 1093 q 365 1197 325 1169 q 458 1224 404 1224 q 527 1210 496 1224 q 585 1183 558 1197 q 639 1169 613 1169 q 673 1176 658 1169 q 696 1194 688 1182 q 720 1219 707 1210 q 753 1228 733 1229 q 789 1211 776 1226 q 793 1169 801 1196 q 740 1091 779 1118 q 646 1064 700 1064 q 576 1078 607 1064 q 517 1106 544 1092 q 465 1119 490 1119 q 408 1093 424 1119 q 384 1069 397 1078 q 350 1061 371 1060 z "},"Ṏ":{"ha":1106,"x_min":69,"x_max":1038,"o":"m 553 -15 q 299 48 408 -15 q 130 224 190 111 q 69 490 69 338 q 130 756 69 643 q 299 932 190 869 q 553 994 407 994 q 808 932 699 994 q 977 756 917 869 q 1038 492 1038 643 q 977 225 1038 339 q 808 48 917 111 q 553 -15 699 -15 m 553 168 q 744 253 675 168 q 813 490 813 339 q 744 727 813 643 q 553 811 676 811 q 363 727 432 811 q 294 490 294 643 q 363 253 294 339 q 553 168 432 168 m 415 1263 q 342 1281 368 1263 q 317 1336 317 1300 q 342 1391 317 1372 q 415 1410 368 1410 q 513 1336 513 1410 q 415 1263 513 1263 m 689 1263 q 590 1336 590 1263 q 689 1410 590 1410 q 786 1336 786 1410 q 689 1263 786 1263 m 350 1061 q 315 1078 328 1063 q 310 1118 303 1093 q 365 1197 325 1169 q 458 1224 404 1224 q 527 1210 496 1224 q 585 1183 558 1197 q 639 1169 613 1169 q 673 1176 658 1169 q 696 1194 688 1182 q 720 1219 707 1210 q 753 1228 733 1229 q 789 1211 776 1226 q 793 1169 801 1196 q 740 1091 779 1118 q 646 1064 700 1064 q 576 1078 607 1064 q 517 1106 544 1092 q 465 1119 490 1119 q 408 1093 424 1119 q 384 1069 397 1078 q 350 1061 371 1060 z "},"Ȭ":{"ha":1106,"x_min":69,"x_max":1038,"o":"m 553 -15 q 299 48 408 -15 q 130 224 190 111 q 69 490 69 338 q 130 756 69 643 q 299 932 190 869 q 553 994 407 994 q 808 932 699 994 q 977 756 917 869 q 1038 492 1038 643 q 977 225 1038 339 q 808 48 917 111 q 553 -15 699 -15 m 553 168 q 744 253 675 168 q 813 490 813 339 q 744 727 813 643 q 553 811 676 811 q 363 727 432 811 q 294 490 294 643 q 363 253 294 339 q 553 168 432 168 m 385 1282 q 318 1342 318 1282 q 385 1400 318 1400 l 718 1400 q 785 1342 785 1400 q 718 1282 785 1282 l 385 1282 m 350 1061 q 315 1078 328 1063 q 310 1118 303 1093 q 365 1197 325 1169 q 458 1224 404 1224 q 527 1210 496 1224 q 585 1183 558 1197 q 639 1169 613 1169 q 673 1176 658 1169 q 696 1194 688 1182 q 720 1219 707 1210 q 753 1228 733 1229 q 789 1211 776 1226 q 793 1169 801 1196 q 740 1091 779 1118 q 646 1064 700 1064 q 576 1078 607 1064 q 517 1106 544 1092 q 465 1119 490 1119 q 408 1093 424 1119 q 384 1069 397 1078 q 350 1061 371 1060 z "},"Œ":{"ha":1475,"x_min":69,"x_max":1415,"o":"m 593 0 q 206 128 343 0 q 69 490 69 256 q 206 852 69 725 q 593 979 343 979 l 1329 979 q 1415 896 1415 979 q 1329 811 1415 811 l 939 811 l 939 582 l 1299 582 q 1383 497 1383 582 q 1299 413 1383 413 l 939 413 l 939 168 l 1329 168 q 1415 85 1415 168 q 1329 0 1415 0 l 593 0 m 607 176 l 732 176 l 732 803 l 607 803 q 294 490 294 803 q 607 176 294 176 z "},"P":{"ha":922,"x_min":99,"x_max":888,"o":"m 207 -12 q 126 17 154 -12 q 99 99 99 46 l 99 869 q 208 979 99 979 l 546 979 q 799 897 710 979 q 888 667 888 814 q 799 436 888 519 q 546 353 710 353 l 314 353 l 314 99 q 287 17 314 46 q 207 -12 260 -12 m 314 519 l 510 519 q 681 667 681 519 q 510 811 681 811 l 314 811 l 314 519 z "},"Þ":{"ha":926,"x_min":99,"x_max":892,"o":"m 207 -3 q 126 26 154 -3 q 99 107 99 54 l 99 872 q 128 953 99 925 q 210 982 157 982 q 287 956 260 982 q 314 886 314 929 l 314 824 l 550 824 q 803 740 714 824 q 892 510 892 657 q 803 279 892 363 q 550 196 714 196 l 314 196 l 314 107 q 287 26 314 54 q 207 -3 260 -3 m 314 364 l 513 364 q 685 510 685 364 q 513 656 685 656 l 314 656 l 314 364 z "},"Q":{"ha":1106,"x_min":69,"x_max":1038,"o":"m 950 -140 q 967 -206 972 -176 q 939 -256 961 -236 q 885 -282 917 -276 q 823 -276 854 -287 q 769 -231 792 -264 l 671 -69 q 551 -15 636 -15 l 551 -15 q 299 49 407 -14 q 130 225 190 111 q 69 490 69 339 q 130 756 69 643 q 299 932 190 869 q 553 994 407 994 q 808 932 699 994 q 977 756 917 869 q 1038 492 1038 643 q 971 215 1038 332 q 789 38 904 97 q 894 -51 850 19 l 950 -140 m 553 168 q 744 253 675 168 q 813 490 813 339 q 744 727 813 643 q 553 811 676 811 q 363 727 432 811 q 294 490 294 643 q 363 253 294 339 q 553 168 432 168 z "},"R":{"ha":967,"x_min":99,"x_max":907,"o":"m 207 -12 q 126 17 154 -12 q 99 99 99 46 l 99 869 q 208 979 99 979 l 546 979 q 799 900 710 979 q 888 679 888 821 q 831 497 888 569 q 671 397 775 424 q 792 290 744 375 l 878 131 q 889 33 907 78 q 801 -12 871 -12 q 726 7 756 -12 q 676 67 697 26 l 543 313 q 492 365 522 351 q 419 379 461 379 l 314 379 l 314 99 q 287 17 314 46 q 207 -12 260 -12 m 314 535 l 507 535 q 681 674 681 535 q 507 811 681 811 l 314 811 l 314 535 z "},"Ŕ":{"ha":967,"x_min":99,"x_max":907,"o":"m 207 -12 q 126 17 154 -12 q 99 99 99 46 l 99 869 q 208 979 99 979 l 546 979 q 799 900 710 979 q 888 679 888 821 q 831 497 888 569 q 671 397 775 424 q 792 290 744 375 l 878 131 q 889 33 907 78 q 801 -12 871 -12 q 726 7 756 -12 q 676 67 697 26 l 543 313 q 492 365 522 351 q 419 379 461 379 l 314 379 l 314 99 q 287 17 314 46 q 207 -12 260 -12 m 314 535 l 507 535 q 681 674 681 535 q 507 811 681 811 l 314 811 l 314 535 m 572 1072 q 528 1051 551 1051 q 485 1064 504 1050 q 461 1099 467 1078 q 471 1143 456 1121 l 571 1290 q 624 1325 593 1324 q 682 1308 656 1326 q 715 1260 708 1289 q 697 1204 722 1232 l 572 1072 z "},"Ř":{"ha":967,"x_min":99,"x_max":907,"o":"m 207 -12 q 126 17 154 -12 q 99 99 99 46 l 99 869 q 208 979 99 979 l 546 979 q 799 900 710 979 q 888 679 888 821 q 831 497 888 569 q 671 397 775 424 q 792 290 744 375 l 878 131 q 889 33 907 78 q 801 -12 871 -12 q 726 7 756 -12 q 676 67 697 26 l 543 313 q 492 365 522 351 q 419 379 461 379 l 314 379 l 314 99 q 287 17 314 46 q 207 -12 260 -12 m 314 535 l 507 535 q 681 674 681 535 q 507 811 681 811 l 314 811 l 314 535 m 489 1043 q 369 1108 415 1043 l 281 1232 q 270 1275 264 1254 q 295 1308 276 1296 q 338 1318 314 1319 q 382 1294 363 1317 l 489 1172 l 597 1294 q 640 1319 617 1317 q 683 1308 664 1321 q 708 1276 703 1296 q 697 1232 714 1256 l 610 1108 q 489 1043 564 1043 z "},"Ŗ":{"ha":967,"x_min":99,"x_max":907,"o":"m 207 -12 q 126 17 154 -12 q 99 99 99 46 l 99 869 q 208 979 99 979 l 546 979 q 799 900 710 979 q 888 679 888 821 q 831 497 888 569 q 671 397 775 424 q 792 290 744 375 l 878 131 q 889 33 907 78 q 801 -12 871 -12 q 726 7 756 -12 q 676 67 697 26 l 543 313 q 492 365 522 351 q 419 379 461 379 l 314 379 l 314 99 q 287 17 314 46 q 207 -12 260 -12 m 314 535 l 507 535 q 681 674 681 535 q 507 811 681 811 l 314 811 l 314 535 m 536 -369 q 490 -390 515 -393 q 452 -367 464 -387 q 461 -315 440 -346 q 483 -267 476 -294 q 382 -175 382 -262 q 489 -86 382 -86 q 596 -190 596 -86 q 581 -285 596 -237 q 536 -369 567 -332 z "},"Ȑ":{"ha":967,"x_min":99,"x_max":907,"o":"m 207 -12 q 126 17 154 -12 q 99 99 99 46 l 99 869 q 208 979 99 979 l 546 979 q 799 900 710 979 q 888 679 888 821 q 831 497 888 569 q 671 397 775 424 q 792 290 744 375 l 878 131 q 889 33 907 78 q 801 -12 871 -12 q 726 7 756 -12 q 676 67 697 26 l 543 313 q 492 365 522 351 q 419 379 461 379 l 314 379 l 314 99 q 287 17 314 46 q 207 -12 260 -12 m 314 535 l 507 535 q 681 674 681 535 q 507 811 681 811 l 314 811 l 314 535 m 314 1071 l 197 1214 q 179 1272 172 1244 q 211 1314 186 1299 q 265 1324 236 1329 q 313 1286 294 1319 l 399 1131 q 401 1078 415 1101 q 362 1049 388 1054 q 314 1071 336 1044 m 529 1076 l 428 1214 q 413 1273 403 1246 q 449 1314 422 1300 q 504 1323 475 1328 q 549 1285 533 1318 l 628 1126 q 625 1074 642 1096 q 580 1050 608 1053 q 529 1076 551 1047 z "},"Ṛ":{"ha":967,"x_min":99,"x_max":907,"o":"m 207 -12 q 126 17 154 -12 q 99 99 99 46 l 99 869 q 208 979 99 979 l 546 979 q 799 900 710 979 q 888 679 888 821 q 831 497 888 569 q 671 397 775 424 q 792 290 744 375 l 878 131 q 889 33 907 78 q 801 -12 871 -12 q 726 7 756 -12 q 676 67 697 26 l 543 313 q 492 365 522 351 q 419 379 461 379 l 314 379 l 314 99 q 287 17 314 46 q 207 -12 260 -12 m 314 535 l 507 535 q 681 674 681 535 q 507 811 681 811 l 314 811 l 314 535 m 490 -304 q 413 -278 440 -304 q 386 -206 386 -253 q 490 -107 386 -107 q 594 -206 594 -107 q 490 -304 594 -304 z "},"Ȓ":{"ha":967,"x_min":99,"x_max":907,"o":"m 207 -12 q 126 17 154 -12 q 99 99 99 46 l 99 869 q 208 979 99 979 l 546 979 q 799 900 710 979 q 888 679 888 821 q 831 497 888 569 q 671 397 775 424 q 792 290 744 375 l 878 131 q 889 33 907 78 q 801 -12 871 -12 q 726 7 756 -12 q 676 67 697 26 l 543 313 q 492 365 522 351 q 419 379 461 379 l 314 379 l 314 99 q 287 17 314 46 q 207 -12 260 -12 m 314 535 l 507 535 q 681 674 681 535 q 507 811 681 811 l 314 811 l 314 535 m 279 1056 q 239 1079 253 1058 q 235 1132 225 1100 q 327 1262 258 1215 q 489 1308 396 1308 q 650 1262 581 1308 q 742 1132 719 1215 q 738 1080 751 1101 q 697 1056 724 1058 q 647 1069 663 1051 q 624 1103 632 1086 q 570 1168 607 1149 q 489 1188 533 1188 q 408 1168 444 1188 q 354 1103 371 1149 q 330 1069 346 1086 q 279 1056 314 1053 z "},"Ṟ":{"ha":967,"x_min":99,"x_max":907,"o":"m 207 -12 q 126 17 154 -12 q 99 99 99 46 l 99 869 q 208 979 99 979 l 546 979 q 799 900 710 979 q 888 679 888 821 q 831 497 888 569 q 671 397 775 424 q 792 290 744 375 l 878 131 q 889 33 907 78 q 801 -12 871 -12 q 726 7 756 -12 q 676 67 697 26 l 543 313 q 492 365 522 351 q 419 379 461 379 l 314 379 l 314 99 q 287 17 314 46 q 207 -12 260 -12 m 314 535 l 507 535 q 681 674 681 535 q 507 811 681 811 l 314 811 l 314 535 m 317 -236 q 256 -176 256 -236 q 317 -118 256 -118 l 664 -118 q 726 -176 726 -118 q 664 -236 726 -236 l 317 -236 z "},"S":{"ha":890,"x_min":58,"x_max":849,"o":"m 449 -15 q 271 4 360 -15 q 117 61 182 24 q 68 117 78 82 q 72 186 58 153 q 117 233 86 219 q 190 226 147 247 q 314 179 246 194 q 449 164 382 164 q 592 195 549 164 q 636 274 636 226 q 606 338 636 314 q 499 378 575 361 l 342 411 q 79 683 79 467 q 129 847 79 776 q 269 956 179 917 q 476 994 358 994 q 629 976 554 994 q 761 921 704 957 q 804 867 796 900 q 799 803 813 833 q 755 760 786 772 q 678 769 724 747 q 581 804 632 793 q 475 815 529 815 q 340 781 388 815 q 292 693 292 747 q 321 628 292 653 q 422 588 350 603 l 579 554 q 849 290 849 496 q 799 130 849 199 q 660 23 750 61 q 449 -15 571 -15 z "},"Ś":{"ha":890,"x_min":58,"x_max":849,"o":"m 449 -15 q 271 4 360 -15 q 117 61 182 24 q 68 117 78 82 q 72 186 58 153 q 117 233 86 219 q 190 226 147 247 q 314 179 246 194 q 449 164 382 164 q 592 195 549 164 q 636 274 636 226 q 606 338 636 314 q 499 378 575 361 l 342 411 q 79 683 79 467 q 129 847 79 776 q 269 956 179 917 q 476 994 358 994 q 629 976 554 994 q 761 921 704 957 q 804 867 796 900 q 799 803 813 833 q 755 760 786 772 q 678 769 724 747 q 581 804 632 793 q 475 815 529 815 q 340 781 388 815 q 292 693 292 747 q 321 628 292 653 q 422 588 350 603 l 579 554 q 849 290 849 496 q 799 130 849 199 q 660 23 750 61 q 449 -15 571 -15 m 543 1072 q 499 1051 522 1051 q 456 1064 475 1050 q 432 1099 438 1078 q 442 1143 426 1121 l 542 1290 q 595 1325 564 1324 q 653 1308 626 1326 q 686 1260 679 1289 q 668 1204 693 1232 l 543 1072 z "},"Ṥ":{"ha":890,"x_min":58,"x_max":849,"o":"m 449 -15 q 271 4 360 -15 q 117 61 182 24 q 68 117 78 82 q 72 186 58 153 q 117 233 86 219 q 190 226 147 247 q 314 179 246 194 q 449 164 382 164 q 592 195 549 164 q 636 274 636 226 q 606 338 636 314 q 499 378 575 361 l 342 411 q 79 683 79 467 q 129 847 79 776 q 269 956 179 917 q 476 994 358 994 q 629 976 554 994 q 761 921 704 957 q 804 867 796 900 q 799 803 813 833 q 755 760 786 772 q 678 769 724 747 q 581 804 632 793 q 475 815 529 815 q 340 781 388 815 q 292 693 292 747 q 321 628 292 653 q 422 588 350 603 l 579 554 q 849 290 849 496 q 799 130 849 199 q 660 23 750 61 q 449 -15 571 -15 m 371 1283 q 297 1303 322 1283 q 271 1358 271 1322 q 297 1413 271 1394 q 371 1432 322 1432 q 468 1358 468 1432 q 371 1283 468 1283 m 543 1074 q 499 1051 522 1051 q 456 1064 475 1050 q 432 1099 438 1078 q 442 1143 426 1121 l 549 1303 q 606 1341 574 1339 q 665 1324 639 1343 q 699 1276 692 1306 q 679 1217 707 1246 l 543 1074 z "},"Š":{"ha":890,"x_min":58,"x_max":849,"o":"m 449 -15 q 271 4 360 -15 q 117 61 182 24 q 68 117 78 82 q 72 186 58 153 q 117 233 86 219 q 190 226 147 247 q 314 179 246 194 q 449 164 382 164 q 592 195 549 164 q 636 274 636 226 q 606 338 636 314 q 499 378 575 361 l 342 411 q 79 683 79 467 q 129 847 79 776 q 269 956 179 917 q 476 994 358 994 q 629 976 554 994 q 761 921 704 957 q 804 867 796 900 q 799 803 813 833 q 755 760 786 772 q 678 769 724 747 q 581 804 632 793 q 475 815 529 815 q 340 781 388 815 q 292 693 292 747 q 321 628 292 653 q 422 588 350 603 l 579 554 q 849 290 849 496 q 799 130 849 199 q 660 23 750 61 q 449 -15 571 -15 m 460 1043 q 340 1108 386 1043 l 251 1232 q 241 1275 235 1254 q 266 1308 247 1296 q 309 1318 285 1319 q 353 1294 333 1317 l 460 1172 l 568 1294 q 611 1319 588 1317 q 654 1308 635 1321 q 679 1276 674 1296 q 668 1232 685 1256 l 581 1108 q 460 1043 535 1043 z "},"Ṧ":{"ha":890,"x_min":58,"x_max":849,"o":"m 449 -15 q 271 4 360 -15 q 117 61 182 24 q 68 117 78 82 q 72 186 58 153 q 117 233 86 219 q 190 226 147 247 q 314 179 246 194 q 449 164 382 164 q 592 195 549 164 q 636 274 636 226 q 606 338 636 314 q 499 378 575 361 l 342 411 q 79 683 79 467 q 129 847 79 776 q 269 956 179 917 q 476 994 358 994 q 629 976 554 994 q 761 921 704 957 q 804 867 796 900 q 799 803 813 833 q 755 760 786 772 q 678 769 724 747 q 581 804 632 793 q 475 815 529 815 q 340 781 388 815 q 292 693 292 747 q 321 628 292 653 q 422 588 350 603 l 579 554 q 849 290 849 496 q 799 130 849 199 q 660 23 750 61 q 449 -15 571 -15 m 461 1325 q 388 1344 414 1325 q 363 1399 363 1364 q 388 1453 363 1435 q 461 1472 414 1472 q 560 1399 560 1472 q 461 1325 560 1325 m 460 1046 q 392 1059 421 1046 q 340 1107 364 1072 l 254 1231 q 249 1277 238 1254 q 285 1308 260 1300 q 335 1293 310 1315 l 460 1171 l 586 1293 q 635 1308 611 1315 q 671 1277 660 1300 q 665 1231 682 1254 l 581 1107 q 528 1059 557 1072 q 460 1046 499 1046 z "},"Ş":{"ha":890,"x_min":58,"x_max":849,"o":"m 449 -15 q 271 4 360 -15 q 117 61 182 24 q 68 117 78 82 q 72 186 58 153 q 117 233 86 219 q 190 226 147 247 q 314 179 246 194 q 449 164 382 164 q 592 195 549 164 q 636 274 636 226 q 606 338 636 314 q 499 378 575 361 l 342 411 q 79 683 79 467 q 129 847 79 776 q 269 956 179 917 q 476 994 358 994 q 629 976 554 994 q 761 921 704 957 q 804 867 796 900 q 799 803 813 833 q 755 760 786 772 q 678 769 724 747 q 581 804 632 793 q 475 815 529 815 q 340 781 388 815 q 292 693 292 747 q 321 628 292 653 q 422 588 350 603 l 579 554 q 849 290 849 496 q 799 130 849 199 q 660 23 750 61 q 449 -15 571 -15 m 453 -274 q 396 -270 425 -274 q 342 -258 367 -267 q 308 -233 317 -251 q 304 -197 300 -215 q 324 -169 308 -179 q 365 -168 340 -160 q 433 -179 397 -179 q 506 -143 506 -179 q 454 -115 506 -115 q 435 -116 444 -115 q 415 -118 426 -117 q 383 -112 396 -124 q 376 -75 372 -101 l 392 28 l 497 28 l 483 -47 q 492 -47 488 -47 q 590 -74 554 -47 q 625 -150 625 -101 q 577 -240 625 -206 q 453 -274 529 -274 z "},"Ŝ":{"ha":890,"x_min":58,"x_max":849,"o":"m 449 -15 q 271 4 360 -15 q 117 61 182 24 q 68 117 78 82 q 72 186 58 153 q 117 233 86 219 q 190 226 147 247 q 314 179 246 194 q 449 164 382 164 q 592 195 549 164 q 636 274 636 226 q 606 338 636 314 q 499 378 575 361 l 342 411 q 79 683 79 467 q 129 847 79 776 q 269 956 179 917 q 476 994 358 994 q 629 976 554 994 q 761 921 704 957 q 804 867 796 900 q 799 803 813 833 q 755 760 786 772 q 678 769 724 747 q 581 804 632 793 q 475 815 529 815 q 340 781 388 815 q 292 693 292 747 q 321 628 292 653 q 422 588 350 603 l 579 554 q 849 290 849 496 q 799 130 849 199 q 660 23 750 61 q 449 -15 571 -15 m 353 1074 q 309 1050 333 1051 q 266 1061 285 1049 q 241 1094 247 1074 q 251 1136 235 1114 l 340 1260 q 460 1325 385 1325 q 581 1260 533 1325 l 668 1136 q 679 1094 685 1114 q 655 1061 674 1074 q 612 1050 636 1049 q 568 1074 588 1051 l 460 1194 l 353 1074 z "},"Ș":{"ha":890,"x_min":58,"x_max":849,"o":"m 449 -15 q 271 4 360 -15 q 117 61 182 24 q 68 117 78 82 q 72 186 58 153 q 117 233 86 219 q 190 226 147 247 q 314 179 246 194 q 449 164 382 164 q 592 195 549 164 q 636 274 636 226 q 606 338 636 314 q 499 378 575 361 l 342 411 q 79 683 79 467 q 129 847 79 776 q 269 956 179 917 q 476 994 358 994 q 629 976 554 994 q 761 921 704 957 q 804 867 796 900 q 799 803 813 833 q 755 760 786 772 q 678 769 724 747 q 581 804 632 793 q 475 815 529 815 q 340 781 388 815 q 292 693 292 747 q 321 628 292 653 q 422 588 350 603 l 579 554 q 849 290 849 496 q 799 130 849 199 q 660 23 750 61 q 449 -15 571 -15 m 500 -369 q 453 -390 479 -393 q 416 -367 428 -387 q 425 -315 404 -346 q 447 -267 440 -294 q 346 -175 346 -262 q 453 -86 346 -86 q 560 -190 560 -86 q 545 -285 560 -237 q 500 -369 531 -332 z "},"Ṡ":{"ha":890,"x_min":58,"x_max":849,"o":"m 449 -15 q 271 4 360 -15 q 117 61 182 24 q 68 117 78 82 q 72 186 58 153 q 117 233 86 219 q 190 226 147 247 q 314 179 246 194 q 449 164 382 164 q 592 195 549 164 q 636 274 636 226 q 606 338 636 314 q 499 378 575 361 l 342 411 q 79 683 79 467 q 129 847 79 776 q 269 956 179 917 q 476 994 358 994 q 629 976 554 994 q 761 921 704 957 q 804 867 796 900 q 799 803 813 833 q 755 760 786 772 q 678 769 724 747 q 581 804 632 793 q 475 815 529 815 q 340 781 388 815 q 292 693 292 747 q 321 628 292 653 q 422 588 350 603 l 579 554 q 849 290 849 496 q 799 130 849 199 q 660 23 750 61 q 449 -15 571 -15 m 460 1085 q 383 1110 410 1085 q 356 1185 356 1136 q 460 1282 356 1282 q 564 1185 564 1282 q 460 1085 564 1085 z "},"Ṣ":{"ha":890,"x_min":58,"x_max":849,"o":"m 449 -15 q 271 4 360 -15 q 117 61 182 24 q 68 117 78 82 q 72 186 58 153 q 117 233 86 219 q 190 226 147 247 q 314 179 246 194 q 449 164 382 164 q 592 195 549 164 q 636 274 636 226 q 606 338 636 314 q 499 378 575 361 l 342 411 q 79 683 79 467 q 129 847 79 776 q 269 956 179 917 q 476 994 358 994 q 629 976 554 994 q 761 921 704 957 q 804 867 796 900 q 799 803 813 833 q 755 760 786 772 q 678 769 724 747 q 581 804 632 793 q 475 815 529 815 q 340 781 388 815 q 292 693 292 747 q 321 628 292 653 q 422 588 350 603 l 579 554 q 849 290 849 496 q 799 130 849 199 q 660 23 750 61 q 449 -15 571 -15 m 454 -304 q 377 -278 404 -304 q 350 -206 350 -253 q 454 -107 350 -107 q 558 -206 558 -107 q 454 -304 558 -304 z "},"Ṩ":{"ha":890,"x_min":58,"x_max":849,"o":"m 449 -15 q 271 4 360 -15 q 117 61 182 24 q 68 117 78 82 q 72 186 58 153 q 117 233 86 219 q 190 226 147 247 q 314 179 246 194 q 449 164 382 164 q 592 195 549 164 q 636 274 636 226 q 606 338 636 314 q 499 378 575 361 l 342 411 q 79 683 79 467 q 129 847 79 776 q 269 956 179 917 q 476 994 358 994 q 629 976 554 994 q 761 921 704 957 q 804 867 796 900 q 799 803 813 833 q 755 760 786 772 q 678 769 724 747 q 581 804 632 793 q 475 815 529 815 q 340 781 388 815 q 292 693 292 747 q 321 628 292 653 q 422 588 350 603 l 579 554 q 849 290 849 496 q 799 130 849 199 q 660 23 750 61 q 449 -15 571 -15 m 454 -304 q 377 -278 404 -304 q 350 -206 350 -253 q 454 -107 350 -107 q 558 -206 558 -107 q 454 -304 558 -304 m 460 1085 q 383 1110 410 1085 q 356 1185 356 1136 q 460 1282 356 1282 q 564 1185 564 1282 q 460 1085 564 1085 z "},"ẞ":{"ha":1029,"x_min":99,"x_max":964,"o":"m 644 -15 q 432 31 515 -15 q 387 82 396 50 q 389 144 378 114 q 426 190 400 175 q 485 189 451 206 q 553 163 519 171 q 621 156 586 156 q 722 190 686 156 q 758 282 758 224 q 586 407 758 407 l 511 407 q 451 428 475 407 q 428 490 428 450 q 449 552 428 532 q 501 572 469 572 l 563 572 q 668 604 629 572 q 707 697 707 636 q 533 821 707 821 q 314 615 314 821 l 314 99 q 286 17 314 46 q 207 -12 258 -12 q 126 17 154 -12 q 99 99 99 46 l 99 617 q 214 897 99 801 q 544 993 329 993 q 815 922 715 993 q 914 726 914 850 q 880 598 914 654 q 783 510 846 542 q 915 424 867 488 q 964 267 964 360 q 879 60 964 135 q 644 -15 794 -15 z "},"Ə":{"ha":1106,"x_min":69,"x_max":1038,"o":"m 564 -15 q 292 51 401 -15 q 126 234 182 117 q 69 506 69 351 q 135 575 69 575 l 806 575 q 493 811 764 811 q 370 799 429 811 q 256 760 311 786 q 177 754 210 740 q 131 800 144 768 q 127 867 117 832 q 178 921 138 901 q 334 975 244 956 q 521 994 424 994 q 792 933 676 994 q 973 758 908 872 q 1038 489 1038 644 q 977 223 1038 336 q 810 47 917 110 q 564 -15 703 -15 m 553 160 q 725 222 660 160 q 807 406 790 283 l 294 406 q 553 160 326 160 z "},"T":{"ha":878,"x_min":-4,"x_max":883,"o":"m 440 -12 q 360 17 388 -12 q 332 99 332 46 l 332 801 l 86 801 q -4 890 -4 801 q 86 979 -4 979 l 793 979 q 883 890 883 979 q 793 801 883 801 l 547 801 l 547 99 q 520 17 547 46 q 440 -12 493 -12 z "},"Ŧ":{"ha":878,"x_min":-4,"x_max":883,"o":"m 440 -12 q 360 17 388 -12 q 332 99 332 46 l 332 801 l 86 801 q -4 890 -4 801 q 86 979 -4 979 l 793 979 q 883 890 883 979 q 793 801 883 801 l 547 801 l 547 99 q 520 17 547 46 q 440 -12 493 -12 m 210 418 q 129 494 129 418 q 210 572 129 572 l 665 572 q 746 494 746 572 q 665 418 746 418 l 210 418 z "},"Ť":{"ha":878,"x_min":-4,"x_max":883,"o":"m 440 -12 q 360 17 388 -12 q 332 99 332 46 l 332 801 l 86 801 q -4 890 -4 801 q 86 979 -4 979 l 793 979 q 883 890 883 979 q 793 801 883 801 l 547 801 l 547 99 q 520 17 547 46 q 440 -12 493 -12 m 439 1043 q 319 1108 365 1043 l 231 1232 q 220 1275 214 1254 q 245 1308 226 1296 q 288 1318 264 1319 q 332 1294 313 1317 l 439 1172 l 547 1294 q 590 1319 567 1317 q 633 1308 614 1321 q 658 1276 653 1296 q 647 1232 664 1256 l 560 1108 q 439 1043 514 1043 z "},"Ţ":{"ha":878,"x_min":-4,"x_max":883,"o":"m 440 -12 q 360 17 388 -12 q 332 99 332 46 l 332 801 l 86 801 q -4 890 -4 801 q 86 979 -4 979 l 793 979 q 883 890 883 979 q 793 801 883 801 l 547 801 l 547 99 q 520 17 547 46 q 440 -12 493 -12 m 439 -274 q 382 -270 411 -274 q 328 -258 353 -267 q 294 -233 303 -251 q 290 -197 286 -215 q 310 -169 294 -179 q 351 -168 326 -160 q 419 -179 383 -179 q 492 -143 492 -179 q 440 -115 492 -115 q 422 -116 431 -115 q 401 -118 413 -117 q 369 -112 382 -124 q 363 -75 358 -101 l 378 28 l 483 28 l 469 -47 q 478 -47 474 -47 q 576 -74 540 -47 q 611 -150 611 -101 q 563 -240 611 -206 q 439 -274 515 -274 z "},"Ț":{"ha":878,"x_min":-4,"x_max":883,"o":"m 440 -12 q 360 17 388 -12 q 332 99 332 46 l 332 801 l 86 801 q -4 890 -4 801 q 86 979 -4 979 l 793 979 q 883 890 883 979 q 793 801 883 801 l 547 801 l 547 99 q 520 17 547 46 q 440 -12 493 -12 m 486 -369 q 440 -390 465 -393 q 402 -367 414 -387 q 411 -315 390 -346 q 433 -267 426 -294 q 332 -175 332 -262 q 439 -86 332 -86 q 546 -190 546 -86 q 531 -285 546 -237 q 486 -369 517 -332 z "},"Ṭ":{"ha":878,"x_min":-4,"x_max":883,"o":"m 440 -12 q 360 17 388 -12 q 332 99 332 46 l 332 801 l 86 801 q -4 890 -4 801 q 86 979 -4 979 l 793 979 q 883 890 883 979 q 793 801 883 801 l 547 801 l 547 99 q 520 17 547 46 q 440 -12 493 -12 m 440 -304 q 363 -278 390 -304 q 336 -206 336 -253 q 440 -107 336 -107 q 544 -206 544 -107 q 440 -304 544 -304 z "},"Ṯ":{"ha":878,"x_min":-4,"x_max":883,"o":"m 440 -12 q 360 17 388 -12 q 332 99 332 46 l 332 801 l 86 801 q -4 890 -4 801 q 86 979 -4 979 l 793 979 q 883 890 883 979 q 793 801 883 801 l 547 801 l 547 99 q 520 17 547 46 q 440 -12 493 -12 m 267 -236 q 206 -176 206 -236 q 267 -118 206 -118 l 614 -118 q 676 -176 676 -118 q 614 -236 676 -236 l 267 -236 z "},"U":{"ha":1032,"x_min":92,"x_max":940,"o":"m 518 -15 q 201 92 310 -15 q 92 410 92 199 l 92 882 q 119 963 92 935 q 200 992 147 992 q 307 882 307 992 l 307 408 q 361 228 307 289 q 518 168 415 168 q 728 408 728 168 l 728 882 q 835 992 728 992 q 913 963 886 992 q 940 882 940 935 l 940 410 q 833 92 940 199 q 518 -15 726 -15 z "},"Ú":{"ha":1032,"x_min":92,"x_max":940,"o":"m 518 -15 q 201 92 310 -15 q 92 410 92 199 l 92 882 q 119 963 92 935 q 200 992 147 992 q 307 882 307 992 l 307 408 q 361 228 307 289 q 518 168 415 168 q 728 408 728 168 l 728 882 q 835 992 728 992 q 913 963 886 992 q 940 882 940 935 l 940 410 q 833 92 940 199 q 518 -15 726 -15 m 601 1072 q 557 1051 581 1051 q 515 1064 533 1050 q 490 1099 496 1078 q 500 1143 485 1121 l 600 1290 q 653 1325 622 1324 q 711 1308 685 1326 q 744 1260 738 1289 q 726 1204 751 1232 l 601 1072 z "},"Ŭ":{"ha":1032,"x_min":92,"x_max":940,"o":"m 518 -15 q 201 92 310 -15 q 92 410 92 199 l 92 882 q 119 963 92 935 q 200 992 147 992 q 307 882 307 992 l 307 408 q 361 228 307 289 q 518 168 415 168 q 728 408 728 168 l 728 882 q 835 992 728 992 q 913 963 886 992 q 940 882 940 935 l 940 410 q 833 92 940 199 q 518 -15 726 -15 m 518 1056 q 356 1102 424 1056 q 264 1232 288 1149 q 269 1285 254 1264 q 308 1308 283 1306 q 360 1295 344 1313 q 383 1261 375 1278 q 436 1196 399 1215 q 518 1176 474 1176 q 599 1196 563 1176 q 653 1261 636 1215 q 676 1295 661 1278 q 728 1308 692 1313 q 767 1285 753 1306 q 772 1232 782 1265 q 681 1102 749 1149 q 518 1056 613 1056 z "},"Û":{"ha":1032,"x_min":92,"x_max":940,"o":"m 518 -15 q 201 92 310 -15 q 92 410 92 199 l 92 882 q 119 963 92 935 q 200 992 147 992 q 307 882 307 992 l 307 408 q 361 228 307 289 q 518 168 415 168 q 728 408 728 168 l 728 882 q 835 992 728 992 q 913 963 886 992 q 940 882 940 935 l 940 410 q 833 92 940 199 q 518 -15 726 -15 m 411 1074 q 367 1050 392 1051 q 324 1061 343 1049 q 299 1094 306 1074 q 310 1136 293 1114 l 399 1260 q 518 1325 443 1325 q 639 1260 592 1325 l 726 1136 q 738 1094 743 1114 q 713 1061 732 1074 q 670 1050 694 1049 q 626 1074 646 1051 l 518 1194 l 411 1074 z "},"Ȕ":{"ha":1032,"x_min":92,"x_max":940,"o":"m 518 -15 q 201 92 310 -15 q 92 410 92 199 l 92 882 q 119 963 92 935 q 200 992 147 992 q 307 882 307 992 l 307 408 q 361 228 307 289 q 518 168 415 168 q 728 408 728 168 l 728 882 q 835 992 728 992 q 913 963 886 992 q 940 882 940 935 l 940 410 q 833 92 940 199 q 518 -15 726 -15 m 343 1071 l 226 1214 q 208 1272 201 1244 q 240 1314 215 1299 q 294 1324 265 1329 q 342 1286 324 1319 l 428 1131 q 431 1078 444 1101 q 391 1049 417 1054 q 343 1071 365 1044 m 558 1076 l 457 1214 q 442 1273 432 1246 q 478 1314 451 1300 q 533 1323 504 1328 q 578 1285 563 1318 l 657 1126 q 654 1074 671 1096 q 609 1050 638 1053 q 558 1076 581 1047 z "},"Ü":{"ha":1032,"x_min":92,"x_max":940,"o":"m 518 -15 q 201 92 310 -15 q 92 410 92 199 l 92 882 q 119 963 92 935 q 200 992 147 992 q 307 882 307 992 l 307 408 q 361 228 307 289 q 518 168 415 168 q 728 408 728 168 l 728 882 q 835 992 728 992 q 913 963 886 992 q 940 882 940 935 l 940 410 q 833 92 940 199 q 518 -15 726 -15 m 656 1078 q 557 1176 557 1078 q 656 1274 557 1274 q 753 1176 753 1274 q 656 1078 753 1078 m 382 1078 q 309 1103 335 1078 q 283 1176 283 1129 q 309 1249 283 1224 q 382 1274 335 1274 q 479 1176 479 1274 q 382 1078 479 1078 z "},"Ụ":{"ha":1032,"x_min":92,"x_max":940,"o":"m 518 -15 q 201 92 310 -15 q 92 410 92 199 l 92 882 q 119 963 92 935 q 200 992 147 992 q 307 882 307 992 l 307 408 q 361 228 307 289 q 518 168 415 168 q 728 408 728 168 l 728 882 q 835 992 728 992 q 913 963 886 992 q 940 882 940 935 l 940 410 q 833 92 940 199 q 518 -15 726 -15 m 518 -304 q 441 -278 468 -304 q 414 -206 414 -253 q 518 -107 414 -107 q 622 -206 622 -107 q 518 -304 622 -304 z "},"Ù":{"ha":1032,"x_min":92,"x_max":940,"o":"m 518 -15 q 201 92 310 -15 q 92 410 92 199 l 92 882 q 119 963 92 935 q 200 992 147 992 q 307 882 307 992 l 307 408 q 361 228 307 289 q 518 168 415 168 q 728 408 728 168 l 728 882 q 835 992 728 992 q 913 963 886 992 q 940 882 940 935 l 940 410 q 833 92 940 199 q 518 -15 726 -15 m 436 1072 l 311 1204 q 292 1260 285 1232 q 326 1308 300 1289 q 384 1325 353 1326 q 438 1290 415 1324 l 538 1143 q 547 1099 553 1121 q 522 1064 540 1078 q 481 1051 504 1050 q 436 1072 457 1051 z "},"Ủ":{"ha":1032,"x_min":92,"x_max":940,"o":"m 518 -15 q 201 92 310 -15 q 92 410 92 199 l 92 882 q 119 963 92 935 q 200 992 147 992 q 307 882 307 992 l 307 408 q 361 228 307 289 q 518 168 415 168 q 728 408 728 168 l 728 882 q 835 992 728 992 q 913 963 886 992 q 940 882 940 935 l 940 410 q 833 92 940 199 q 518 -15 726 -15 m 518 1050 q 457 1089 457 1050 q 475 1136 457 1119 q 511 1165 493 1153 q 529 1196 529 1178 q 479 1221 529 1221 q 435 1217 456 1221 q 371 1240 383 1206 q 371 1276 364 1260 q 403 1300 378 1292 q 461 1313 428 1308 q 532 1317 494 1317 q 644 1293 603 1317 q 685 1228 685 1269 q 669 1177 685 1196 q 632 1146 653 1158 q 596 1119 611 1133 q 581 1081 581 1104 q 518 1050 581 1050 z "},"Ư":{"ha":1032,"x_min":92,"x_max":1096,"o":"m 518 -15 q 201 92 310 -15 q 92 410 92 199 l 92 882 q 119 963 92 935 q 200 992 147 992 q 307 882 307 992 l 307 408 q 361 228 307 289 q 518 168 415 168 q 728 408 728 168 l 728 882 q 835 992 728 992 q 913 963 886 992 q 940 882 940 935 l 940 410 q 833 92 940 199 q 518 -15 726 -15 m 913 879 l 789 956 l 789 979 q 883 1006 853 979 q 914 1096 914 1033 q 1006 1165 914 1165 q 1096 1096 1096 1165 q 1046 949 1096 1008 q 913 879 996 889 z "},"Ứ":{"ha":1032,"x_min":92,"x_max":1096,"o":"m 518 -15 q 201 92 310 -15 q 92 410 92 199 l 92 882 q 119 963 92 935 q 200 992 147 992 q 307 882 307 992 l 307 408 q 361 228 307 289 q 518 168 415 168 q 728 408 728 168 l 728 882 q 835 992 728 992 q 913 963 886 992 q 940 882 940 935 l 940 410 q 833 92 940 199 q 518 -15 726 -15 m 913 879 l 789 956 l 789 979 q 883 1006 853 979 q 914 1096 914 1033 q 1006 1165 914 1165 q 1096 1096 1096 1165 q 1046 949 1096 1008 q 913 879 996 889 m 601 1072 q 557 1051 581 1051 q 515 1064 533 1050 q 490 1099 496 1078 q 500 1143 485 1121 l 600 1290 q 653 1325 622 1324 q 711 1308 685 1326 q 744 1260 738 1289 q 726 1204 751 1232 l 601 1072 z "},"Ự":{"ha":1032,"x_min":92,"x_max":1096,"o":"m 518 -15 q 201 92 310 -15 q 92 410 92 199 l 92 882 q 119 963 92 935 q 200 992 147 992 q 307 882 307 992 l 307 408 q 361 228 307 289 q 518 168 415 168 q 728 408 728 168 l 728 882 q 835 992 728 992 q 913 963 886 992 q 940 882 940 935 l 940 410 q 833 92 940 199 q 518 -15 726 -15 m 913 879 l 789 956 l 789 979 q 883 1006 853 979 q 914 1096 914 1033 q 1006 1165 914 1165 q 1096 1096 1096 1165 q 1046 949 1096 1008 q 913 879 996 889 m 518 -304 q 441 -278 468 -304 q 414 -206 414 -253 q 518 -107 414 -107 q 622 -206 622 -107 q 518 -304 622 -304 z "},"Ừ":{"ha":1032,"x_min":92,"x_max":1096,"o":"m 518 -15 q 201 92 310 -15 q 92 410 92 199 l 92 882 q 119 963 92 935 q 200 992 147 992 q 307 882 307 992 l 307 408 q 361 228 307 289 q 518 168 415 168 q 728 408 728 168 l 728 882 q 835 992 728 992 q 913 963 886 992 q 940 882 940 935 l 940 410 q 833 92 940 199 q 518 -15 726 -15 m 913 879 l 789 956 l 789 979 q 883 1006 853 979 q 914 1096 914 1033 q 1006 1165 914 1165 q 1096 1096 1096 1165 q 1046 949 1096 1008 q 913 879 996 889 m 436 1072 l 311 1204 q 292 1260 285 1232 q 326 1308 300 1289 q 384 1325 353 1326 q 438 1290 415 1324 l 538 1143 q 547 1099 553 1121 q 522 1064 540 1078 q 481 1051 504 1050 q 436 1072 457 1051 z "},"Ử":{"ha":1032,"x_min":92,"x_max":1096,"o":"m 518 -15 q 201 92 310 -15 q 92 410 92 199 l 92 882 q 119 963 92 935 q 200 992 147 992 q 307 882 307 992 l 307 408 q 361 228 307 289 q 518 168 415 168 q 728 408 728 168 l 728 882 q 835 992 728 992 q 913 963 886 992 q 940 882 940 935 l 940 410 q 833 92 940 199 q 518 -15 726 -15 m 913 879 l 789 956 l 789 979 q 883 1006 853 979 q 914 1096 914 1033 q 1006 1165 914 1165 q 1096 1096 1096 1165 q 1046 949 1096 1008 q 913 879 996 889 m 518 1050 q 457 1089 457 1050 q 475 1136 457 1119 q 511 1165 493 1153 q 529 1196 529 1178 q 479 1221 529 1221 q 435 1217 456 1221 q 371 1240 383 1206 q 371 1276 364 1260 q 403 1300 378 1292 q 461 1313 428 1308 q 532 1317 494 1317 q 644 1293 603 1317 q 685 1228 685 1269 q 669 1177 685 1196 q 632 1146 653 1158 q 596 1119 611 1133 q 581 1081 581 1104 q 518 1050 581 1050 z "},"Ữ":{"ha":1032,"x_min":92,"x_max":1096,"o":"m 518 -15 q 201 92 310 -15 q 92 410 92 199 l 92 882 q 119 963 92 935 q 200 992 147 992 q 307 882 307 992 l 307 408 q 361 228 307 289 q 518 168 415 168 q 728 408 728 168 l 728 882 q 835 992 728 992 q 913 963 886 992 q 940 882 940 935 l 940 410 q 833 92 940 199 q 518 -15 726 -15 m 913 879 l 789 956 l 789 979 q 883 1006 853 979 q 914 1096 914 1033 q 1006 1165 914 1165 q 1096 1096 1096 1165 q 1046 949 1096 1008 q 913 879 996 889 m 261 1060 q 224 1077 238 1061 q 217 1121 211 1093 q 278 1243 231 1199 q 393 1288 326 1288 q 457 1275 429 1288 q 508 1246 485 1263 q 555 1217 532 1229 q 606 1204 578 1204 q 651 1219 632 1204 q 679 1256 669 1233 q 703 1288 690 1276 q 740 1297 717 1299 q 776 1280 764 1296 q 785 1236 789 1264 q 723 1114 771 1158 q 607 1069 675 1069 q 544 1083 572 1069 q 492 1112 517 1096 q 445 1140 468 1128 q 394 1153 422 1153 q 350 1138 369 1153 q 322 1101 331 1124 q 298 1069 311 1081 q 261 1060 285 1058 z "},"Ű":{"ha":1032,"x_min":92,"x_max":940,"o":"m 518 -15 q 201 92 310 -15 q 92 410 92 199 l 92 882 q 119 963 92 935 q 200 992 147 992 q 307 882 307 992 l 307 408 q 361 228 307 289 q 518 168 415 168 q 728 408 728 168 l 728 882 q 835 992 728 992 q 913 963 886 992 q 940 882 940 935 l 940 410 q 833 92 940 199 q 518 -15 726 -15 m 693 1071 q 646 1049 672 1044 q 606 1077 619 1054 q 608 1131 592 1100 l 694 1286 q 742 1324 713 1319 q 796 1313 771 1328 q 828 1272 821 1299 q 811 1214 836 1244 l 693 1071 m 478 1076 q 427 1050 456 1047 q 383 1074 399 1053 q 381 1126 367 1096 l 458 1285 q 503 1323 474 1318 q 558 1314 532 1328 q 594 1273 585 1300 q 579 1214 604 1246 l 478 1076 z "},"Ȗ":{"ha":1032,"x_min":92,"x_max":940,"o":"m 518 -15 q 201 92 310 -15 q 92 410 92 199 l 92 882 q 119 963 92 935 q 200 992 147 992 q 307 882 307 992 l 307 408 q 361 228 307 289 q 518 168 415 168 q 728 408 728 168 l 728 882 q 835 992 728 992 q 913 963 886 992 q 940 882 940 935 l 940 410 q 833 92 940 199 q 518 -15 726 -15 m 308 1056 q 268 1079 282 1058 q 264 1132 254 1100 q 356 1262 288 1215 q 518 1308 425 1308 q 679 1262 610 1308 q 771 1132 749 1215 q 767 1080 781 1101 q 726 1056 753 1058 q 676 1069 692 1051 q 653 1103 661 1086 q 599 1168 636 1149 q 518 1188 563 1188 q 437 1168 474 1188 q 383 1103 400 1149 q 359 1069 375 1086 q 308 1056 343 1053 z "},"Ū":{"ha":1032,"x_min":92,"x_max":940,"o":"m 518 -15 q 201 92 310 -15 q 92 410 92 199 l 92 882 q 119 963 92 935 q 200 992 147 992 q 307 882 307 992 l 307 408 q 361 228 307 289 q 518 168 415 168 q 728 408 728 168 l 728 882 q 835 992 728 992 q 913 963 886 992 q 940 882 940 935 l 940 410 q 833 92 940 199 q 518 -15 726 -15 m 324 1113 q 263 1172 263 1113 q 324 1231 263 1231 l 713 1231 q 775 1172 775 1231 q 713 1113 775 1113 l 324 1113 z "},"Ṻ":{"ha":1032,"x_min":92,"x_max":940,"o":"m 518 -15 q 201 92 310 -15 q 92 410 92 199 l 92 882 q 119 963 92 935 q 200 992 147 992 q 307 882 307 992 l 307 408 q 361 228 307 289 q 518 168 415 168 q 728 408 728 168 l 728 882 q 835 992 728 992 q 913 963 886 992 q 940 882 940 935 l 940 410 q 833 92 940 199 q 518 -15 726 -15 m 382 1260 q 309 1278 335 1260 q 283 1333 283 1297 q 309 1389 283 1369 q 382 1408 335 1408 q 479 1333 479 1408 q 382 1260 479 1260 m 656 1260 q 557 1333 557 1260 q 656 1408 557 1408 q 753 1333 753 1408 q 656 1260 753 1260 m 351 1086 q 285 1146 285 1086 q 351 1204 285 1204 l 685 1204 q 751 1146 751 1204 q 685 1086 751 1086 l 351 1086 z "},"Ų":{"ha":1032,"x_min":92,"x_max":940,"o":"m 518 -15 q 201 92 310 -15 q 92 410 92 199 l 92 882 q 119 963 92 935 q 200 992 147 992 q 307 882 307 992 l 307 408 q 361 228 307 289 q 518 168 415 168 q 728 408 728 168 l 728 882 q 835 992 728 992 q 913 963 886 992 q 940 882 940 935 l 940 410 q 833 92 940 199 q 518 -15 726 -15 m 565 -274 q 438 -233 483 -274 q 392 -124 392 -192 q 432 -12 392 -62 q 539 63 472 38 l 597 0 q 540 -41 561 -14 q 518 -100 518 -68 q 540 -149 518 -132 q 594 -167 563 -167 q 633 -161 614 -167 q 678 -167 663 -156 q 697 -197 694 -178 q 690 -234 700 -215 q 656 -261 679 -253 q 610 -272 633 -269 q 565 -274 586 -274 z "},"Ů":{"ha":1032,"x_min":92,"x_max":940,"o":"m 518 -15 q 201 92 310 -15 q 92 410 92 199 l 92 882 q 119 963 92 935 q 200 992 147 992 q 307 882 307 992 l 307 408 q 361 228 307 289 q 518 168 415 168 q 728 408 728 168 l 728 882 q 835 992 728 992 q 913 963 886 992 q 940 882 940 935 l 940 410 q 833 92 940 199 q 518 -15 726 -15 m 518 1046 q 426 1069 467 1046 q 361 1133 385 1093 q 338 1222 338 1172 q 361 1312 338 1272 q 426 1374 385 1351 q 518 1397 467 1397 q 610 1374 569 1397 q 675 1312 651 1351 q 699 1222 699 1272 q 675 1133 699 1172 q 610 1069 651 1093 q 518 1046 569 1046 m 518 1136 q 578 1160 554 1136 q 603 1222 603 1185 q 578 1283 603 1260 q 518 1307 554 1307 q 458 1283 482 1307 q 433 1222 433 1260 q 458 1160 433 1185 q 518 1136 482 1136 z "},"Ũ":{"ha":1032,"x_min":92,"x_max":940,"o":"m 518 -15 q 201 92 310 -15 q 92 410 92 199 l 92 882 q 119 963 92 935 q 200 992 147 992 q 307 882 307 992 l 307 408 q 361 228 307 289 q 518 168 415 168 q 728 408 728 168 l 728 882 q 835 992 728 992 q 913 963 886 992 q 940 882 940 935 l 940 410 q 833 92 940 199 q 518 -15 726 -15 m 251 1060 q 211 1076 225 1061 q 203 1119 197 1092 q 272 1244 221 1200 q 394 1288 322 1288 q 490 1267 446 1288 q 572 1225 533 1246 q 646 1204 610 1204 q 698 1219 678 1204 q 728 1257 718 1233 q 751 1288 738 1278 q 785 1297 764 1299 q 825 1281 811 1296 q 833 1238 839 1265 q 765 1113 815 1157 q 643 1069 714 1069 q 547 1090 590 1069 q 466 1132 504 1111 q 390 1153 428 1153 q 338 1138 358 1153 q 308 1100 318 1124 q 285 1069 299 1079 q 251 1060 272 1058 z "},"Ṹ":{"ha":1032,"x_min":92,"x_max":940,"o":"m 518 -15 q 201 92 310 -15 q 92 410 92 199 l 92 882 q 119 963 92 935 q 200 992 147 992 q 307 882 307 992 l 307 408 q 361 228 307 289 q 518 168 415 168 q 728 408 728 168 l 728 882 q 835 992 728 992 q 913 963 886 992 q 940 882 940 935 l 940 410 q 833 92 940 199 q 518 -15 726 -15 m 582 1253 q 529 1229 558 1225 q 484 1256 500 1233 q 483 1310 468 1279 l 540 1417 q 588 1456 557 1451 q 646 1444 618 1460 q 682 1400 674 1428 q 663 1343 690 1372 l 582 1253 m 317 1061 q 282 1078 294 1063 q 276 1118 269 1093 q 331 1197 292 1169 q 425 1224 371 1224 q 494 1210 463 1224 q 552 1183 525 1197 q 606 1169 579 1169 q 640 1176 625 1169 q 663 1194 654 1182 q 687 1219 674 1210 q 719 1228 700 1229 q 756 1211 743 1226 q 760 1169 768 1196 q 706 1091 746 1118 q 613 1064 667 1064 q 542 1078 574 1064 q 484 1106 511 1092 q 432 1119 457 1119 q 375 1093 390 1119 q 351 1069 364 1078 q 317 1061 338 1060 z "},"V":{"ha":1010,"x_min":8,"x_max":1003,"o":"m 506 -12 q 433 8 461 -12 q 386 69 404 28 l 36 847 q 37 951 8 910 q 124 992 65 992 q 195 970 171 992 q 238 907 219 949 l 510 276 l 782 908 q 824 970 799 949 q 894 992 850 992 q 976 951 949 992 q 975 847 1003 910 l 625 69 q 578 8 606 28 q 506 -12 551 -12 z "},"W":{"ha":1556,"x_min":44,"x_max":1513,"o":"m 461 -12 q 388 9 415 -12 q 344 75 361 31 l 64 864 q 71 954 44 917 q 161 992 97 992 q 230 971 206 992 q 269 906 254 950 l 469 310 l 681 904 q 721 970 696 949 q 786 992 746 992 q 849 970 825 992 q 889 903 872 949 l 1093 299 l 1301 906 q 1340 970 1315 949 q 1408 992 1365 992 q 1488 954 1463 992 q 1493 864 1513 917 l 1210 74 q 1167 9 1194 31 q 1096 -12 1140 -12 q 1025 9 1051 -12 q 982 75 999 31 l 779 650 l 574 74 q 531 9 557 31 q 461 -12 506 -12 z "},"Ẃ":{"ha":1556,"x_min":44,"x_max":1513,"o":"m 461 -12 q 388 9 415 -12 q 344 75 361 31 l 64 864 q 71 954 44 917 q 161 992 97 992 q 230 971 206 992 q 269 906 254 950 l 469 310 l 681 904 q 721 970 696 949 q 786 992 746 992 q 849 970 825 992 q 889 903 872 949 l 1093 299 l 1301 906 q 1340 970 1315 949 q 1408 992 1365 992 q 1488 954 1463 992 q 1493 864 1513 917 l 1210 74 q 1167 9 1194 31 q 1096 -12 1140 -12 q 1025 9 1051 -12 q 982 75 999 31 l 779 650 l 574 74 q 531 9 557 31 q 461 -12 506 -12 m 863 1072 q 818 1051 842 1051 q 776 1064 794 1050 q 751 1099 757 1078 q 761 1143 746 1121 l 861 1290 q 915 1325 883 1324 q 972 1308 946 1326 q 1006 1260 999 1289 q 988 1204 1013 1232 l 863 1072 z "},"Ŵ":{"ha":1556,"x_min":44,"x_max":1513,"o":"m 461 -12 q 388 9 415 -12 q 344 75 361 31 l 64 864 q 71 954 44 917 q 161 992 97 992 q 230 971 206 992 q 269 906 254 950 l 469 310 l 681 904 q 721 970 696 949 q 786 992 746 992 q 849 970 825 992 q 889 903 872 949 l 1093 299 l 1301 906 q 1340 970 1315 949 q 1408 992 1365 992 q 1488 954 1463 992 q 1493 864 1513 917 l 1210 74 q 1167 9 1194 31 q 1096 -12 1140 -12 q 1025 9 1051 -12 q 982 75 999 31 l 779 650 l 574 74 q 531 9 557 31 q 461 -12 506 -12 m 672 1074 q 628 1050 653 1051 q 585 1061 604 1049 q 560 1094 567 1074 q 571 1136 554 1114 l 660 1260 q 779 1325 704 1325 q 900 1260 853 1325 l 988 1136 q 999 1094 1004 1114 q 974 1061 993 1074 q 931 1050 956 1049 q 888 1074 907 1051 l 779 1194 l 672 1074 z "},"Ẅ":{"ha":1556,"x_min":44,"x_max":1513,"o":"m 461 -12 q 388 9 415 -12 q 344 75 361 31 l 64 864 q 71 954 44 917 q 161 992 97 992 q 230 971 206 992 q 269 906 254 950 l 469 310 l 681 904 q 721 970 696 949 q 786 992 746 992 q 849 970 825 992 q 889 903 872 949 l 1093 299 l 1301 906 q 1340 970 1315 949 q 1408 992 1365 992 q 1488 954 1463 992 q 1493 864 1513 917 l 1210 74 q 1167 9 1194 31 q 1096 -12 1140 -12 q 1025 9 1051 -12 q 982 75 999 31 l 779 650 l 574 74 q 531 9 557 31 q 461 -12 506 -12 m 917 1078 q 818 1176 818 1078 q 917 1274 818 1274 q 1014 1176 1014 1274 q 917 1078 1014 1078 m 643 1078 q 570 1103 596 1078 q 544 1176 544 1129 q 570 1249 544 1224 q 643 1274 596 1274 q 740 1176 740 1274 q 643 1078 740 1078 z "},"Ẁ":{"ha":1556,"x_min":44,"x_max":1513,"o":"m 461 -12 q 388 9 415 -12 q 344 75 361 31 l 64 864 q 71 954 44 917 q 161 992 97 992 q 230 971 206 992 q 269 906 254 950 l 469 310 l 681 904 q 721 970 696 949 q 786 992 746 992 q 849 970 825 992 q 889 903 872 949 l 1093 299 l 1301 906 q 1340 970 1315 949 q 1408 992 1365 992 q 1488 954 1463 992 q 1493 864 1513 917 l 1210 74 q 1167 9 1194 31 q 1096 -12 1140 -12 q 1025 9 1051 -12 q 982 75 999 31 l 779 650 l 574 74 q 531 9 557 31 q 461 -12 506 -12 m 697 1072 l 572 1204 q 553 1260 546 1232 q 588 1308 561 1289 q 645 1325 614 1326 q 699 1290 676 1324 l 799 1143 q 808 1099 814 1121 q 783 1064 801 1078 q 742 1051 765 1050 q 697 1072 718 1051 z "},"X":{"ha":951,"x_min":56,"x_max":896,"o":"m 160 -12 q 91 10 118 -12 q 60 67 64 32 q 82 138 56 101 l 353 496 l 94 840 q 71 912 67 878 q 101 969 75 946 q 169 992 128 992 q 282 922 232 992 l 476 653 l 669 922 q 722 975 696 958 q 783 992 749 992 q 851 969 824 992 q 882 913 878 947 q 858 840 886 878 l 599 496 l 868 138 q 892 67 896 101 q 862 10 889 32 q 792 -12 835 -12 q 733 4 758 -12 q 679 58 707 21 l 475 338 l 272 58 q 219 4 246 21 q 160 -12 193 -12 z "},"Y":{"ha":876,"x_min":28,"x_max":851,"o":"m 439 -12 q 358 17 386 -12 q 331 100 331 46 l 331 442 l 47 844 q 31 908 28 874 q 58 967 33 942 q 129 992 83 992 q 242 922 194 992 l 442 633 l 642 922 q 694 976 668 960 q 754 992 719 992 q 823 969 799 992 q 849 912 847 946 q 826 842 851 878 l 546 440 l 546 100 q 439 -12 546 -12 z "},"Ý":{"ha":876,"x_min":28,"x_max":851,"o":"m 439 -12 q 358 17 386 -12 q 331 100 331 46 l 331 442 l 47 844 q 31 908 28 874 q 58 967 33 942 q 129 992 83 992 q 242 922 194 992 l 442 633 l 642 922 q 694 976 668 960 q 754 992 719 992 q 823 969 799 992 q 849 912 847 946 q 826 842 851 878 l 546 440 l 546 100 q 439 -12 546 -12 m 521 1072 q 476 1051 500 1051 q 434 1064 453 1050 q 410 1099 415 1078 q 419 1143 404 1121 l 519 1290 q 573 1325 542 1324 q 631 1308 604 1326 q 664 1260 657 1289 q 646 1204 671 1232 l 521 1072 z "},"Ŷ":{"ha":876,"x_min":28,"x_max":851,"o":"m 439 -12 q 358 17 386 -12 q 331 100 331 46 l 331 442 l 47 844 q 31 908 28 874 q 58 967 33 942 q 129 992 83 992 q 242 922 194 992 l 442 633 l 642 922 q 694 976 668 960 q 754 992 719 992 q 823 969 799 992 q 849 912 847 946 q 826 842 851 878 l 546 440 l 546 100 q 439 -12 546 -12 m 331 1074 q 287 1050 311 1051 q 244 1061 263 1049 q 219 1094 225 1074 q 229 1136 213 1114 l 318 1260 q 438 1325 363 1325 q 558 1260 511 1325 l 646 1136 q 657 1094 663 1114 q 633 1061 651 1074 q 590 1050 614 1049 q 546 1074 565 1051 l 438 1194 l 331 1074 z "},"Ÿ":{"ha":876,"x_min":28,"x_max":851,"o":"m 439 -12 q 358 17 386 -12 q 331 100 331 46 l 331 442 l 47 844 q 31 908 28 874 q 58 967 33 942 q 129 992 83 992 q 242 922 194 992 l 442 633 l 642 922 q 694 976 668 960 q 754 992 719 992 q 823 969 799 992 q 849 912 847 946 q 826 842 851 878 l 546 440 l 546 100 q 439 -12 546 -12 m 575 1078 q 476 1176 476 1078 q 575 1274 476 1274 q 672 1176 672 1274 q 575 1078 672 1078 m 301 1078 q 228 1103 254 1078 q 203 1176 203 1129 q 228 1249 203 1224 q 301 1274 254 1274 q 399 1176 399 1274 q 301 1078 399 1078 z "},"Ẏ":{"ha":876,"x_min":28,"x_max":851,"o":"m 439 -12 q 358 17 386 -12 q 331 100 331 46 l 331 442 l 47 844 q 31 908 28 874 q 58 967 33 942 q 129 992 83 992 q 242 922 194 992 l 442 633 l 642 922 q 694 976 668 960 q 754 992 719 992 q 823 969 799 992 q 849 912 847 946 q 826 842 851 878 l 546 440 l 546 100 q 439 -12 546 -12 m 438 1085 q 360 1110 388 1085 q 333 1185 333 1136 q 438 1282 333 1282 q 542 1185 542 1282 q 438 1085 542 1085 z "},"Ỵ":{"ha":876,"x_min":28,"x_max":851,"o":"m 439 -12 q 358 17 386 -12 q 331 100 331 46 l 331 442 l 47 844 q 31 908 28 874 q 58 967 33 942 q 129 992 83 992 q 242 922 194 992 l 442 633 l 642 922 q 694 976 668 960 q 754 992 719 992 q 823 969 799 992 q 849 912 847 946 q 826 842 851 878 l 546 440 l 546 100 q 439 -12 546 -12 m 440 -304 q 363 -278 390 -304 q 336 -206 336 -253 q 440 -107 336 -107 q 544 -206 544 -107 q 440 -304 544 -304 z "},"Ỳ":{"ha":876,"x_min":28,"x_max":851,"o":"m 439 -12 q 358 17 386 -12 q 331 100 331 46 l 331 442 l 47 844 q 31 908 28 874 q 58 967 33 942 q 129 992 83 992 q 242 922 194 992 l 442 633 l 642 922 q 694 976 668 960 q 754 992 719 992 q 823 969 799 992 q 849 912 847 946 q 826 842 851 878 l 546 440 l 546 100 q 439 -12 546 -12 m 356 1072 l 231 1204 q 212 1260 204 1232 q 246 1308 219 1289 q 303 1325 272 1326 q 357 1290 335 1324 l 457 1143 q 466 1099 472 1121 q 442 1064 460 1078 q 400 1051 424 1050 q 356 1072 376 1051 z "},"Ƴ":{"ha":894,"x_min":28,"x_max":979,"o":"m 439 -12 q 358 17 386 -12 q 331 101 331 46 l 331 442 l 47 844 q 31 908 28 874 q 58 967 33 942 q 131 992 83 992 q 197 974 175 992 q 250 910 218 956 l 442 633 l 590 853 q 701 958 639 922 q 849 993 764 993 q 944 976 910 993 q 979 906 979 960 q 963 853 979 871 q 924 838 946 836 q 905 838 914 838 q 888 839 896 839 q 828 824 857 839 q 775 774 799 810 l 546 442 l 546 101 q 439 -12 546 -12 z "},"Ỷ":{"ha":876,"x_min":28,"x_max":851,"o":"m 439 -12 q 358 17 386 -12 q 331 100 331 46 l 331 442 l 47 844 q 31 908 28 874 q 58 967 33 942 q 129 992 83 992 q 242 922 194 992 l 442 633 l 642 922 q 694 976 668 960 q 754 992 719 992 q 823 969 799 992 q 849 912 847 946 q 826 842 851 878 l 546 440 l 546 100 q 439 -12 546 -12 m 438 1050 q 376 1089 376 1050 q 394 1136 376 1119 q 431 1165 413 1153 q 449 1196 449 1178 q 399 1221 449 1221 q 354 1217 375 1221 q 290 1240 303 1206 q 290 1276 283 1260 q 322 1300 297 1292 q 381 1313 347 1308 q 451 1317 414 1317 q 563 1293 522 1317 q 604 1228 604 1269 q 588 1177 604 1196 q 551 1146 572 1158 q 515 1119 531 1133 q 500 1081 500 1104 q 438 1050 500 1050 z "},"Ȳ":{"ha":876,"x_min":28,"x_max":851,"o":"m 439 -12 q 358 17 386 -12 q 331 100 331 46 l 331 442 l 47 844 q 31 908 28 874 q 58 967 33 942 q 129 992 83 992 q 242 922 194 992 l 442 633 l 642 922 q 694 976 668 960 q 754 992 719 992 q 823 969 799 992 q 849 912 847 946 q 826 842 851 878 l 546 440 l 546 100 q 439 -12 546 -12 m 243 1113 q 182 1172 182 1113 q 243 1231 182 1231 l 632 1231 q 694 1172 694 1231 q 632 1113 694 1113 l 243 1113 z "},"Ỹ":{"ha":876,"x_min":28,"x_max":851,"o":"m 439 -12 q 358 17 386 -12 q 331 100 331 46 l 331 442 l 47 844 q 31 908 28 874 q 58 967 33 942 q 129 992 83 992 q 242 922 194 992 l 442 633 l 642 922 q 694 976 668 960 q 754 992 719 992 q 823 969 799 992 q 849 912 847 946 q 826 842 851 878 l 546 440 l 546 100 q 439 -12 546 -12 m 171 1060 q 131 1076 144 1061 q 122 1119 117 1092 q 191 1244 140 1200 q 314 1288 242 1288 q 409 1267 365 1288 q 491 1225 453 1246 q 565 1204 529 1204 q 617 1219 597 1204 q 647 1257 638 1233 q 670 1288 657 1278 q 704 1297 683 1299 q 744 1281 731 1296 q 753 1238 758 1265 q 684 1113 735 1157 q 563 1069 633 1069 q 467 1090 510 1069 q 385 1132 424 1111 q 310 1153 347 1153 q 258 1138 278 1153 q 228 1100 238 1124 q 205 1069 218 1079 q 171 1060 192 1058 z "},"Z":{"ha":854,"x_min":51,"x_max":838,"o":"m 163 0 q 79 30 107 0 q 56 107 51 60 q 97 203 60 154 l 554 800 l 146 800 q 51 890 51 800 q 146 979 51 979 l 704 979 q 788 949 760 979 q 813 873 817 919 q 769 776 808 826 l 314 179 l 743 179 q 838 90 838 179 q 743 0 838 0 l 163 0 z "},"Ź":{"ha":854,"x_min":51,"x_max":838,"o":"m 163 0 q 79 30 107 0 q 56 107 51 60 q 97 203 60 154 l 554 800 l 146 800 q 51 890 51 800 q 146 979 51 979 l 704 979 q 788 949 760 979 q 813 873 817 919 q 769 776 808 826 l 314 179 l 743 179 q 838 90 838 179 q 743 0 838 0 l 163 0 m 524 1072 q 479 1051 503 1051 q 437 1064 456 1050 q 413 1099 418 1078 q 422 1143 407 1121 l 522 1290 q 576 1325 544 1324 q 633 1308 607 1326 q 667 1260 660 1289 q 649 1204 674 1232 l 524 1072 z "},"Ž":{"ha":854,"x_min":51,"x_max":838,"o":"m 163 0 q 79 30 107 0 q 56 107 51 60 q 97 203 60 154 l 554 800 l 146 800 q 51 890 51 800 q 146 979 51 979 l 704 979 q 788 949 760 979 q 813 873 817 919 q 769 776 808 826 l 314 179 l 743 179 q 838 90 838 179 q 743 0 838 0 l 163 0 m 440 1043 q 321 1108 367 1043 l 232 1232 q 222 1275 215 1254 q 247 1308 228 1296 q 290 1318 265 1319 q 333 1294 314 1317 l 440 1172 l 549 1294 q 592 1319 568 1317 q 635 1308 615 1321 q 660 1276 654 1296 q 649 1232 665 1256 l 561 1108 q 440 1043 515 1043 z "},"Ż":{"ha":854,"x_min":51,"x_max":838,"o":"m 163 0 q 79 30 107 0 q 56 107 51 60 q 97 203 60 154 l 554 800 l 146 800 q 51 890 51 800 q 146 979 51 979 l 704 979 q 788 949 760 979 q 813 873 817 919 q 769 776 808 826 l 314 179 l 743 179 q 838 90 838 179 q 743 0 838 0 l 163 0 m 440 1085 q 363 1110 390 1085 q 336 1185 336 1136 q 440 1282 336 1282 q 544 1185 544 1282 q 440 1085 544 1085 z "},"Ẓ":{"ha":854,"x_min":51,"x_max":838,"o":"m 163 0 q 79 30 107 0 q 56 107 51 60 q 97 203 60 154 l 554 800 l 146 800 q 51 890 51 800 q 146 979 51 979 l 704 979 q 788 949 760 979 q 813 873 817 919 q 769 776 808 826 l 314 179 l 743 179 q 838 90 838 179 q 743 0 838 0 l 163 0 m 442 -304 q 365 -278 392 -304 q 338 -206 338 -253 q 442 -107 338 -107 q 546 -206 546 -107 q 442 -304 546 -304 z "},"a":{"ha":774,"x_min":50,"x_max":697,"o":"m 311 -15 q 176 14 235 -15 q 84 93 118 43 q 50 206 50 143 q 89 324 50 279 q 215 387 128 368 q 447 406 303 406 l 497 406 l 497 429 q 469 516 497 490 q 375 542 442 542 q 293 533 338 542 q 197 503 249 524 q 132 501 158 486 q 97 545 106 515 q 102 606 89 575 q 154 650 115 636 q 277 685 219 675 q 383 696 335 696 q 619 624 542 696 q 697 403 697 553 l 697 94 q 600 -12 697 -12 q 501 94 501 -12 l 501 103 q 431 17 481 49 q 311 -15 382 -15 m 358 125 q 457 165 417 125 q 497 269 497 206 l 497 297 l 449 297 q 297 278 342 297 q 253 214 253 260 q 280 150 253 175 q 358 125 307 125 z "},"á":{"ha":774,"x_min":50,"x_max":697,"o":"m 311 -15 q 176 14 235 -15 q 84 93 118 43 q 50 206 50 143 q 89 324 50 279 q 215 387 128 368 q 447 406 303 406 l 497 406 l 497 429 q 469 516 497 490 q 375 542 442 542 q 293 533 338 542 q 197 503 249 524 q 132 501 158 486 q 97 545 106 515 q 102 606 89 575 q 154 650 115 636 q 277 685 219 675 q 383 696 335 696 q 619 624 542 696 q 697 403 697 553 l 697 94 q 600 -12 697 -12 q 501 94 501 -12 l 501 103 q 431 17 481 49 q 311 -15 382 -15 m 358 125 q 457 165 417 125 q 497 269 497 206 l 497 297 l 449 297 q 297 278 342 297 q 253 214 253 260 q 280 150 253 175 q 358 125 307 125 m 469 781 q 430 755 453 758 q 386 763 407 751 q 356 797 365 775 q 360 843 347 818 l 458 1039 q 497 1078 474 1069 q 547 1079 521 1086 q 591 1054 572 1072 q 614 1012 610 1036 q 599 961 618 988 l 469 781 z "},"ă":{"ha":774,"x_min":50,"x_max":697,"o":"m 311 -15 q 176 14 235 -15 q 84 93 118 43 q 50 206 50 143 q 89 324 50 279 q 215 387 128 368 q 447 406 303 406 l 497 406 l 497 429 q 469 516 497 490 q 375 542 442 542 q 293 533 338 542 q 197 503 249 524 q 132 501 158 486 q 97 545 106 515 q 102 606 89 575 q 154 650 115 636 q 277 685 219 675 q 383 696 335 696 q 619 624 542 696 q 697 403 697 553 l 697 94 q 600 -12 697 -12 q 501 94 501 -12 l 501 103 q 431 17 481 49 q 311 -15 382 -15 m 358 125 q 457 165 417 125 q 497 269 497 206 l 497 297 l 449 297 q 297 278 342 297 q 253 214 253 260 q 280 150 253 175 q 358 125 307 125 m 393 767 q 275 795 324 767 q 197 872 226 824 q 158 976 168 919 q 168 1030 153 1010 q 210 1051 183 1050 q 253 1038 238 1053 q 279 993 269 1022 q 321 915 290 942 q 393 889 351 889 q 465 915 435 889 q 507 993 496 942 q 533 1038 517 1022 q 576 1051 549 1053 q 618 1030 603 1050 q 628 976 633 1010 q 590 872 619 919 q 511 795 560 824 q 393 767 463 767 z "},"ắ":{"ha":774,"x_min":50,"x_max":697,"o":"m 311 -15 q 176 14 235 -15 q 84 93 118 43 q 50 206 50 143 q 89 324 50 279 q 215 387 128 368 q 447 406 303 406 l 497 406 l 497 429 q 469 516 497 490 q 375 542 442 542 q 293 533 338 542 q 197 503 249 524 q 132 501 158 486 q 97 545 106 515 q 102 606 89 575 q 154 650 115 636 q 277 685 219 675 q 383 696 335 696 q 619 624 542 696 q 697 403 697 553 l 697 94 q 600 -12 697 -12 q 501 94 501 -12 l 501 103 q 431 17 481 49 q 311 -15 382 -15 m 358 125 q 457 165 417 125 q 497 269 497 206 l 497 297 l 449 297 q 297 278 342 297 q 253 214 253 260 q 280 150 253 175 q 358 125 307 125 m 449 954 q 396 931 425 928 q 351 958 367 935 q 350 1011 335 981 l 407 1121 q 455 1158 424 1154 q 513 1147 486 1163 q 549 1103 540 1131 q 529 1044 557 1075 l 449 954 m 393 767 q 240 810 301 767 q 156 928 178 854 q 157 976 146 957 q 190 996 168 994 q 256 957 232 1001 q 305 901 271 922 q 393 879 339 879 q 481 901 447 879 q 531 957 515 922 q 558 990 543 981 q 596 996 572 999 q 629 976 618 994 q 632 931 640 958 q 548 812 611 857 q 393 767 485 767 z "},"ặ":{"ha":774,"x_min":50,"x_max":697,"o":"m 311 -15 q 176 14 235 -15 q 84 93 118 43 q 50 206 50 143 q 89 324 50 279 q 215 387 128 368 q 447 406 303 406 l 497 406 l 497 429 q 469 516 497 490 q 375 542 442 542 q 293 533 338 542 q 197 503 249 524 q 132 501 158 486 q 97 545 106 515 q 102 606 89 575 q 154 650 115 636 q 277 685 219 675 q 383 696 335 696 q 619 624 542 696 q 697 403 697 553 l 697 94 q 600 -12 697 -12 q 501 94 501 -12 l 501 103 q 431 17 481 49 q 311 -15 382 -15 m 358 125 q 457 165 417 125 q 497 269 497 206 l 497 297 l 449 297 q 297 278 342 297 q 253 214 253 260 q 280 150 253 175 q 358 125 307 125 m 388 -304 q 310 -278 338 -304 q 283 -206 283 -253 q 388 -107 283 -107 q 492 -206 492 -107 q 388 -304 492 -304 m 393 767 q 275 795 324 767 q 197 872 226 824 q 158 976 168 919 q 168 1030 153 1010 q 210 1051 183 1050 q 253 1038 238 1053 q 279 993 269 1022 q 321 915 290 942 q 393 889 351 889 q 465 915 435 889 q 507 993 496 942 q 533 1038 517 1022 q 576 1051 549 1053 q 618 1030 603 1050 q 628 976 633 1010 q 590 872 619 919 q 511 795 560 824 q 393 767 463 767 z "},"ằ":{"ha":774,"x_min":50,"x_max":697,"o":"m 311 -15 q 176 14 235 -15 q 84 93 118 43 q 50 206 50 143 q 89 324 50 279 q 215 387 128 368 q 447 406 303 406 l 497 406 l 497 429 q 469 516 497 490 q 375 542 442 542 q 293 533 338 542 q 197 503 249 524 q 132 501 158 486 q 97 545 106 515 q 102 606 89 575 q 154 650 115 636 q 277 685 219 675 q 383 696 335 696 q 619 624 542 696 q 697 403 697 553 l 697 94 q 600 -12 697 -12 q 501 94 501 -12 l 501 103 q 431 17 481 49 q 311 -15 382 -15 m 358 125 q 457 165 417 125 q 497 269 497 206 l 497 297 l 449 297 q 297 278 342 297 q 253 214 253 260 q 280 150 253 175 q 358 125 307 125 m 338 954 l 257 1044 q 238 1103 229 1075 q 273 1147 246 1131 q 331 1158 300 1163 q 379 1121 363 1154 l 436 1011 q 435 958 451 981 q 390 931 419 935 q 338 954 361 928 m 393 767 q 239 810 301 767 q 156 928 176 854 q 157 976 146 957 q 190 996 168 994 q 256 957 232 1001 q 305 901 271 922 q 393 879 339 879 q 481 901 447 879 q 531 957 515 922 q 558 990 543 981 q 596 996 572 999 q 629 976 618 994 q 632 931 640 958 q 548 812 611 857 q 393 767 485 767 z "},"ẳ":{"ha":774,"x_min":50,"x_max":697,"o":"m 311 -15 q 176 14 235 -15 q 84 93 118 43 q 50 206 50 143 q 89 324 50 279 q 215 387 128 368 q 447 406 303 406 l 497 406 l 497 429 q 469 516 497 490 q 375 542 442 542 q 293 533 338 542 q 197 503 249 524 q 132 501 158 486 q 97 545 106 515 q 102 606 89 575 q 154 650 115 636 q 277 685 219 675 q 383 696 335 696 q 619 624 542 696 q 697 403 697 553 l 697 94 q 600 -12 697 -12 q 501 94 501 -12 l 501 103 q 431 17 481 49 q 311 -15 382 -15 m 358 125 q 457 165 417 125 q 497 269 497 206 l 497 297 l 449 297 q 297 278 342 297 q 253 214 253 260 q 280 150 253 175 q 358 125 307 125 m 439 944 q 395 937 419 933 q 360 954 371 940 q 367 985 349 968 q 400 1039 400 1013 q 357 1067 400 1067 q 317 1063 338 1067 q 261 1086 272 1053 q 293 1138 249 1124 q 345 1148 318 1144 q 403 1151 372 1151 q 501 1132 465 1151 q 536 1072 536 1113 q 506 1001 536 1033 q 439 944 475 968 m 393 767 q 239 810 301 767 q 156 928 176 854 q 157 976 146 957 q 190 996 168 994 q 256 957 232 1001 q 305 901 271 922 q 393 879 339 879 q 481 901 447 879 q 531 957 515 922 q 558 990 543 981 q 596 996 572 999 q 629 976 618 994 q 632 931 640 958 q 548 812 611 857 q 393 767 485 767 z "},"ẵ":{"ha":774,"x_min":50,"x_max":697,"o":"m 311 -15 q 176 14 235 -15 q 84 93 118 43 q 50 206 50 143 q 89 324 50 279 q 215 387 128 368 q 447 406 303 406 l 497 406 l 497 429 q 469 516 497 490 q 375 542 442 542 q 293 533 338 542 q 197 503 249 524 q 132 501 158 486 q 97 545 106 515 q 102 606 89 575 q 154 650 115 636 q 277 685 219 675 q 383 696 335 696 q 619 624 542 696 q 697 403 697 553 l 697 94 q 600 -12 697 -12 q 501 94 501 -12 l 501 103 q 431 17 481 49 q 311 -15 382 -15 m 358 125 q 457 165 417 125 q 497 269 497 206 l 497 297 l 449 297 q 297 278 342 297 q 253 214 253 260 q 280 150 253 175 q 358 125 307 125 m 192 988 q 157 1004 169 989 q 151 1044 144 1019 q 206 1123 167 1096 q 300 1150 246 1150 q 369 1136 338 1150 q 427 1109 400 1122 q 481 1096 454 1096 q 515 1101 500 1096 q 538 1121 529 1107 q 562 1146 549 1136 q 594 1154 575 1156 q 631 1138 618 1153 q 635 1096 643 1122 q 581 1017 621 1044 q 488 990 542 990 q 417 1004 449 990 q 359 1032 386 1018 q 307 1046 332 1046 q 250 1019 265 1046 q 226 995 239 1004 q 192 988 213 986 m 393 767 q 253 797 313 767 q 167 876 194 828 q 159 921 151 901 q 189 949 167 940 q 229 949 214 956 q 263 926 244 943 q 313 892 281 904 q 393 879 346 879 q 473 892 440 879 q 524 926 506 904 q 556 950 540 944 q 597 949 572 956 q 628 922 619 940 q 622 881 636 904 q 535 798 594 829 q 393 767 475 767 z "},"ǎ":{"ha":774,"x_min":50,"x_max":697,"o":"m 311 -15 q 176 14 235 -15 q 84 93 118 43 q 50 206 50 143 q 89 324 50 279 q 215 387 128 368 q 447 406 303 406 l 497 406 l 497 429 q 469 516 497 490 q 375 542 442 542 q 293 533 338 542 q 197 503 249 524 q 132 501 158 486 q 97 545 106 515 q 102 606 89 575 q 154 650 115 636 q 277 685 219 675 q 383 696 335 696 q 619 624 542 696 q 697 403 697 553 l 697 94 q 600 -12 697 -12 q 501 94 501 -12 l 501 103 q 431 17 481 49 q 311 -15 382 -15 m 358 125 q 457 165 417 125 q 497 269 497 206 l 497 297 l 449 297 q 297 278 342 297 q 253 214 253 260 q 280 150 253 175 q 358 125 307 125 m 393 743 q 326 763 354 743 q 278 819 297 783 l 188 985 q 181 1031 174 1010 q 208 1063 189 1051 q 250 1071 228 1074 q 288 1044 272 1068 l 393 885 l 499 1044 q 536 1071 514 1068 q 578 1063 558 1074 q 605 1031 597 1051 q 599 985 613 1010 l 510 819 q 461 763 490 783 q 393 743 432 743 z "},"â":{"ha":774,"x_min":50,"x_max":697,"o":"m 311 -15 q 176 14 235 -15 q 84 93 118 43 q 50 206 50 143 q 89 324 50 279 q 215 387 128 368 q 447 406 303 406 l 497 406 l 497 429 q 469 516 497 490 q 375 542 442 542 q 293 533 338 542 q 197 503 249 524 q 132 501 158 486 q 97 545 106 515 q 102 606 89 575 q 154 650 115 636 q 277 685 219 675 q 383 696 335 696 q 619 624 542 696 q 697 403 697 553 l 697 94 q 600 -12 697 -12 q 501 94 501 -12 l 501 103 q 431 17 481 49 q 311 -15 382 -15 m 358 125 q 457 165 417 125 q 497 269 497 206 l 497 297 l 449 297 q 297 278 342 297 q 253 214 253 260 q 280 150 253 175 q 358 125 307 125 m 599 842 q 605 795 613 817 q 578 763 597 774 q 536 755 558 751 q 499 782 514 758 l 393 942 l 288 782 q 250 755 272 758 q 208 763 228 751 q 181 795 189 774 q 188 842 174 817 l 278 1007 q 393 1082 318 1082 q 510 1007 469 1082 l 599 842 z "},"ấ":{"ha":774,"x_min":50,"x_max":792,"o":"m 311 -15 q 176 14 235 -15 q 84 93 118 43 q 50 206 50 143 q 89 324 50 279 q 215 387 128 368 q 447 406 303 406 l 497 406 l 497 429 q 469 516 497 490 q 375 542 442 542 q 293 533 338 542 q 197 503 249 524 q 132 501 158 486 q 97 545 106 515 q 102 606 89 575 q 154 650 115 636 q 277 685 219 675 q 383 696 335 696 q 619 624 542 696 q 697 403 697 553 l 697 94 q 600 -12 697 -12 q 501 94 501 -12 l 501 103 q 431 17 481 49 q 311 -15 382 -15 m 358 125 q 457 165 417 125 q 497 269 497 206 l 497 297 l 449 297 q 297 278 342 297 q 253 214 253 260 q 280 150 253 175 q 358 125 307 125 m 663 911 q 616 889 642 886 q 577 913 590 892 q 581 967 564 935 l 661 1113 q 706 1147 679 1143 q 755 1137 732 1151 q 785 1097 778 1122 q 769 1044 792 1072 l 663 911 m 286 778 q 231 754 260 750 q 188 783 201 758 q 196 838 175 807 l 275 957 q 328 1007 300 993 q 393 1021 357 1021 q 459 1007 431 1021 q 511 957 488 993 l 590 838 q 599 783 611 807 q 557 754 586 758 q 500 778 528 750 l 393 892 l 286 778 z "},"ậ":{"ha":774,"x_min":50,"x_max":697,"o":"m 311 -15 q 176 14 235 -15 q 84 93 118 43 q 50 206 50 143 q 89 324 50 279 q 215 387 128 368 q 447 406 303 406 l 497 406 l 497 429 q 469 516 497 490 q 375 542 442 542 q 293 533 338 542 q 197 503 249 524 q 132 501 158 486 q 97 545 106 515 q 102 606 89 575 q 154 650 115 636 q 277 685 219 675 q 383 696 335 696 q 619 624 542 696 q 697 403 697 553 l 697 94 q 600 -12 697 -12 q 501 94 501 -12 l 501 103 q 431 17 481 49 q 311 -15 382 -15 m 358 125 q 457 165 417 125 q 497 269 497 206 l 497 297 l 449 297 q 297 278 342 297 q 253 214 253 260 q 280 150 253 175 q 358 125 307 125 m 388 -304 q 310 -278 338 -304 q 283 -206 283 -253 q 388 -107 283 -107 q 492 -206 492 -107 q 388 -304 492 -304 m 599 842 q 605 795 613 817 q 578 763 597 774 q 536 755 558 751 q 499 782 514 758 l 393 942 l 288 782 q 250 755 272 758 q 208 763 228 751 q 181 795 189 774 q 188 842 174 817 l 278 1007 q 393 1082 318 1082 q 510 1007 469 1082 l 599 842 z "},"ầ":{"ha":774,"x_min":50,"x_max":717,"o":"m 311 -15 q 176 14 235 -15 q 84 93 118 43 q 50 206 50 143 q 89 324 50 279 q 215 387 128 368 q 447 406 303 406 l 497 406 l 497 429 q 469 516 497 490 q 375 542 442 542 q 293 533 338 542 q 197 503 249 524 q 132 501 158 486 q 97 545 106 515 q 102 606 89 575 q 154 650 115 636 q 277 685 219 675 q 383 696 335 696 q 619 624 542 696 q 697 403 697 553 l 697 94 q 600 -12 697 -12 q 501 94 501 -12 l 501 103 q 431 17 481 49 q 311 -15 382 -15 m 358 125 q 457 165 417 125 q 497 269 497 206 l 497 297 l 449 297 q 297 278 342 297 q 253 214 253 260 q 280 150 253 175 q 358 125 307 125 m 619 911 l 513 1044 q 497 1097 490 1072 q 527 1137 504 1122 q 576 1147 550 1151 q 619 1113 603 1143 l 700 967 q 703 913 717 935 q 665 889 690 892 q 619 911 639 886 m 286 778 q 231 754 260 750 q 188 783 201 758 q 196 838 175 807 l 275 957 q 328 1007 300 993 q 393 1021 357 1021 q 459 1007 431 1021 q 511 957 488 993 l 590 838 q 599 783 611 807 q 557 754 586 758 q 500 778 528 750 l 393 892 l 286 778 z "},"ẩ":{"ha":774,"x_min":50,"x_max":750,"o":"m 311 -15 q 176 14 235 -15 q 84 93 118 43 q 50 206 50 143 q 89 324 50 279 q 215 387 128 368 q 447 406 303 406 l 497 406 l 497 429 q 469 516 497 490 q 375 542 442 542 q 293 533 338 542 q 197 503 249 524 q 132 501 158 486 q 97 545 106 515 q 102 606 89 575 q 154 650 115 636 q 277 685 219 675 q 383 696 335 696 q 619 624 542 696 q 697 403 697 553 l 697 94 q 600 -12 697 -12 q 501 94 501 -12 l 501 103 q 431 17 481 49 q 311 -15 382 -15 m 358 125 q 457 165 417 125 q 497 269 497 206 l 497 297 l 449 297 q 297 278 342 297 q 253 214 253 260 q 280 150 253 175 q 358 125 307 125 m 640 913 q 601 907 621 901 q 572 928 581 913 q 579 960 563 943 q 607 990 596 976 q 618 1021 618 1004 q 574 1051 618 1051 q 533 1046 554 1051 q 478 1069 490 1036 q 510 1122 465 1110 q 562 1132 535 1129 q 619 1135 589 1135 q 716 1115 682 1135 q 750 1053 750 1096 q 714 973 750 1011 q 640 913 678 935 m 286 778 q 231 754 260 750 q 188 783 201 758 q 196 838 175 807 l 275 957 q 328 1007 300 993 q 393 1021 357 1021 q 459 1007 431 1021 q 511 957 488 993 l 590 838 q 599 783 611 807 q 557 754 586 758 q 500 778 528 750 l 393 892 l 286 778 z "},"ẫ":{"ha":774,"x_min":50,"x_max":697,"o":"m 311 -15 q 176 14 235 -15 q 84 93 118 43 q 50 206 50 143 q 89 324 50 279 q 215 387 128 368 q 447 406 303 406 l 497 406 l 497 429 q 469 516 497 490 q 375 542 442 542 q 293 533 338 542 q 197 503 249 524 q 132 501 158 486 q 97 545 106 515 q 102 606 89 575 q 154 650 115 636 q 277 685 219 675 q 383 696 335 696 q 619 624 542 696 q 697 403 697 553 l 697 94 q 600 -12 697 -12 q 501 94 501 -12 l 501 103 q 431 17 481 49 q 311 -15 382 -15 m 358 125 q 457 165 417 125 q 497 269 497 206 l 497 297 l 449 297 q 297 278 342 297 q 253 214 253 260 q 280 150 253 175 q 358 125 307 125 m 192 988 q 157 1004 169 989 q 151 1044 144 1019 q 206 1123 167 1096 q 300 1150 246 1150 q 369 1136 338 1150 q 427 1109 400 1122 q 481 1096 454 1096 q 515 1101 500 1096 q 538 1121 529 1107 q 562 1146 549 1136 q 594 1154 575 1156 q 631 1138 618 1153 q 635 1096 643 1122 q 581 1017 621 1044 q 488 990 542 990 q 417 1004 449 990 q 359 1032 386 1018 q 307 1046 332 1046 q 250 1019 265 1046 q 226 995 239 1004 q 192 988 213 986 m 271 767 q 219 755 243 747 q 187 784 196 763 q 196 828 178 806 l 265 910 q 324 954 292 942 q 393 967 356 967 q 464 954 432 967 q 521 910 496 942 l 590 828 q 599 784 607 806 q 567 755 590 763 q 515 767 544 747 l 393 861 l 271 767 z "},"ȁ":{"ha":774,"x_min":50,"x_max":697,"o":"m 311 -15 q 176 14 235 -15 q 84 93 118 43 q 50 206 50 143 q 89 324 50 279 q 215 387 128 368 q 447 406 303 406 l 497 406 l 497 429 q 469 516 497 490 q 375 542 442 542 q 293 533 338 542 q 197 503 249 524 q 132 501 158 486 q 97 545 106 515 q 102 606 89 575 q 154 650 115 636 q 277 685 219 675 q 383 696 335 696 q 619 624 542 696 q 697 403 697 553 l 697 94 q 600 -12 697 -12 q 501 94 501 -12 l 501 103 q 431 17 481 49 q 311 -15 382 -15 m 358 125 q 457 165 417 125 q 497 269 497 206 l 497 297 l 449 297 q 297 278 342 297 q 253 214 253 260 q 280 150 253 175 q 358 125 307 125 m 446 788 l 360 982 q 359 1045 343 1019 q 406 1079 375 1071 q 467 1074 438 1088 q 506 1022 496 1061 l 551 819 q 546 778 557 794 q 515 756 535 761 q 476 759 494 751 q 446 788 457 767 m 224 788 l 136 982 q 135 1045 119 1019 q 183 1079 151 1071 q 243 1074 214 1088 q 281 1022 272 1061 l 329 819 q 323 778 335 794 q 292 756 311 761 q 253 759 272 751 q 224 788 233 767 z "},"ä":{"ha":774,"x_min":50,"x_max":697,"o":"m 311 -15 q 176 14 235 -15 q 84 93 118 43 q 50 206 50 143 q 89 324 50 279 q 215 387 128 368 q 447 406 303 406 l 497 406 l 497 429 q 469 516 497 490 q 375 542 442 542 q 293 533 338 542 q 197 503 249 524 q 132 501 158 486 q 97 545 106 515 q 102 606 89 575 q 154 650 115 636 q 277 685 219 675 q 383 696 335 696 q 619 624 542 696 q 697 403 697 553 l 697 94 q 600 -12 697 -12 q 501 94 501 -12 l 501 103 q 431 17 481 49 q 311 -15 382 -15 m 358 125 q 457 165 417 125 q 497 269 497 206 l 497 297 l 449 297 q 297 278 342 297 q 253 214 253 260 q 280 150 253 175 q 358 125 307 125 m 531 813 q 432 911 432 813 q 531 1008 432 1008 q 628 911 628 1008 q 531 813 628 813 m 257 813 q 184 838 210 813 q 158 911 158 864 q 184 983 158 958 q 257 1008 210 1008 q 354 911 354 1008 q 257 813 354 813 z "},"ȧ":{"ha":774,"x_min":50,"x_max":697,"o":"m 311 -15 q 176 14 235 -15 q 84 93 118 43 q 50 206 50 143 q 89 324 50 279 q 215 387 128 368 q 447 406 303 406 l 497 406 l 497 429 q 469 516 497 490 q 375 542 442 542 q 293 533 338 542 q 197 503 249 524 q 132 501 158 486 q 97 545 106 515 q 102 606 89 575 q 154 650 115 636 q 277 685 219 675 q 383 696 335 696 q 619 624 542 696 q 697 403 697 553 l 697 94 q 600 -12 697 -12 q 501 94 501 -12 l 501 103 q 431 17 481 49 q 311 -15 382 -15 m 358 125 q 457 165 417 125 q 497 269 497 206 l 497 297 l 449 297 q 297 278 342 297 q 253 214 253 260 q 280 150 253 175 q 358 125 307 125 m 393 813 q 316 839 343 813 q 289 913 289 865 q 393 1011 289 1011 q 497 913 497 1011 q 393 813 497 813 z "},"ạ":{"ha":774,"x_min":50,"x_max":697,"o":"m 311 -15 q 176 14 235 -15 q 84 93 118 43 q 50 206 50 143 q 89 324 50 279 q 215 387 128 368 q 447 406 303 406 l 497 406 l 497 429 q 469 516 497 490 q 375 542 442 542 q 293 533 338 542 q 197 503 249 524 q 132 501 158 486 q 97 545 106 515 q 102 606 89 575 q 154 650 115 636 q 277 685 219 675 q 383 696 335 696 q 619 624 542 696 q 697 403 697 553 l 697 94 q 600 -12 697 -12 q 501 94 501 -12 l 501 103 q 431 17 481 49 q 311 -15 382 -15 m 358 125 q 457 165 417 125 q 497 269 497 206 l 497 297 l 449 297 q 297 278 342 297 q 253 214 253 260 q 280 150 253 175 q 358 125 307 125 m 388 -304 q 310 -278 338 -304 q 283 -206 283 -253 q 388 -107 283 -107 q 492 -206 492 -107 q 388 -304 492 -304 z "},"à":{"ha":774,"x_min":50,"x_max":697,"o":"m 311 -15 q 176 14 235 -15 q 84 93 118 43 q 50 206 50 143 q 89 324 50 279 q 215 387 128 368 q 447 406 303 406 l 497 406 l 497 429 q 469 516 497 490 q 375 542 442 542 q 293 533 338 542 q 197 503 249 524 q 132 501 158 486 q 97 545 106 515 q 102 606 89 575 q 154 650 115 636 q 277 685 219 675 q 383 696 335 696 q 619 624 542 696 q 697 403 697 553 l 697 94 q 600 -12 697 -12 q 501 94 501 -12 l 501 103 q 431 17 481 49 q 311 -15 382 -15 m 358 125 q 457 165 417 125 q 497 269 497 206 l 497 297 l 449 297 q 297 278 342 297 q 253 214 253 260 q 280 150 253 175 q 358 125 307 125 m 318 781 l 188 961 q 175 1024 164 994 q 216 1071 186 1054 q 278 1082 246 1088 q 328 1039 310 1076 l 426 843 q 431 797 439 818 q 401 764 422 775 q 357 756 381 753 q 318 781 333 758 z "},"ả":{"ha":774,"x_min":50,"x_max":697,"o":"m 311 -15 q 176 14 235 -15 q 84 93 118 43 q 50 206 50 143 q 89 324 50 279 q 215 387 128 368 q 447 406 303 406 l 497 406 l 497 429 q 469 516 497 490 q 375 542 442 542 q 293 533 338 542 q 197 503 249 524 q 132 501 158 486 q 97 545 106 515 q 102 606 89 575 q 154 650 115 636 q 277 685 219 675 q 383 696 335 696 q 619 624 542 696 q 697 403 697 553 l 697 94 q 600 -12 697 -12 q 501 94 501 -12 l 501 103 q 431 17 481 49 q 311 -15 382 -15 m 358 125 q 457 165 417 125 q 497 269 497 206 l 497 297 l 449 297 q 297 278 342 297 q 253 214 253 260 q 280 150 253 175 q 358 125 307 125 m 393 760 q 332 800 332 760 q 350 859 332 838 q 386 897 368 881 q 404 936 404 914 q 354 968 404 968 q 333 967 343 968 q 310 963 322 965 q 269 960 283 956 q 246 983 254 964 q 279 1049 228 1031 q 337 1063 306 1058 q 403 1067 368 1067 q 518 1040 476 1067 q 560 964 560 1014 q 544 908 560 929 q 507 870 528 886 q 470 838 486 854 q 454 796 454 821 q 393 760 454 760 z "},"ȃ":{"ha":774,"x_min":50,"x_max":697,"o":"m 311 -15 q 176 14 235 -15 q 84 93 118 43 q 50 206 50 143 q 89 324 50 279 q 215 387 128 368 q 447 406 303 406 l 497 406 l 497 429 q 469 516 497 490 q 375 542 442 542 q 293 533 338 542 q 197 503 249 524 q 132 501 158 486 q 97 545 106 515 q 102 606 89 575 q 154 650 115 636 q 277 685 219 675 q 383 696 335 696 q 619 624 542 696 q 697 403 697 553 l 697 94 q 600 -12 697 -12 q 501 94 501 -12 l 501 103 q 431 17 481 49 q 311 -15 382 -15 m 358 125 q 457 165 417 125 q 497 269 497 206 l 497 297 l 449 297 q 297 278 342 297 q 253 214 253 260 q 280 150 253 175 q 358 125 307 125 m 210 764 q 168 785 183 765 q 158 839 153 806 q 197 943 168 896 q 275 1019 226 990 q 393 1049 324 1049 q 511 1019 463 1049 q 589 943 560 990 q 628 839 618 896 q 618 785 633 806 q 576 764 603 765 q 533 777 549 763 q 507 822 517 792 q 465 899 496 874 q 393 925 435 925 q 321 899 351 925 q 279 822 290 874 q 253 777 269 792 q 210 764 238 763 z "},"ā":{"ha":774,"x_min":50,"x_max":697,"o":"m 311 -15 q 176 14 235 -15 q 84 93 118 43 q 50 206 50 143 q 89 324 50 279 q 215 387 128 368 q 447 406 303 406 l 497 406 l 497 429 q 469 516 497 490 q 375 542 442 542 q 293 533 338 542 q 197 503 249 524 q 132 501 158 486 q 97 545 106 515 q 102 606 89 575 q 154 650 115 636 q 277 685 219 675 q 383 696 335 696 q 619 624 542 696 q 697 403 697 553 l 697 94 q 600 -12 697 -12 q 501 94 501 -12 l 501 103 q 431 17 481 49 q 311 -15 382 -15 m 358 125 q 457 165 417 125 q 497 269 497 206 l 497 297 l 449 297 q 297 278 342 297 q 253 214 253 260 q 280 150 253 175 q 358 125 307 125 m 219 849 q 158 907 158 849 q 219 967 158 967 l 567 967 q 629 907 629 967 q 567 849 629 849 l 219 849 z "},"ą":{"ha":774,"x_min":50,"x_max":736,"o":"m 601 -274 q 473 -233 518 -274 q 428 -124 428 -192 q 451 -37 428 -78 q 515 32 474 3 q 501 94 501 57 l 501 103 q 431 17 481 49 q 311 -15 382 -15 q 176 14 235 -15 q 84 93 118 43 q 50 206 50 143 q 89 324 50 279 q 215 387 128 368 q 447 406 303 406 l 497 406 l 497 429 q 469 516 497 490 q 375 542 442 542 q 293 533 338 542 q 197 503 249 524 q 132 501 158 486 q 97 545 106 515 q 102 606 89 575 q 154 650 115 636 q 277 685 219 675 q 383 696 335 696 q 619 624 542 696 q 697 403 697 553 l 697 94 q 678 24 697 49 q 624 -11 658 -1 q 574 -45 593 -21 q 554 -100 554 -69 q 576 -149 554 -132 q 631 -167 597 -167 q 669 -161 650 -167 q 715 -167 699 -156 q 733 -197 731 -178 q 726 -234 736 -215 q 692 -261 715 -253 q 644 -272 668 -269 q 601 -274 621 -274 m 358 125 q 457 165 417 125 q 497 269 497 206 l 497 297 l 449 297 q 297 278 342 297 q 253 214 253 260 q 280 150 253 175 q 358 125 307 125 z "},"å":{"ha":774,"x_min":50,"x_max":697,"o":"m 311 -15 q 176 14 235 -15 q 84 93 118 43 q 50 206 50 143 q 89 324 50 279 q 215 387 128 368 q 447 406 303 406 l 497 406 l 497 429 q 469 516 497 490 q 375 542 442 542 q 293 533 338 542 q 197 503 249 524 q 132 501 158 486 q 97 545 106 515 q 102 606 89 575 q 154 650 115 636 q 277 685 219 675 q 383 696 335 696 q 619 624 542 696 q 697 403 697 553 l 697 94 q 600 -12 697 -12 q 501 94 501 -12 l 501 103 q 431 17 481 49 q 311 -15 382 -15 m 358 125 q 457 165 417 125 q 497 269 497 206 l 497 297 l 449 297 q 297 278 342 297 q 253 214 253 260 q 280 150 253 175 q 358 125 307 125 m 393 757 q 301 781 342 757 q 236 844 260 804 q 213 933 213 883 q 236 1023 213 983 q 301 1085 260 1063 q 393 1108 342 1108 q 485 1085 444 1108 q 550 1023 526 1063 q 574 933 574 983 q 550 844 574 883 q 485 781 526 804 q 393 757 444 757 m 393 847 q 453 872 429 847 q 478 933 478 896 q 453 994 478 969 q 393 1018 429 1018 q 333 994 357 1018 q 308 933 308 969 q 333 872 308 896 q 393 847 357 847 z "},"ǻ":{"ha":774,"x_min":50,"x_max":697,"o":"m 311 -15 q 176 14 235 -15 q 84 93 118 43 q 50 206 50 143 q 89 324 50 279 q 215 387 128 368 q 447 406 303 406 l 497 406 l 497 429 q 469 516 497 490 q 375 542 442 542 q 293 533 338 542 q 197 503 249 524 q 132 501 158 486 q 97 545 106 515 q 102 606 89 575 q 154 650 115 636 q 277 685 219 675 q 383 696 335 696 q 619 624 542 696 q 697 403 697 553 l 697 94 q 600 -12 697 -12 q 501 94 501 -12 l 501 103 q 431 17 481 49 q 311 -15 382 -15 m 358 125 q 457 165 417 125 q 497 269 497 206 l 497 297 l 449 297 q 297 278 342 297 q 253 214 253 260 q 280 150 253 175 q 358 125 307 125 m 393 749 q 271 797 321 749 q 221 914 221 844 q 244 999 221 961 q 306 1060 267 1038 q 393 1082 344 1082 q 438 1076 417 1082 q 479 1058 460 1069 l 571 1143 q 612 1159 590 1161 q 648 1142 633 1157 q 664 1108 663 1128 q 644 1071 665 1089 l 547 988 q 565 914 565 953 q 515 797 565 844 q 393 749 465 749 m 393 831 q 453 854 429 831 q 478 914 478 878 q 453 975 478 951 q 393 999 429 999 q 333 975 357 999 q 308 914 308 951 q 333 854 308 878 q 393 831 357 831 z "},"ã":{"ha":774,"x_min":50,"x_max":697,"o":"m 311 -15 q 176 14 235 -15 q 84 93 118 43 q 50 206 50 143 q 89 324 50 279 q 215 387 128 368 q 447 406 303 406 l 497 406 l 497 429 q 469 516 497 490 q 375 542 442 542 q 293 533 338 542 q 197 503 249 524 q 132 501 158 486 q 97 545 106 515 q 102 606 89 575 q 154 650 115 636 q 277 685 219 675 q 383 696 335 696 q 619 624 542 696 q 697 403 697 553 l 697 94 q 600 -12 697 -12 q 501 94 501 -12 l 501 103 q 431 17 481 49 q 311 -15 382 -15 m 358 125 q 457 165 417 125 q 497 269 497 206 l 497 297 l 449 297 q 297 278 342 297 q 253 214 253 260 q 280 150 253 175 q 358 125 307 125 m 163 803 q 126 819 138 804 q 118 863 114 833 q 144 936 125 897 q 199 1003 164 975 q 289 1031 235 1031 q 351 1017 324 1031 q 400 988 378 1004 q 444 960 422 972 q 492 947 467 947 q 538 963 518 947 q 565 1004 557 978 q 586 1032 574 1022 q 624 1040 599 1042 q 668 981 678 1039 q 641 906 661 944 q 585 840 621 867 q 497 813 550 813 q 435 825 463 813 q 386 854 408 838 q 342 883 364 871 q 294 896 319 896 q 249 881 268 896 q 221 839 229 865 q 202 813 215 824 q 163 803 189 801 z "},"æ":{"ha":1206,"x_min":50,"x_max":1164,"o":"m 329 -15 q 181 14 243 -15 q 85 93 119 43 q 50 206 50 143 q 90 324 50 279 q 217 387 129 368 q 453 406 306 406 l 496 406 l 496 431 q 467 515 496 489 q 375 542 439 542 q 294 533 338 542 q 199 503 250 524 q 133 501 160 486 q 99 545 107 515 q 103 606 90 575 q 156 650 117 636 q 278 685 219 675 q 383 696 336 696 q 524 674 464 696 q 618 603 583 651 q 719 673 660 650 q 842 696 778 696 q 1011 654 939 696 q 1124 536 1083 613 q 1164 354 1164 460 l 1164 347 q 1099 297 1164 297 l 699 297 q 753 179 708 217 q 885 142 799 142 q 960 149 918 142 q 1042 176 1003 157 q 1110 184 1082 196 q 1148 144 1138 172 q 1147 87 1158 117 q 1101 38 1136 57 q 994 -1 1053 13 q 879 -15 935 -15 q 699 20 778 -15 q 579 126 621 56 q 483 22 547 58 q 329 -15 419 -15 m 850 557 q 699 406 717 557 l 990 406 q 850 557 982 557 m 358 125 q 458 167 419 125 q 496 274 496 208 l 496 297 l 449 297 q 297 278 342 297 q 253 214 253 260 q 280 150 253 175 q 358 125 307 125 z "},"ǽ":{"ha":1206,"x_min":50,"x_max":1164,"o":"m 329 -15 q 181 14 243 -15 q 85 93 119 43 q 50 206 50 143 q 90 324 50 279 q 217 387 129 368 q 453 406 306 406 l 496 406 l 496 431 q 467 515 496 489 q 375 542 439 542 q 294 533 338 542 q 199 503 250 524 q 133 501 160 486 q 99 545 107 515 q 103 606 90 575 q 156 650 117 636 q 278 685 219 675 q 383 696 336 696 q 524 674 464 696 q 618 603 583 651 q 719 673 660 650 q 842 696 778 696 q 1011 654 939 696 q 1124 536 1083 613 q 1164 354 1164 460 l 1164 347 q 1099 297 1164 297 l 699 297 q 753 179 708 217 q 885 142 799 142 q 960 149 918 142 q 1042 176 1003 157 q 1110 184 1082 196 q 1148 144 1138 172 q 1147 87 1158 117 q 1101 38 1136 57 q 994 -1 1053 13 q 879 -15 935 -15 q 699 20 778 -15 q 579 126 621 56 q 483 22 547 58 q 329 -15 419 -15 m 850 557 q 699 406 717 557 l 990 406 q 850 557 982 557 m 358 125 q 458 167 419 125 q 496 274 496 208 l 496 297 l 449 297 q 297 278 342 297 q 253 214 253 260 q 280 150 253 175 q 358 125 307 125 m 653 781 q 613 755 636 758 q 569 763 590 751 q 540 797 549 775 q 543 843 531 818 l 642 1039 q 681 1078 657 1069 q 730 1079 704 1086 q 774 1054 756 1072 q 797 1012 793 1036 q 782 961 801 988 l 653 781 z "},"b":{"ha":847,"x_min":81,"x_max":800,"o":"m 501 -15 q 374 15 431 -15 q 288 99 317 46 l 288 94 q 185 -12 288 -12 q 81 94 81 -12 l 81 885 q 186 992 81 992 q 290 885 290 992 l 290 590 q 377 667 321 639 q 501 696 433 696 q 658 653 590 696 q 763 531 725 610 q 800 342 800 451 q 763 152 800 232 q 658 28 725 72 q 501 -15 590 -15 m 439 142 q 547 190 506 142 q 589 342 589 239 q 547 491 589 443 q 439 539 506 539 q 329 491 371 539 q 288 342 288 443 q 329 190 288 239 q 439 142 371 142 z "},"ɓ":{"ha":847,"x_min":81,"x_max":800,"o":"m 501 -15 q 374 15 431 -15 q 288 99 317 46 l 288 94 q 185 -12 288 -12 q 81 94 81 -12 l 81 706 q 154 915 81 836 q 369 993 228 993 q 460 970 435 993 q 486 911 486 947 q 472 848 486 871 q 432 826 458 825 q 416 828 425 828 q 394 829 407 829 q 318 799 346 829 q 290 707 290 768 l 290 590 q 377 667 321 639 q 501 696 433 696 q 658 653 590 696 q 763 531 725 610 q 800 342 800 451 q 763 152 800 232 q 658 28 725 72 q 501 -15 590 -15 m 439 142 q 547 190 506 142 q 589 342 589 239 q 547 491 589 443 q 439 539 506 539 q 329 491 371 539 q 288 342 288 443 q 329 190 288 239 q 439 142 371 142 z "},"c":{"ha":664,"x_min":47,"x_max":651,"o":"m 413 -15 q 219 28 301 -15 q 92 153 136 72 q 47 343 47 233 q 92 532 47 453 q 219 653 136 611 q 413 696 301 696 q 505 685 456 696 q 600 650 554 675 q 643 603 635 633 q 640 544 651 574 q 602 502 628 515 q 542 507 576 489 q 433 536 486 536 q 306 485 351 536 q 261 342 261 435 q 306 198 261 250 q 433 146 351 146 q 486 152 458 146 q 542 174 514 158 q 602 178 576 192 q 638 135 628 164 q 639 76 647 107 q 597 29 631 46 q 503 -5 550 6 q 413 -15 456 -15 z "},"ć":{"ha":664,"x_min":47,"x_max":651,"o":"m 413 -15 q 219 28 301 -15 q 92 153 136 72 q 47 343 47 233 q 92 532 47 453 q 219 653 136 611 q 413 696 301 696 q 505 685 456 696 q 600 650 554 675 q 643 603 635 633 q 640 544 651 574 q 602 502 628 515 q 542 507 576 489 q 433 536 486 536 q 306 485 351 536 q 261 342 261 435 q 306 198 261 250 q 433 146 351 146 q 486 152 458 146 q 542 174 514 158 q 602 178 576 192 q 638 135 628 164 q 639 76 647 107 q 597 29 631 46 q 503 -5 550 6 q 413 -15 456 -15 m 475 781 q 435 755 458 758 q 392 763 413 751 q 362 797 371 775 q 365 843 353 818 l 464 1039 q 503 1078 479 1069 q 552 1079 526 1086 q 597 1054 578 1072 q 619 1012 615 1036 q 604 961 624 988 l 475 781 z "},"č":{"ha":664,"x_min":47,"x_max":651,"o":"m 413 -15 q 219 28 301 -15 q 92 153 136 72 q 47 343 47 233 q 92 532 47 453 q 219 653 136 611 q 413 696 301 696 q 505 685 456 696 q 600 650 554 675 q 643 603 635 633 q 640 544 651 574 q 602 502 628 515 q 542 507 576 489 q 433 536 486 536 q 306 485 351 536 q 261 342 261 435 q 306 198 261 250 q 433 146 351 146 q 486 152 458 146 q 542 174 514 158 q 602 178 576 192 q 638 135 628 164 q 639 76 647 107 q 597 29 631 46 q 503 -5 550 6 q 413 -15 456 -15 m 399 743 q 331 763 360 743 q 283 819 303 783 l 193 985 q 187 1031 179 1010 q 214 1063 194 1051 q 256 1071 233 1074 q 293 1044 278 1068 l 399 885 l 504 1044 q 542 1071 519 1068 q 583 1063 564 1074 q 610 1031 603 1051 q 604 985 618 1010 l 515 819 q 467 763 496 783 q 399 743 438 743 z "},"ç":{"ha":664,"x_min":47,"x_max":651,"o":"m 413 -15 q 219 28 301 -15 q 92 153 136 72 q 47 343 47 233 q 92 532 47 453 q 219 653 136 611 q 413 696 301 696 q 505 685 456 696 q 600 650 554 675 q 643 603 635 633 q 640 544 651 574 q 602 502 628 515 q 542 507 576 489 q 433 536 486 536 q 306 485 351 536 q 261 342 261 435 q 306 198 261 250 q 433 146 351 146 q 486 152 458 146 q 542 174 514 158 q 602 178 576 192 q 638 135 628 164 q 639 76 647 107 q 597 29 631 46 q 503 -5 550 6 q 413 -15 456 -15 m 397 -274 q 340 -270 369 -274 q 286 -258 311 -267 q 253 -233 261 -251 q 249 -197 244 -215 q 269 -169 253 -179 q 310 -168 285 -160 q 378 -179 342 -179 q 450 -143 450 -179 q 399 -115 450 -115 q 380 -116 389 -115 q 360 -118 371 -117 q 328 -112 340 -124 q 321 -75 317 -101 l 336 28 l 442 28 l 428 -47 q 436 -47 432 -47 q 534 -74 499 -47 q 569 -150 569 -101 q 522 -240 569 -206 q 397 -274 474 -274 z "},"ḉ":{"ha":664,"x_min":47,"x_max":651,"o":"m 413 -15 q 219 28 301 -15 q 92 153 136 72 q 47 343 47 233 q 92 532 47 453 q 219 653 136 611 q 413 696 301 696 q 505 685 456 696 q 600 650 554 675 q 643 603 635 633 q 640 544 651 574 q 602 502 628 515 q 542 507 576 489 q 433 536 486 536 q 306 485 351 536 q 261 342 261 435 q 306 198 261 250 q 433 146 351 146 q 486 152 458 146 q 542 174 514 158 q 602 178 576 192 q 638 135 628 164 q 639 76 647 107 q 597 29 631 46 q 503 -5 550 6 q 413 -15 456 -15 m 397 -274 q 340 -270 369 -274 q 286 -258 311 -267 q 253 -233 261 -251 q 249 -197 244 -215 q 269 -169 253 -179 q 310 -168 285 -160 q 378 -179 342 -179 q 450 -143 450 -179 q 399 -115 450 -115 q 380 -116 389 -115 q 360 -118 371 -117 q 328 -112 340 -124 q 321 -75 317 -101 l 336 28 l 442 28 l 428 -47 q 436 -47 432 -47 q 534 -74 499 -47 q 569 -150 569 -101 q 522 -240 569 -206 q 397 -274 474 -274 m 475 781 q 435 755 458 758 q 392 763 413 751 q 362 797 371 775 q 365 843 353 818 l 464 1039 q 503 1078 479 1069 q 552 1079 526 1086 q 597 1054 578 1072 q 619 1012 615 1036 q 604 961 624 988 l 475 781 z "},"ĉ":{"ha":664,"x_min":47,"x_max":651,"o":"m 413 -15 q 219 28 301 -15 q 92 153 136 72 q 47 343 47 233 q 92 532 47 453 q 219 653 136 611 q 413 696 301 696 q 505 685 456 696 q 600 650 554 675 q 643 603 635 633 q 640 544 651 574 q 602 502 628 515 q 542 507 576 489 q 433 536 486 536 q 306 485 351 536 q 261 342 261 435 q 306 198 261 250 q 433 146 351 146 q 486 152 458 146 q 542 174 514 158 q 602 178 576 192 q 638 135 628 164 q 639 76 647 107 q 597 29 631 46 q 503 -5 550 6 q 413 -15 456 -15 m 604 842 q 610 795 618 817 q 583 763 603 774 q 542 755 564 751 q 504 782 519 758 l 399 942 l 293 782 q 256 755 278 758 q 214 763 233 751 q 187 795 194 774 q 193 842 179 817 l 283 1007 q 399 1082 324 1082 q 515 1007 475 1082 l 604 842 z "},"ċ":{"ha":664,"x_min":47,"x_max":651,"o":"m 413 -15 q 219 28 301 -15 q 92 153 136 72 q 47 343 47 233 q 92 532 47 453 q 219 653 136 611 q 413 696 301 696 q 505 685 456 696 q 600 650 554 675 q 643 603 635 633 q 640 544 651 574 q 602 502 628 515 q 542 507 576 489 q 433 536 486 536 q 306 485 351 536 q 261 342 261 435 q 306 198 261 250 q 433 146 351 146 q 486 152 458 146 q 542 174 514 158 q 602 178 576 192 q 638 135 628 164 q 639 76 647 107 q 597 29 631 46 q 503 -5 550 6 q 413 -15 456 -15 m 399 813 q 322 839 349 813 q 294 913 294 865 q 399 1011 294 1011 q 503 913 503 1011 q 399 813 503 813 z "},"d":{"ha":847,"x_min":47,"x_max":767,"o":"m 346 -15 q 190 28 257 -15 q 85 152 122 72 q 47 342 47 232 q 85 531 47 451 q 190 653 122 610 q 346 696 257 696 q 471 667 414 696 q 557 589 528 638 l 557 885 q 661 992 557 992 q 767 885 767 992 l 767 94 q 663 -12 767 -12 q 558 94 558 -12 l 558 99 q 473 15 531 46 q 346 -15 415 -15 m 408 142 q 517 190 475 142 q 560 342 560 239 q 517 491 560 443 q 408 539 475 539 q 300 491 342 539 q 258 342 258 443 q 300 190 258 239 q 408 142 342 142 z "},"ð":{"ha":824,"x_min":47,"x_max":779,"o":"m 400 -15 q 216 26 296 -15 q 92 140 136 67 q 47 308 47 213 q 90 472 47 400 q 207 583 132 543 q 381 622 282 622 q 486 606 439 622 q 568 554 533 590 q 510 670 549 619 q 422 757 471 721 l 238 672 q 182 665 206 657 q 149 694 158 674 q 148 738 139 715 q 190 776 157 761 l 297 825 q 263 838 281 832 q 228 850 246 844 q 175 885 189 860 q 169 938 161 911 q 203 978 176 964 q 271 982 229 993 q 377 950 328 969 q 471 906 426 931 l 619 975 q 675 981 651 989 q 709 952 699 972 q 711 910 719 932 q 671 872 703 888 l 579 831 q 728 633 676 746 q 779 403 779 521 q 681 97 779 208 q 400 -15 582 -15 m 408 144 q 519 189 479 144 q 558 307 558 233 q 519 424 558 381 q 407 468 481 468 q 298 424 338 468 q 258 307 258 381 q 298 188 258 231 q 408 144 338 144 z "},"ď":{"ha":847,"x_min":47,"x_max":951,"o":"m 346 -15 q 190 28 257 -15 q 85 152 122 72 q 47 342 47 232 q 85 531 47 451 q 190 653 122 610 q 346 696 257 696 q 471 667 414 696 q 557 589 528 638 l 557 885 q 661 992 557 992 q 767 885 767 992 l 767 94 q 663 -12 767 -12 q 558 94 558 -12 l 558 99 q 473 15 531 46 q 346 -15 415 -15 m 408 142 q 517 190 475 142 q 560 342 560 239 q 517 491 560 443 q 408 539 475 539 q 300 491 342 539 q 258 342 258 443 q 300 190 258 239 q 408 142 342 142 m 864 699 q 818 750 818 699 l 818 925 q 883 992 818 992 q 942 922 951 992 l 917 746 q 864 699 910 699 z "},"đ":{"ha":847,"x_min":47,"x_max":892,"o":"m 346 -15 q 191 28 258 -15 q 85 149 124 71 q 47 336 47 228 q 85 524 47 446 q 190 645 122 603 q 346 688 257 688 q 472 658 415 688 q 557 579 529 628 l 557 747 l 367 747 q 292 819 292 747 q 367 892 292 892 l 557 892 l 557 904 q 584 967 557 942 q 661 992 611 992 q 740 967 713 992 q 767 904 767 942 l 767 892 l 818 892 q 892 819 892 892 q 818 747 892 747 l 767 747 l 767 94 q 664 -12 767 -12 q 560 94 560 -12 l 560 99 q 475 16 532 47 q 346 -15 418 -15 m 410 142 q 519 190 476 142 q 561 336 561 239 q 519 483 561 435 q 410 531 476 531 q 300 483 342 531 q 258 336 258 435 q 300 190 258 239 q 410 142 342 142 z "},"ḍ":{"ha":847,"x_min":47,"x_max":767,"o":"m 346 -15 q 190 28 257 -15 q 85 152 122 72 q 47 342 47 232 q 85 531 47 451 q 190 653 122 610 q 346 696 257 696 q 471 667 414 696 q 557 589 528 638 l 557 885 q 661 992 557 992 q 767 885 767 992 l 767 94 q 663 -12 767 -12 q 558 94 558 -12 l 558 99 q 473 15 531 46 q 346 -15 415 -15 m 408 142 q 517 190 475 142 q 560 342 560 239 q 517 491 560 443 q 408 539 475 539 q 300 491 342 539 q 258 342 258 443 q 300 190 258 239 q 408 142 342 142 m 426 -304 q 349 -278 376 -304 q 322 -206 322 -253 q 426 -107 322 -107 q 531 -206 531 -107 q 426 -304 531 -304 z "},"ɗ":{"ha":847,"x_min":47,"x_max":961,"o":"m 346 -15 q 190 28 257 -15 q 85 152 122 72 q 47 342 47 232 q 85 531 47 451 q 190 653 122 610 q 346 696 257 696 q 471 667 414 696 q 557 589 528 638 l 557 706 q 629 915 557 836 q 840 993 701 993 q 935 970 910 993 q 961 911 961 947 q 947 848 961 871 q 907 826 933 825 q 891 828 900 828 q 869 829 882 829 q 794 799 821 829 q 767 707 767 768 l 767 94 q 663 -12 767 -12 q 558 94 558 -12 l 558 99 q 473 15 531 46 q 346 -15 415 -15 m 408 143 q 517 191 475 143 q 560 342 560 239 q 517 491 560 443 q 408 539 475 539 q 300 491 342 539 q 258 342 258 443 q 300 191 258 239 q 408 143 342 143 z "},"ḏ":{"ha":847,"x_min":47,"x_max":767,"o":"m 346 -15 q 190 28 257 -15 q 85 152 122 72 q 47 342 47 232 q 85 531 47 451 q 190 653 122 610 q 346 696 257 696 q 471 667 414 696 q 557 589 528 638 l 557 885 q 661 992 557 992 q 767 885 767 992 l 767 94 q 663 -12 767 -12 q 558 94 558 -12 l 558 99 q 473 15 531 46 q 346 -15 415 -15 m 408 142 q 517 190 475 142 q 560 342 560 239 q 517 491 560 443 q 408 539 475 539 q 300 491 342 539 q 258 342 258 443 q 300 190 258 239 q 408 142 342 142 m 253 -236 q 192 -176 192 -236 q 253 -118 192 -118 l 600 -118 q 663 -176 663 -118 q 600 -236 663 -236 l 253 -236 z "},"ǆ":{"ha":1514,"x_min":47,"x_max":1493,"o":"m 346 -15 q 190 28 257 -15 q 85 152 122 72 q 47 342 47 232 q 85 531 47 451 q 190 653 122 610 q 346 696 257 696 q 471 667 414 696 q 557 589 528 638 l 557 885 q 661 992 557 992 q 767 885 767 992 l 767 94 q 663 -12 767 -12 q 558 94 558 -12 l 558 99 q 473 15 531 46 q 346 -15 415 -15 m 408 142 q 517 190 475 142 q 560 342 560 239 q 517 491 560 443 q 408 539 475 539 q 300 491 342 539 q 258 342 258 443 q 300 190 258 239 q 408 142 342 142 z "},"e":{"ha":763,"x_min":47,"x_max":721,"o":"m 435 -15 q 227 28 314 -15 q 94 152 140 72 q 47 340 47 232 q 92 526 47 446 q 216 651 138 606 q 397 696 294 696 q 633 602 546 696 q 721 349 721 508 q 656 296 721 296 l 247 296 q 306 178 258 215 q 439 142 354 142 q 515 149 472 142 q 596 176 557 157 q 664 184 636 196 q 702 144 692 172 q 702 87 713 117 q 656 38 692 57 q 548 -2 607 11 q 435 -15 489 -15 m 406 557 q 298 517 339 557 q 247 404 257 476 l 547 404 q 406 557 539 557 z "},"é":{"ha":763,"x_min":47,"x_max":721,"o":"m 435 -15 q 227 28 314 -15 q 94 152 140 72 q 47 340 47 232 q 92 526 47 446 q 216 651 138 606 q 397 696 294 696 q 633 602 546 696 q 721 349 721 508 q 656 296 721 296 l 247 296 q 306 178 258 215 q 439 142 354 142 q 515 149 472 142 q 596 176 557 157 q 664 184 636 196 q 702 144 692 172 q 702 87 713 117 q 656 38 692 57 q 548 -2 607 11 q 435 -15 489 -15 m 406 557 q 298 517 339 557 q 247 404 257 476 l 547 404 q 406 557 539 557 m 475 781 q 435 755 458 758 q 392 763 413 751 q 362 797 371 775 q 365 843 353 818 l 464 1039 q 503 1078 479 1069 q 552 1079 526 1086 q 597 1054 578 1072 q 619 1012 615 1036 q 604 961 624 988 l 475 781 z "},"ĕ":{"ha":763,"x_min":47,"x_max":721,"o":"m 435 -15 q 227 28 314 -15 q 94 152 140 72 q 47 340 47 232 q 92 526 47 446 q 216 651 138 606 q 397 696 294 696 q 633 602 546 696 q 721 349 721 508 q 656 296 721 296 l 247 296 q 306 178 258 215 q 439 142 354 142 q 515 149 472 142 q 596 176 557 157 q 664 184 636 196 q 702 144 692 172 q 702 87 713 117 q 656 38 692 57 q 548 -2 607 11 q 435 -15 489 -15 m 406 557 q 298 517 339 557 q 247 404 257 476 l 547 404 q 406 557 539 557 m 399 767 q 281 795 329 767 q 203 872 232 824 q 164 976 174 919 q 174 1030 158 1010 q 215 1051 189 1050 q 259 1038 243 1053 q 285 993 275 1022 q 326 915 296 942 q 399 889 357 889 q 471 915 440 889 q 513 993 501 942 q 538 1038 522 1022 q 582 1051 554 1053 q 624 1030 608 1050 q 633 976 639 1010 q 595 872 625 919 q 517 795 565 824 q 399 767 468 767 z "},"ě":{"ha":763,"x_min":47,"x_max":721,"o":"m 435 -15 q 227 28 314 -15 q 94 152 140 72 q 47 340 47 232 q 92 526 47 446 q 216 651 138 606 q 397 696 294 696 q 633 602 546 696 q 721 349 721 508 q 656 296 721 296 l 247 296 q 306 178 258 215 q 439 142 354 142 q 515 149 472 142 q 596 176 557 157 q 664 184 636 196 q 702 144 692 172 q 702 87 713 117 q 656 38 692 57 q 548 -2 607 11 q 435 -15 489 -15 m 406 557 q 298 517 339 557 q 247 404 257 476 l 547 404 q 406 557 539 557 m 399 743 q 331 763 360 743 q 283 819 303 783 l 193 985 q 187 1031 179 1010 q 214 1063 194 1051 q 256 1071 233 1074 q 293 1044 278 1068 l 399 885 l 504 1044 q 542 1071 519 1068 q 583 1063 564 1074 q 610 1031 603 1051 q 604 985 618 1010 l 515 819 q 467 763 496 783 q 399 743 438 743 z "},"ḝ":{"ha":763,"x_min":47,"x_max":721,"o":"m 435 -15 q 227 28 314 -15 q 94 152 140 72 q 47 340 47 232 q 92 526 47 446 q 216 651 138 606 q 397 696 294 696 q 633 602 546 696 q 721 349 721 508 q 656 296 721 296 l 247 296 q 306 178 258 215 q 439 142 354 142 q 515 149 472 142 q 596 176 557 157 q 664 184 636 196 q 702 144 692 172 q 702 87 713 117 q 656 38 692 57 q 548 -2 607 11 q 435 -15 489 -15 m 406 557 q 298 517 339 557 q 247 404 257 476 l 547 404 q 406 557 539 557 m 397 -274 q 340 -270 369 -274 q 286 -258 311 -267 q 253 -233 261 -251 q 249 -197 244 -215 q 269 -169 253 -179 q 310 -168 285 -160 q 378 -179 342 -179 q 450 -143 450 -179 q 399 -115 450 -115 q 380 -116 389 -115 q 360 -118 371 -117 q 328 -112 340 -124 q 321 -75 317 -101 l 336 28 l 442 28 l 428 -47 q 436 -47 432 -47 q 534 -74 499 -47 q 569 -150 569 -101 q 522 -240 569 -206 q 397 -274 474 -274 m 399 767 q 281 795 329 767 q 203 872 232 824 q 164 976 174 919 q 174 1030 158 1010 q 215 1051 189 1050 q 259 1038 243 1053 q 285 993 275 1022 q 326 915 296 942 q 399 889 357 889 q 471 915 440 889 q 513 993 501 942 q 538 1038 522 1022 q 582 1051 554 1053 q 624 1030 608 1050 q 633 976 639 1010 q 595 872 625 919 q 517 795 565 824 q 399 767 468 767 z "},"ê":{"ha":763,"x_min":47,"x_max":721,"o":"m 435 -15 q 227 28 314 -15 q 94 152 140 72 q 47 340 47 232 q 92 526 47 446 q 216 651 138 606 q 397 696 294 696 q 633 602 546 696 q 721 349 721 508 q 656 296 721 296 l 247 296 q 306 178 258 215 q 439 142 354 142 q 515 149 472 142 q 596 176 557 157 q 664 184 636 196 q 702 144 692 172 q 702 87 713 117 q 656 38 692 57 q 548 -2 607 11 q 435 -15 489 -15 m 406 557 q 298 517 339 557 q 247 404 257 476 l 547 404 q 406 557 539 557 m 604 842 q 610 795 618 817 q 583 763 603 774 q 542 755 564 751 q 504 782 519 758 l 399 942 l 293 782 q 256 755 278 758 q 214 763 233 751 q 187 795 194 774 q 193 842 179 817 l 283 1007 q 399 1082 324 1082 q 515 1007 475 1082 l 604 842 z "},"ế":{"ha":763,"x_min":47,"x_max":797,"o":"m 435 -15 q 227 28 314 -15 q 94 152 140 72 q 47 340 47 232 q 92 526 47 446 q 216 651 138 606 q 397 696 294 696 q 633 602 546 696 q 721 349 721 508 q 656 296 721 296 l 247 296 q 306 178 258 215 q 439 142 354 142 q 515 149 472 142 q 596 176 557 157 q 664 184 636 196 q 702 144 692 172 q 702 87 713 117 q 656 38 692 57 q 548 -2 607 11 q 435 -15 489 -15 m 406 557 q 298 517 339 557 q 247 404 257 476 l 547 404 q 406 557 539 557 m 668 911 q 622 889 647 886 q 583 913 596 892 q 586 967 569 935 l 667 1113 q 711 1147 685 1143 q 760 1137 738 1151 q 790 1097 783 1122 q 775 1044 797 1072 l 668 911 m 292 778 q 236 754 265 750 q 194 783 207 758 q 201 838 181 807 l 281 957 q 334 1007 306 993 q 399 1021 363 1021 q 465 1007 436 1021 q 517 957 493 993 l 596 838 q 604 783 617 807 q 563 754 592 758 q 506 778 533 750 l 399 892 l 292 778 z "},"ệ":{"ha":763,"x_min":47,"x_max":721,"o":"m 435 -15 q 227 28 314 -15 q 94 152 140 72 q 47 340 47 232 q 92 526 47 446 q 216 651 138 606 q 397 696 294 696 q 633 602 546 696 q 721 349 721 508 q 656 296 721 296 l 247 296 q 306 178 258 215 q 439 142 354 142 q 515 149 472 142 q 596 176 557 157 q 664 184 636 196 q 702 144 692 172 q 702 87 713 117 q 656 38 692 57 q 548 -2 607 11 q 435 -15 489 -15 m 406 557 q 298 517 339 557 q 247 404 257 476 l 547 404 q 406 557 539 557 m 399 -304 q 322 -278 349 -304 q 294 -206 294 -253 q 399 -107 294 -107 q 503 -206 503 -107 q 399 -304 503 -304 m 604 842 q 610 795 618 817 q 583 763 603 774 q 542 755 564 751 q 504 782 519 758 l 399 942 l 293 782 q 256 755 278 758 q 214 763 233 751 q 187 795 194 774 q 193 842 179 817 l 283 1007 q 399 1082 324 1082 q 515 1007 475 1082 l 604 842 z "},"ề":{"ha":763,"x_min":47,"x_max":722,"o":"m 435 -15 q 227 28 314 -15 q 94 152 140 72 q 47 340 47 232 q 92 526 47 446 q 216 651 138 606 q 397 696 294 696 q 633 602 546 696 q 721 349 721 508 q 656 296 721 296 l 247 296 q 306 178 258 215 q 439 142 354 142 q 515 149 472 142 q 596 176 557 157 q 664 184 636 196 q 702 144 692 172 q 702 87 713 117 q 656 38 692 57 q 548 -2 607 11 q 435 -15 489 -15 m 406 557 q 298 517 339 557 q 247 404 257 476 l 547 404 q 406 557 539 557 m 625 911 l 518 1044 q 503 1097 496 1072 q 533 1137 510 1122 q 582 1147 556 1151 q 625 1113 608 1143 l 706 967 q 709 913 722 935 q 670 889 696 892 q 625 911 644 886 m 292 778 q 236 754 265 750 q 194 783 207 758 q 201 838 181 807 l 281 957 q 334 1007 306 993 q 399 1021 363 1021 q 465 1007 436 1021 q 517 957 493 993 l 596 838 q 604 783 617 807 q 563 754 592 758 q 506 778 533 750 l 399 892 l 292 778 z "},"ể":{"ha":763,"x_min":47,"x_max":756,"o":"m 435 -15 q 227 28 314 -15 q 94 152 140 72 q 47 340 47 232 q 92 526 47 446 q 216 651 138 606 q 397 696 294 696 q 633 602 546 696 q 721 349 721 508 q 656 296 721 296 l 247 296 q 306 178 258 215 q 439 142 354 142 q 515 149 472 142 q 596 176 557 157 q 664 184 636 196 q 702 144 692 172 q 702 87 713 117 q 656 38 692 57 q 548 -2 607 11 q 435 -15 489 -15 m 406 557 q 298 517 339 557 q 247 404 257 476 l 547 404 q 406 557 539 557 m 646 913 q 606 907 626 901 q 577 928 586 913 q 585 960 568 943 q 613 990 601 976 q 624 1021 624 1004 q 579 1051 624 1051 q 539 1046 560 1051 q 483 1069 496 1036 q 515 1122 471 1110 q 567 1132 540 1129 q 625 1135 594 1135 q 722 1115 688 1135 q 756 1053 756 1096 q 719 973 756 1011 q 646 913 683 935 m 292 778 q 236 754 265 750 q 194 783 207 758 q 201 838 181 807 l 281 957 q 334 1007 306 993 q 399 1021 363 1021 q 465 1007 436 1021 q 517 957 493 993 l 596 838 q 604 783 617 807 q 563 754 592 758 q 506 778 533 750 l 399 892 l 292 778 z "},"ễ":{"ha":763,"x_min":47,"x_max":721,"o":"m 435 -15 q 227 28 314 -15 q 94 152 140 72 q 47 340 47 232 q 92 526 47 446 q 216 651 138 606 q 397 696 294 696 q 633 602 546 696 q 721 349 721 508 q 656 296 721 296 l 247 296 q 306 178 258 215 q 439 142 354 142 q 515 149 472 142 q 596 176 557 157 q 664 184 636 196 q 702 144 692 172 q 702 87 713 117 q 656 38 692 57 q 548 -2 607 11 q 435 -15 489 -15 m 406 557 q 298 517 339 557 q 247 404 257 476 l 547 404 q 406 557 539 557 m 197 988 q 163 1004 175 989 q 157 1044 150 1019 q 212 1123 172 1096 q 306 1150 251 1150 q 374 1136 343 1150 q 433 1109 406 1122 q 486 1096 460 1096 q 520 1101 506 1096 q 543 1121 535 1107 q 567 1146 554 1136 q 600 1154 581 1156 q 636 1138 624 1153 q 640 1096 649 1122 q 587 1017 626 1044 q 493 990 547 990 q 423 1004 454 990 q 365 1032 392 1018 q 313 1046 338 1046 q 256 1019 271 1046 q 231 995 244 1004 q 197 988 218 986 m 276 767 q 225 755 249 747 q 192 784 201 763 q 201 828 183 806 l 271 910 q 329 954 297 942 q 399 967 361 967 q 469 954 438 967 q 526 910 501 942 l 596 828 q 604 784 613 806 q 573 755 596 763 q 521 767 550 747 l 399 861 l 276 767 z "},"ȅ":{"ha":763,"x_min":47,"x_max":721,"o":"m 435 -15 q 227 28 314 -15 q 94 152 140 72 q 47 340 47 232 q 92 526 47 446 q 216 651 138 606 q 397 696 294 696 q 633 602 546 696 q 721 349 721 508 q 656 296 721 296 l 247 296 q 306 178 258 215 q 439 142 354 142 q 515 149 472 142 q 596 176 557 157 q 664 184 636 196 q 702 144 692 172 q 702 87 713 117 q 656 38 692 57 q 548 -2 607 11 q 435 -15 489 -15 m 406 557 q 298 517 339 557 q 247 404 257 476 l 547 404 q 406 557 539 557 m 451 788 l 365 982 q 365 1045 349 1019 q 412 1079 381 1071 q 472 1074 443 1088 q 511 1022 501 1061 l 557 819 q 551 778 563 794 q 520 756 540 761 q 481 759 500 751 q 451 788 463 767 m 229 788 l 142 982 q 141 1045 125 1019 q 188 1079 157 1071 q 249 1074 219 1088 q 286 1022 278 1061 l 335 819 q 328 778 340 794 q 297 756 317 761 q 258 759 278 751 q 229 788 239 767 z "},"ë":{"ha":763,"x_min":47,"x_max":721,"o":"m 435 -15 q 227 28 314 -15 q 94 152 140 72 q 47 340 47 232 q 92 526 47 446 q 216 651 138 606 q 397 696 294 696 q 633 602 546 696 q 721 349 721 508 q 656 296 721 296 l 247 296 q 306 178 258 215 q 439 142 354 142 q 515 149 472 142 q 596 176 557 157 q 664 184 636 196 q 702 144 692 172 q 702 87 713 117 q 656 38 692 57 q 548 -2 607 11 q 435 -15 489 -15 m 406 557 q 298 517 339 557 q 247 404 257 476 l 547 404 q 406 557 539 557 m 536 813 q 438 911 438 813 q 536 1008 438 1008 q 633 911 633 1008 q 536 813 633 813 m 263 813 q 190 838 215 813 q 164 911 164 864 q 190 983 164 958 q 263 1008 215 1008 q 360 911 360 1008 q 263 813 360 813 z "}}}
